%TF.GenerationSoftware,KiCad,Pcbnew,8.0.3*%
%TF.CreationDate,2024-12-07T17:37:54-06:00*%
%TF.ProjectId,XVI Overclock,58564920-4f76-4657-9263-6c6f636b2e6b,rev?*%
%TF.SameCoordinates,Original*%
%TF.FileFunction,Soldermask,Top*%
%TF.FilePolarity,Negative*%
%FSLAX46Y46*%
G04 Gerber Fmt 4.6, Leading zero omitted, Abs format (unit mm)*
G04 Created by KiCad (PCBNEW 8.0.3) date 2024-12-07 17:37:54*
%MOMM*%
%LPD*%
G01*
G04 APERTURE LIST*
G04 Aperture macros list*
%AMRoundRect*
0 Rectangle with rounded corners*
0 $1 Rounding radius*
0 $2 $3 $4 $5 $6 $7 $8 $9 X,Y pos of 4 corners*
0 Add a 4 corners polygon primitive as box body*
4,1,4,$2,$3,$4,$5,$6,$7,$8,$9,$2,$3,0*
0 Add four circle primitives for the rounded corners*
1,1,$1+$1,$2,$3*
1,1,$1+$1,$4,$5*
1,1,$1+$1,$6,$7*
1,1,$1+$1,$8,$9*
0 Add four rect primitives between the rounded corners*
20,1,$1+$1,$2,$3,$4,$5,0*
20,1,$1+$1,$4,$5,$6,$7,0*
20,1,$1+$1,$6,$7,$8,$9,0*
20,1,$1+$1,$8,$9,$2,$3,0*%
G04 Aperture macros list end*
%ADD10C,0.150000*%
%ADD11C,0.010000*%
%ADD12RoundRect,0.150000X-0.850000X-0.150000X0.850000X-0.150000X0.850000X0.150000X-0.850000X0.150000X0*%
%ADD13C,1.600000*%
%ADD14R,1.600000X1.600000*%
%ADD15O,1.700000X1.700000*%
%ADD16R,1.700000X1.700000*%
%ADD17O,1.600000X1.600000*%
G04 APERTURE END LIST*
D10*
X161252255Y-93519819D02*
X161442731Y-93519819D01*
X161442731Y-93519819D02*
X161537969Y-93567438D01*
X161537969Y-93567438D02*
X161633207Y-93662676D01*
X161633207Y-93662676D02*
X161680826Y-93853152D01*
X161680826Y-93853152D02*
X161680826Y-94186485D01*
X161680826Y-94186485D02*
X161633207Y-94376961D01*
X161633207Y-94376961D02*
X161537969Y-94472200D01*
X161537969Y-94472200D02*
X161442731Y-94519819D01*
X161442731Y-94519819D02*
X161252255Y-94519819D01*
X161252255Y-94519819D02*
X161157017Y-94472200D01*
X161157017Y-94472200D02*
X161061779Y-94376961D01*
X161061779Y-94376961D02*
X161014160Y-94186485D01*
X161014160Y-94186485D02*
X161014160Y-93853152D01*
X161014160Y-93853152D02*
X161061779Y-93662676D01*
X161061779Y-93662676D02*
X161157017Y-93567438D01*
X161157017Y-93567438D02*
X161252255Y-93519819D01*
X162014160Y-93853152D02*
X162252255Y-94519819D01*
X162252255Y-94519819D02*
X162490350Y-93853152D01*
X163252255Y-94472200D02*
X163157017Y-94519819D01*
X163157017Y-94519819D02*
X162966541Y-94519819D01*
X162966541Y-94519819D02*
X162871303Y-94472200D01*
X162871303Y-94472200D02*
X162823684Y-94376961D01*
X162823684Y-94376961D02*
X162823684Y-93996009D01*
X162823684Y-93996009D02*
X162871303Y-93900771D01*
X162871303Y-93900771D02*
X162966541Y-93853152D01*
X162966541Y-93853152D02*
X163157017Y-93853152D01*
X163157017Y-93853152D02*
X163252255Y-93900771D01*
X163252255Y-93900771D02*
X163299874Y-93996009D01*
X163299874Y-93996009D02*
X163299874Y-94091247D01*
X163299874Y-94091247D02*
X162823684Y-94186485D01*
X163728446Y-94519819D02*
X163728446Y-93853152D01*
X163728446Y-94043628D02*
X163776065Y-93948390D01*
X163776065Y-93948390D02*
X163823684Y-93900771D01*
X163823684Y-93900771D02*
X163918922Y-93853152D01*
X163918922Y-93853152D02*
X164014160Y-93853152D01*
X164776065Y-94472200D02*
X164680827Y-94519819D01*
X164680827Y-94519819D02*
X164490351Y-94519819D01*
X164490351Y-94519819D02*
X164395113Y-94472200D01*
X164395113Y-94472200D02*
X164347494Y-94424580D01*
X164347494Y-94424580D02*
X164299875Y-94329342D01*
X164299875Y-94329342D02*
X164299875Y-94043628D01*
X164299875Y-94043628D02*
X164347494Y-93948390D01*
X164347494Y-93948390D02*
X164395113Y-93900771D01*
X164395113Y-93900771D02*
X164490351Y-93853152D01*
X164490351Y-93853152D02*
X164680827Y-93853152D01*
X164680827Y-93853152D02*
X164776065Y-93900771D01*
X165347494Y-94519819D02*
X165252256Y-94472200D01*
X165252256Y-94472200D02*
X165204637Y-94376961D01*
X165204637Y-94376961D02*
X165204637Y-93519819D01*
X165871304Y-94519819D02*
X165776066Y-94472200D01*
X165776066Y-94472200D02*
X165728447Y-94424580D01*
X165728447Y-94424580D02*
X165680828Y-94329342D01*
X165680828Y-94329342D02*
X165680828Y-94043628D01*
X165680828Y-94043628D02*
X165728447Y-93948390D01*
X165728447Y-93948390D02*
X165776066Y-93900771D01*
X165776066Y-93900771D02*
X165871304Y-93853152D01*
X165871304Y-93853152D02*
X166014161Y-93853152D01*
X166014161Y-93853152D02*
X166109399Y-93900771D01*
X166109399Y-93900771D02*
X166157018Y-93948390D01*
X166157018Y-93948390D02*
X166204637Y-94043628D01*
X166204637Y-94043628D02*
X166204637Y-94329342D01*
X166204637Y-94329342D02*
X166157018Y-94424580D01*
X166157018Y-94424580D02*
X166109399Y-94472200D01*
X166109399Y-94472200D02*
X166014161Y-94519819D01*
X166014161Y-94519819D02*
X165871304Y-94519819D01*
X167061780Y-94472200D02*
X166966542Y-94519819D01*
X166966542Y-94519819D02*
X166776066Y-94519819D01*
X166776066Y-94519819D02*
X166680828Y-94472200D01*
X166680828Y-94472200D02*
X166633209Y-94424580D01*
X166633209Y-94424580D02*
X166585590Y-94329342D01*
X166585590Y-94329342D02*
X166585590Y-94043628D01*
X166585590Y-94043628D02*
X166633209Y-93948390D01*
X166633209Y-93948390D02*
X166680828Y-93900771D01*
X166680828Y-93900771D02*
X166776066Y-93853152D01*
X166776066Y-93853152D02*
X166966542Y-93853152D01*
X166966542Y-93853152D02*
X167061780Y-93900771D01*
X167490352Y-94519819D02*
X167490352Y-93519819D01*
X167585590Y-94138866D02*
X167871304Y-94519819D01*
X167871304Y-93853152D02*
X167490352Y-94234104D01*
X160674999Y-115028628D02*
X160627380Y-114981009D01*
X160627380Y-114981009D02*
X160532142Y-114933390D01*
X160532142Y-114933390D02*
X160436904Y-114933390D01*
X160436904Y-114933390D02*
X160341666Y-114981009D01*
X160341666Y-114981009D02*
X160294047Y-115028628D01*
X160294047Y-115028628D02*
X160246428Y-115123866D01*
X160246428Y-115123866D02*
X160246428Y-115219104D01*
X160246428Y-115219104D02*
X160294047Y-115314342D01*
X160294047Y-115314342D02*
X160341666Y-115361961D01*
X160341666Y-115361961D02*
X160436904Y-115409580D01*
X160436904Y-115409580D02*
X160532142Y-115409580D01*
X160532142Y-115409580D02*
X160627380Y-115361961D01*
X160627380Y-115361961D02*
X160674999Y-115314342D01*
X160674999Y-114933390D02*
X160674999Y-115314342D01*
X160674999Y-115314342D02*
X160722618Y-115361961D01*
X160722618Y-115361961D02*
X160770237Y-115361961D01*
X160770237Y-115361961D02*
X160865476Y-115314342D01*
X160865476Y-115314342D02*
X160913095Y-115219104D01*
X160913095Y-115219104D02*
X160913095Y-114981009D01*
X160913095Y-114981009D02*
X160817857Y-114838152D01*
X160817857Y-114838152D02*
X160674999Y-114742914D01*
X160674999Y-114742914D02*
X160484523Y-114695295D01*
X160484523Y-114695295D02*
X160294047Y-114742914D01*
X160294047Y-114742914D02*
X160151190Y-114838152D01*
X160151190Y-114838152D02*
X160055952Y-114981009D01*
X160055952Y-114981009D02*
X160008333Y-115171485D01*
X160008333Y-115171485D02*
X160055952Y-115361961D01*
X160055952Y-115361961D02*
X160151190Y-115504819D01*
X160151190Y-115504819D02*
X160294047Y-115600057D01*
X160294047Y-115600057D02*
X160484523Y-115647676D01*
X160484523Y-115647676D02*
X160674999Y-115600057D01*
X160674999Y-115600057D02*
X160817857Y-115504819D01*
X161770237Y-115457200D02*
X161674999Y-115504819D01*
X161674999Y-115504819D02*
X161484523Y-115504819D01*
X161484523Y-115504819D02*
X161389285Y-115457200D01*
X161389285Y-115457200D02*
X161341666Y-115409580D01*
X161341666Y-115409580D02*
X161294047Y-115314342D01*
X161294047Y-115314342D02*
X161294047Y-115028628D01*
X161294047Y-115028628D02*
X161341666Y-114933390D01*
X161341666Y-114933390D02*
X161389285Y-114885771D01*
X161389285Y-114885771D02*
X161484523Y-114838152D01*
X161484523Y-114838152D02*
X161674999Y-114838152D01*
X161674999Y-114838152D02*
X161770237Y-114885771D01*
X162103571Y-114838152D02*
X162341666Y-115504819D01*
X162579761Y-114838152D02*
X162341666Y-115504819D01*
X162341666Y-115504819D02*
X162246428Y-115742914D01*
X162246428Y-115742914D02*
X162198809Y-115790533D01*
X162198809Y-115790533D02*
X162103571Y-115838152D01*
X163103571Y-115504819D02*
X163008333Y-115457200D01*
X163008333Y-115457200D02*
X162960714Y-115409580D01*
X162960714Y-115409580D02*
X162913095Y-115314342D01*
X162913095Y-115314342D02*
X162913095Y-115028628D01*
X162913095Y-115028628D02*
X162960714Y-114933390D01*
X162960714Y-114933390D02*
X163008333Y-114885771D01*
X163008333Y-114885771D02*
X163103571Y-114838152D01*
X163103571Y-114838152D02*
X163246428Y-114838152D01*
X163246428Y-114838152D02*
X163341666Y-114885771D01*
X163341666Y-114885771D02*
X163389285Y-114933390D01*
X163389285Y-114933390D02*
X163436904Y-115028628D01*
X163436904Y-115028628D02*
X163436904Y-115314342D01*
X163436904Y-115314342D02*
X163389285Y-115409580D01*
X163389285Y-115409580D02*
X163341666Y-115457200D01*
X163341666Y-115457200D02*
X163246428Y-115504819D01*
X163246428Y-115504819D02*
X163103571Y-115504819D01*
X163865476Y-115409580D02*
X163913095Y-115457200D01*
X163913095Y-115457200D02*
X163865476Y-115504819D01*
X163865476Y-115504819D02*
X163817857Y-115457200D01*
X163817857Y-115457200D02*
X163865476Y-115409580D01*
X163865476Y-115409580D02*
X163865476Y-115504819D01*
X164198809Y-114838152D02*
X164579761Y-114838152D01*
X164341666Y-114504819D02*
X164341666Y-115361961D01*
X164341666Y-115361961D02*
X164389285Y-115457200D01*
X164389285Y-115457200D02*
X164484523Y-115504819D01*
X164484523Y-115504819D02*
X164579761Y-115504819D01*
X164913095Y-115504819D02*
X164913095Y-114504819D01*
X165341666Y-115504819D02*
X165341666Y-114981009D01*
X165341666Y-114981009D02*
X165294047Y-114885771D01*
X165294047Y-114885771D02*
X165198809Y-114838152D01*
X165198809Y-114838152D02*
X165055952Y-114838152D01*
X165055952Y-114838152D02*
X164960714Y-114885771D01*
X164960714Y-114885771D02*
X164913095Y-114933390D01*
X166198809Y-115457200D02*
X166103571Y-115504819D01*
X166103571Y-115504819D02*
X165913095Y-115504819D01*
X165913095Y-115504819D02*
X165817857Y-115457200D01*
X165817857Y-115457200D02*
X165770238Y-115361961D01*
X165770238Y-115361961D02*
X165770238Y-114981009D01*
X165770238Y-114981009D02*
X165817857Y-114885771D01*
X165817857Y-114885771D02*
X165913095Y-114838152D01*
X165913095Y-114838152D02*
X166103571Y-114838152D01*
X166103571Y-114838152D02*
X166198809Y-114885771D01*
X166198809Y-114885771D02*
X166246428Y-114981009D01*
X166246428Y-114981009D02*
X166246428Y-115076247D01*
X166246428Y-115076247D02*
X165770238Y-115171485D01*
X166675000Y-115409580D02*
X166722619Y-115457200D01*
X166722619Y-115457200D02*
X166675000Y-115504819D01*
X166675000Y-115504819D02*
X166627381Y-115457200D01*
X166627381Y-115457200D02*
X166675000Y-115409580D01*
X166675000Y-115409580D02*
X166675000Y-115504819D01*
X167055952Y-114838152D02*
X167294047Y-115504819D01*
X167294047Y-115504819D02*
X167532142Y-114838152D01*
X167913095Y-115504819D02*
X167913095Y-114838152D01*
X167913095Y-114504819D02*
X167865476Y-114552438D01*
X167865476Y-114552438D02*
X167913095Y-114600057D01*
X167913095Y-114600057D02*
X167960714Y-114552438D01*
X167960714Y-114552438D02*
X167913095Y-114504819D01*
X167913095Y-114504819D02*
X167913095Y-114600057D01*
X168532142Y-115504819D02*
X168436904Y-115457200D01*
X168436904Y-115457200D02*
X168389285Y-115361961D01*
X168389285Y-115361961D02*
X168389285Y-114504819D01*
X169294047Y-115457200D02*
X169198809Y-115504819D01*
X169198809Y-115504819D02*
X169008333Y-115504819D01*
X169008333Y-115504819D02*
X168913095Y-115457200D01*
X168913095Y-115457200D02*
X168865476Y-115361961D01*
X168865476Y-115361961D02*
X168865476Y-114981009D01*
X168865476Y-114981009D02*
X168913095Y-114885771D01*
X168913095Y-114885771D02*
X169008333Y-114838152D01*
X169008333Y-114838152D02*
X169198809Y-114838152D01*
X169198809Y-114838152D02*
X169294047Y-114885771D01*
X169294047Y-114885771D02*
X169341666Y-114981009D01*
X169341666Y-114981009D02*
X169341666Y-115076247D01*
X169341666Y-115076247D02*
X168865476Y-115171485D01*
D11*
%TO.C,G\u002A\u002A\u002A*%
X157019690Y-89722859D02*
X157145974Y-89896218D01*
X157096862Y-89639307D01*
X157174026Y-89639307D01*
X157193364Y-89703015D01*
X157270449Y-89857182D01*
X157395633Y-90084623D01*
X157559266Y-90368155D01*
X157751702Y-90690594D01*
X157903615Y-90938717D01*
X157997032Y-91089684D01*
X159446286Y-89644750D01*
X158324812Y-89627372D01*
X157960796Y-89623336D01*
X157642755Y-89622861D01*
X157391624Y-89625730D01*
X157228334Y-89631724D01*
X157174026Y-89639307D01*
X157096862Y-89639307D01*
X157079694Y-89549500D01*
X158293597Y-89549500D01*
X158732083Y-89551272D01*
X159057486Y-89557219D01*
X159283684Y-89568284D01*
X159424553Y-89585414D01*
X159493970Y-89609551D01*
X159507500Y-89632128D01*
X159464267Y-89701791D01*
X159344385Y-89843562D01*
X159162575Y-90041342D01*
X158933561Y-90279034D01*
X158718945Y-90494337D01*
X157930391Y-91273919D01*
X158377001Y-92038571D01*
X158559281Y-92356848D01*
X158679275Y-92583332D01*
X158743540Y-92732955D01*
X158758634Y-92820646D01*
X158736930Y-92858140D01*
X158648649Y-92875343D01*
X158454671Y-92890443D01*
X158176292Y-92902529D01*
X157834809Y-92910687D01*
X157451519Y-92914005D01*
X157432477Y-92914027D01*
X156214704Y-92915000D01*
X156053135Y-92708625D01*
X155891565Y-92502250D01*
X155905657Y-92692750D01*
X155919750Y-92883250D01*
X154776750Y-92898948D01*
X154399523Y-92900859D01*
X154065201Y-92896358D01*
X153795574Y-92886218D01*
X153612433Y-92871213D01*
X153540809Y-92855066D01*
X153523271Y-92814707D01*
X153535154Y-92788000D01*
X153572415Y-92788000D01*
X154705251Y-92788000D01*
X155113060Y-92786810D01*
X155409805Y-92782314D01*
X155611410Y-92773122D01*
X155733798Y-92757845D01*
X155792890Y-92735093D01*
X155804610Y-92703476D01*
X155801378Y-92692338D01*
X155745376Y-92576135D01*
X155645457Y-92394841D01*
X155517410Y-92174422D01*
X155377026Y-91940845D01*
X155240093Y-91720077D01*
X155122399Y-91538084D01*
X155039736Y-91420834D01*
X155010087Y-91391000D01*
X154952039Y-91433720D01*
X154821370Y-91551587D01*
X154634468Y-91729158D01*
X154407722Y-91950992D01*
X154268750Y-92089500D01*
X153572415Y-92788000D01*
X153535154Y-92788000D01*
X153557476Y-92737833D01*
X153652536Y-92613108D01*
X153817562Y-92429197D01*
X154061667Y-92174763D01*
X154204181Y-92029743D01*
X154457718Y-91776926D01*
X154683283Y-91559299D01*
X154864823Y-91391772D01*
X154986286Y-91289257D01*
X155028539Y-91264000D01*
X155107135Y-91312195D01*
X155205381Y-91429153D01*
X155211725Y-91438625D01*
X155292076Y-91552399D01*
X155315757Y-91566016D01*
X155287931Y-91490251D01*
X155213762Y-91335879D01*
X155098410Y-91113672D01*
X154947041Y-90834406D01*
X154773755Y-90524611D01*
X154608523Y-90228763D01*
X154468431Y-89969459D01*
X154364499Y-89767767D01*
X154307747Y-89644760D01*
X154306962Y-89642049D01*
X154364000Y-89642049D01*
X154394588Y-89700781D01*
X154479651Y-89851674D01*
X154609133Y-90077509D01*
X154772980Y-90361061D01*
X154961138Y-90685109D01*
X155163552Y-91032431D01*
X155370168Y-91385804D01*
X155570931Y-91728005D01*
X155755787Y-92041814D01*
X155914681Y-92310006D01*
X156037559Y-92515361D01*
X156114366Y-92640655D01*
X156117210Y-92645125D01*
X156152589Y-92694223D01*
X156198975Y-92730552D01*
X156274235Y-92756033D01*
X156396237Y-92772589D01*
X156582851Y-92782141D01*
X156851945Y-92786613D01*
X157221387Y-92787926D01*
X157445213Y-92788000D01*
X157825859Y-92786322D01*
X158159020Y-92781646D01*
X158425434Y-92774508D01*
X158605838Y-92765443D01*
X158680969Y-92754989D01*
X158682000Y-92753580D01*
X158651257Y-92691947D01*
X158564423Y-92534916D01*
X158429588Y-92296678D01*
X158254845Y-91991426D01*
X158048283Y-91633351D01*
X157817994Y-91236642D01*
X157777125Y-91166480D01*
X156872250Y-89613798D01*
X155618125Y-89613399D01*
X155234676Y-89614674D01*
X154898578Y-89618462D01*
X154628961Y-89624328D01*
X154444954Y-89631833D01*
X154365685Y-89640540D01*
X154364000Y-89642049D01*
X154306962Y-89642049D01*
X154300500Y-89619736D01*
X154349921Y-89593266D01*
X154502257Y-89573339D01*
X154763614Y-89559626D01*
X155140098Y-89551794D01*
X155596953Y-89549500D01*
X156893407Y-89549500D01*
X157019690Y-89722859D01*
G36*
X157019690Y-89722859D02*
G01*
X157145974Y-89896218D01*
X157096862Y-89639307D01*
X157174026Y-89639307D01*
X157193364Y-89703015D01*
X157270449Y-89857182D01*
X157395633Y-90084623D01*
X157559266Y-90368155D01*
X157751702Y-90690594D01*
X157903615Y-90938717D01*
X157997032Y-91089684D01*
X159446286Y-89644750D01*
X158324812Y-89627372D01*
X157960796Y-89623336D01*
X157642755Y-89622861D01*
X157391624Y-89625730D01*
X157228334Y-89631724D01*
X157174026Y-89639307D01*
X157096862Y-89639307D01*
X157079694Y-89549500D01*
X158293597Y-89549500D01*
X158732083Y-89551272D01*
X159057486Y-89557219D01*
X159283684Y-89568284D01*
X159424553Y-89585414D01*
X159493970Y-89609551D01*
X159507500Y-89632128D01*
X159464267Y-89701791D01*
X159344385Y-89843562D01*
X159162575Y-90041342D01*
X158933561Y-90279034D01*
X158718945Y-90494337D01*
X157930391Y-91273919D01*
X158377001Y-92038571D01*
X158559281Y-92356848D01*
X158679275Y-92583332D01*
X158743540Y-92732955D01*
X158758634Y-92820646D01*
X158736930Y-92858140D01*
X158648649Y-92875343D01*
X158454671Y-92890443D01*
X158176292Y-92902529D01*
X157834809Y-92910687D01*
X157451519Y-92914005D01*
X157432477Y-92914027D01*
X156214704Y-92915000D01*
X156053135Y-92708625D01*
X155891565Y-92502250D01*
X155905657Y-92692750D01*
X155919750Y-92883250D01*
X154776750Y-92898948D01*
X154399523Y-92900859D01*
X154065201Y-92896358D01*
X153795574Y-92886218D01*
X153612433Y-92871213D01*
X153540809Y-92855066D01*
X153523271Y-92814707D01*
X153535154Y-92788000D01*
X153572415Y-92788000D01*
X154705251Y-92788000D01*
X155113060Y-92786810D01*
X155409805Y-92782314D01*
X155611410Y-92773122D01*
X155733798Y-92757845D01*
X155792890Y-92735093D01*
X155804610Y-92703476D01*
X155801378Y-92692338D01*
X155745376Y-92576135D01*
X155645457Y-92394841D01*
X155517410Y-92174422D01*
X155377026Y-91940845D01*
X155240093Y-91720077D01*
X155122399Y-91538084D01*
X155039736Y-91420834D01*
X155010087Y-91391000D01*
X154952039Y-91433720D01*
X154821370Y-91551587D01*
X154634468Y-91729158D01*
X154407722Y-91950992D01*
X154268750Y-92089500D01*
X153572415Y-92788000D01*
X153535154Y-92788000D01*
X153557476Y-92737833D01*
X153652536Y-92613108D01*
X153817562Y-92429197D01*
X154061667Y-92174763D01*
X154204181Y-92029743D01*
X154457718Y-91776926D01*
X154683283Y-91559299D01*
X154864823Y-91391772D01*
X154986286Y-91289257D01*
X155028539Y-91264000D01*
X155107135Y-91312195D01*
X155205381Y-91429153D01*
X155211725Y-91438625D01*
X155292076Y-91552399D01*
X155315757Y-91566016D01*
X155287931Y-91490251D01*
X155213762Y-91335879D01*
X155098410Y-91113672D01*
X154947041Y-90834406D01*
X154773755Y-90524611D01*
X154608523Y-90228763D01*
X154468431Y-89969459D01*
X154364499Y-89767767D01*
X154307747Y-89644760D01*
X154306962Y-89642049D01*
X154364000Y-89642049D01*
X154394588Y-89700781D01*
X154479651Y-89851674D01*
X154609133Y-90077509D01*
X154772980Y-90361061D01*
X154961138Y-90685109D01*
X155163552Y-91032431D01*
X155370168Y-91385804D01*
X155570931Y-91728005D01*
X155755787Y-92041814D01*
X155914681Y-92310006D01*
X156037559Y-92515361D01*
X156114366Y-92640655D01*
X156117210Y-92645125D01*
X156152589Y-92694223D01*
X156198975Y-92730552D01*
X156274235Y-92756033D01*
X156396237Y-92772589D01*
X156582851Y-92782141D01*
X156851945Y-92786613D01*
X157221387Y-92787926D01*
X157445213Y-92788000D01*
X157825859Y-92786322D01*
X158159020Y-92781646D01*
X158425434Y-92774508D01*
X158605838Y-92765443D01*
X158680969Y-92754989D01*
X158682000Y-92753580D01*
X158651257Y-92691947D01*
X158564423Y-92534916D01*
X158429588Y-92296678D01*
X158254845Y-91991426D01*
X158048283Y-91633351D01*
X157817994Y-91236642D01*
X157777125Y-91166480D01*
X156872250Y-89613798D01*
X155618125Y-89613399D01*
X155234676Y-89614674D01*
X154898578Y-89618462D01*
X154628961Y-89624328D01*
X154444954Y-89631833D01*
X154365685Y-89640540D01*
X154364000Y-89642049D01*
X154306962Y-89642049D01*
X154300500Y-89619736D01*
X154349921Y-89593266D01*
X154502257Y-89573339D01*
X154763614Y-89559626D01*
X155140098Y-89551794D01*
X155596953Y-89549500D01*
X156893407Y-89549500D01*
X157019690Y-89722859D01*
G37*
X163960594Y-89683153D02*
X164170077Y-89694975D01*
X164237102Y-89703845D01*
X164462069Y-89789952D01*
X164630950Y-89937215D01*
X164711727Y-90115434D01*
X164714500Y-90154140D01*
X164734249Y-90297028D01*
X164793586Y-90319323D01*
X164892645Y-90221035D01*
X164929132Y-90169516D01*
X165083455Y-89978283D01*
X165261796Y-89845860D01*
X165489552Y-89762927D01*
X165792122Y-89720164D01*
X166186218Y-89708250D01*
X166575568Y-89720234D01*
X166859183Y-89761736D01*
X167056549Y-89841080D01*
X167187150Y-89966588D01*
X167270471Y-90146585D01*
X167279037Y-90175087D01*
X167334971Y-90307793D01*
X167396082Y-90376295D01*
X167438389Y-90360561D01*
X167445000Y-90313709D01*
X167483788Y-90232568D01*
X167581654Y-90099282D01*
X167635447Y-90035511D01*
X167855981Y-89854515D01*
X168149558Y-89739843D01*
X168532682Y-89686435D01*
X168790744Y-89681380D01*
X169168823Y-89702002D01*
X169445222Y-89759396D01*
X169642242Y-89862806D01*
X169782183Y-90021476D01*
X169832358Y-90113123D01*
X169965466Y-90389846D01*
X170097847Y-90176048D01*
X170245989Y-89978849D01*
X170420743Y-89843626D01*
X170647691Y-89760334D01*
X170952418Y-89718925D01*
X171286750Y-89709159D01*
X171706862Y-89721694D01*
X172017151Y-89767488D01*
X172232684Y-89856765D01*
X172368532Y-89999747D01*
X172439762Y-90206657D01*
X172461445Y-90487718D01*
X172461500Y-90506095D01*
X172446368Y-90722076D01*
X172405919Y-91009930D01*
X172347567Y-91333362D01*
X172278729Y-91656077D01*
X172206821Y-91941779D01*
X172139257Y-92154173D01*
X172111997Y-92216649D01*
X171972058Y-92419331D01*
X171780998Y-92557047D01*
X171508263Y-92648481D01*
X171356699Y-92678489D01*
X171014085Y-92716385D01*
X170665414Y-92705553D01*
X170446223Y-92679015D01*
X170187485Y-92636617D01*
X170017954Y-92589931D01*
X169900349Y-92523248D01*
X169797393Y-92420856D01*
X169777270Y-92397097D01*
X169601193Y-92186185D01*
X169459721Y-92354110D01*
X169325641Y-92493301D01*
X169181260Y-92588523D01*
X168999363Y-92647668D01*
X168752734Y-92678624D01*
X168414160Y-92689284D01*
X168302250Y-92689707D01*
X167890673Y-92678864D01*
X167587053Y-92642857D01*
X167373950Y-92576639D01*
X167233924Y-92475160D01*
X167160067Y-92359093D01*
X167073391Y-92236568D01*
X166977097Y-92240672D01*
X166889484Y-92341502D01*
X166753248Y-92494653D01*
X166555690Y-92599766D01*
X166277948Y-92662692D01*
X165901159Y-92689279D01*
X165762250Y-92691054D01*
X165384443Y-92686074D01*
X165107771Y-92664828D01*
X164906789Y-92621352D01*
X164756050Y-92549684D01*
X164630109Y-92443863D01*
X164607990Y-92420599D01*
X164448804Y-92248835D01*
X164340898Y-92382094D01*
X164207653Y-92513937D01*
X164041322Y-92603885D01*
X163812476Y-92662264D01*
X163491691Y-92699400D01*
X163421723Y-92704639D01*
X162932980Y-92722880D01*
X162549364Y-92698750D01*
X162255395Y-92629665D01*
X162035595Y-92513039D01*
X161976265Y-92463274D01*
X161773819Y-92274161D01*
X161558246Y-92483103D01*
X161461096Y-92573735D01*
X161373758Y-92633926D01*
X161267678Y-92670545D01*
X161114300Y-92690464D01*
X160885069Y-92700553D01*
X160631461Y-92706094D01*
X160324440Y-92706765D01*
X160047751Y-92697637D01*
X159836154Y-92680410D01*
X159738801Y-92662488D01*
X159478460Y-92526750D01*
X159321264Y-92317273D01*
X159280249Y-92180427D01*
X159279603Y-92144716D01*
X159353233Y-92144716D01*
X159383245Y-92310315D01*
X159451274Y-92424545D01*
X159558835Y-92505294D01*
X159591394Y-92522015D01*
X159706417Y-92548079D01*
X159918599Y-92570129D01*
X160198112Y-92585899D01*
X160515127Y-92593122D01*
X160528306Y-92593202D01*
X160861926Y-92593571D01*
X161092866Y-92588030D01*
X161245426Y-92572957D01*
X161343905Y-92544726D01*
X161412604Y-92499715D01*
X161457503Y-92454625D01*
X161678921Y-92124667D01*
X161692871Y-92080655D01*
X161925608Y-92080655D01*
X161992874Y-92321617D01*
X162076363Y-92441636D01*
X162148254Y-92506780D01*
X162226450Y-92550696D01*
X162336184Y-92577553D01*
X162502687Y-92591522D01*
X162751193Y-92596773D01*
X163019387Y-92597500D01*
X163341250Y-92592300D01*
X163632808Y-92578149D01*
X163861636Y-92557221D01*
X163993903Y-92532187D01*
X164160906Y-92429762D01*
X164289626Y-92283423D01*
X164390732Y-92031668D01*
X164402798Y-91961879D01*
X164610926Y-91961879D01*
X164624627Y-92216714D01*
X164701032Y-92392643D01*
X164849330Y-92504046D01*
X165078709Y-92565300D01*
X165398359Y-92590784D01*
X165653164Y-92594957D01*
X166060565Y-92584572D01*
X166363107Y-92550623D01*
X166521350Y-92507553D01*
X166698566Y-92407134D01*
X166829625Y-92260487D01*
X166894355Y-92119503D01*
X167198739Y-92119503D01*
X167235420Y-92308156D01*
X167317591Y-92438717D01*
X167446965Y-92526909D01*
X167508500Y-92552450D01*
X167660217Y-92580094D01*
X167901097Y-92594028D01*
X168194165Y-92595349D01*
X168502448Y-92585149D01*
X168788975Y-92564524D01*
X169016771Y-92534566D01*
X169132411Y-92504394D01*
X169287586Y-92407000D01*
X169414743Y-92247313D01*
X169521374Y-92008879D01*
X169547710Y-91914996D01*
X169800791Y-91914996D01*
X169805952Y-92181953D01*
X169855871Y-92357179D01*
X169905625Y-92420622D01*
X169997145Y-92491571D01*
X170096274Y-92539444D01*
X170228327Y-92568078D01*
X170418622Y-92581308D01*
X170692477Y-92582970D01*
X170952327Y-92579217D01*
X171270575Y-92572392D01*
X171488878Y-92561585D01*
X171634274Y-92540847D01*
X171733803Y-92504229D01*
X171814503Y-92445780D01*
X171890127Y-92372854D01*
X171978823Y-92270174D01*
X172049247Y-92146690D01*
X172111516Y-91975347D01*
X172175744Y-91729091D01*
X172240424Y-91435995D01*
X172335014Y-90950332D01*
X172385331Y-90571358D01*
X172386656Y-90285075D01*
X172334268Y-90077489D01*
X172223449Y-89934602D01*
X172049478Y-89842419D01*
X171807635Y-89786944D01*
X171678805Y-89770590D01*
X171349105Y-89756342D01*
X171014333Y-89777586D01*
X170709330Y-89828923D01*
X170468934Y-89904955D01*
X170350349Y-89976413D01*
X170236900Y-90100843D01*
X170144790Y-90260061D01*
X170064501Y-90478553D01*
X169986515Y-90780804D01*
X169925265Y-91069926D01*
X169840518Y-91547317D01*
X169800791Y-91914996D01*
X169547710Y-91914996D01*
X169614967Y-91675245D01*
X169697069Y-91264000D01*
X169764531Y-90812775D01*
X169787109Y-90465667D01*
X169763534Y-90207519D01*
X169692540Y-90023173D01*
X169583468Y-89905139D01*
X169483702Y-89842989D01*
X169366350Y-89803731D01*
X169201142Y-89782572D01*
X168957803Y-89774717D01*
X168757968Y-89774411D01*
X168365019Y-89786560D01*
X168065058Y-89830008D01*
X167840323Y-89920755D01*
X167673049Y-90074806D01*
X167545475Y-90308161D01*
X167439836Y-90636824D01*
X167344494Y-91047770D01*
X167254989Y-91505032D01*
X167205833Y-91857035D01*
X167198739Y-92119503D01*
X166894355Y-92119503D01*
X166929926Y-92042031D01*
X167014868Y-91726184D01*
X167027774Y-91666276D01*
X167134118Y-91133035D01*
X167199887Y-90709591D01*
X167218962Y-90383502D01*
X167185223Y-90142329D01*
X167092550Y-89973631D01*
X166934823Y-89864968D01*
X166705923Y-89803899D01*
X166399729Y-89777983D01*
X166097007Y-89774194D01*
X165793934Y-89779540D01*
X165586914Y-89796124D01*
X165445149Y-89829050D01*
X165337842Y-89883424D01*
X165307181Y-89905117D01*
X165153128Y-90035847D01*
X165034100Y-90182704D01*
X164938813Y-90370395D01*
X164855980Y-90623627D01*
X164774315Y-90967107D01*
X164734884Y-91157976D01*
X164650741Y-91613759D01*
X164610926Y-91961879D01*
X164402798Y-91961879D01*
X164442080Y-91734680D01*
X164436209Y-91452682D01*
X164407651Y-91330758D01*
X164375066Y-91192339D01*
X164393731Y-91059856D01*
X164472691Y-90882471D01*
X164494952Y-90840069D01*
X164616918Y-90525022D01*
X164643858Y-90232931D01*
X164574825Y-89988914D01*
X164529565Y-89921659D01*
X164473709Y-89860467D01*
X164407380Y-89818676D01*
X164307170Y-89792596D01*
X164149669Y-89778541D01*
X163911468Y-89772822D01*
X163578105Y-89771750D01*
X162748081Y-89771750D01*
X162508915Y-90010984D01*
X162385190Y-90141370D01*
X162313472Y-90251361D01*
X162279271Y-90383020D01*
X162268096Y-90578412D01*
X162266606Y-90714348D01*
X162257956Y-90975610D01*
X162230907Y-91146552D01*
X162177337Y-91263437D01*
X162130789Y-91320887D01*
X161996611Y-91538167D01*
X161927535Y-91805465D01*
X161925608Y-92080655D01*
X161692871Y-92080655D01*
X161808636Y-91715446D01*
X161832179Y-91560459D01*
X161850290Y-91351176D01*
X161834985Y-91219289D01*
X161774851Y-91117116D01*
X161709263Y-91046990D01*
X161634054Y-90977769D01*
X161555497Y-90931391D01*
X161447703Y-90903291D01*
X161284783Y-90888905D01*
X161040849Y-90883669D01*
X160779176Y-90883000D01*
X160013080Y-90883000D01*
X160054824Y-90708375D01*
X160063112Y-90682553D01*
X160222324Y-90682553D01*
X160343150Y-90750803D01*
X160587120Y-90795421D01*
X160954980Y-90816732D01*
X161134061Y-90818801D01*
X161400972Y-90827752D01*
X161580726Y-90859168D01*
X161712376Y-90921396D01*
X161753186Y-90951108D01*
X161868349Y-91066734D01*
X161920261Y-91168325D01*
X161920500Y-91173358D01*
X161955957Y-91255476D01*
X162040717Y-91238317D01*
X162097594Y-91184625D01*
X162135238Y-91067444D01*
X162129717Y-90930625D01*
X162098670Y-90825721D01*
X162033890Y-90774186D01*
X161898540Y-90757301D01*
X161786097Y-90756000D01*
X161596305Y-90747969D01*
X161502974Y-90716520D01*
X161476173Y-90650622D01*
X161476000Y-90641700D01*
X161443913Y-90508539D01*
X161336040Y-90425255D01*
X161134958Y-90383695D01*
X160905929Y-90375000D01*
X160584335Y-90395673D01*
X160374946Y-90456841D01*
X160347129Y-90473850D01*
X160223899Y-90590344D01*
X160222324Y-90682553D01*
X160063112Y-90682553D01*
X160118738Y-90509252D01*
X160213288Y-90376193D01*
X160362150Y-90296743D01*
X160589003Y-90258445D01*
X160917522Y-90248844D01*
X160928312Y-90248867D01*
X161217034Y-90258459D01*
X161400706Y-90291388D01*
X161500469Y-90356666D01*
X161537463Y-90463304D01*
X161539500Y-90509406D01*
X161552397Y-90631935D01*
X161616509Y-90682641D01*
X161764918Y-90692500D01*
X161990337Y-90692500D01*
X161971293Y-90327931D01*
X161954252Y-90116749D01*
X161919120Y-89993201D01*
X161847870Y-89917920D01*
X161761750Y-89870362D01*
X161537325Y-89801263D01*
X161229506Y-89760514D01*
X160879167Y-89750273D01*
X160527184Y-89772699D01*
X160364750Y-89796583D01*
X160137179Y-89847489D01*
X159962147Y-89918765D01*
X159828013Y-90028280D01*
X159723139Y-90193905D01*
X159635885Y-90433509D01*
X159554612Y-90764962D01*
X159476155Y-91160852D01*
X159401202Y-91587872D01*
X159359724Y-91909864D01*
X159353233Y-92144716D01*
X159279603Y-92144716D01*
X159277577Y-92032925D01*
X159300214Y-91793481D01*
X159342607Y-91492010D01*
X159399206Y-91158424D01*
X159464457Y-90822637D01*
X159532811Y-90514563D01*
X159598714Y-90264115D01*
X159656615Y-90101206D01*
X159671060Y-90074696D01*
X159792826Y-89929856D01*
X159954670Y-89827314D01*
X160177771Y-89760886D01*
X160483312Y-89724391D01*
X160892472Y-89711644D01*
X160915150Y-89711523D01*
X161308404Y-89718702D01*
X161596332Y-89749825D01*
X161799651Y-89813275D01*
X161939077Y-89917433D01*
X162035329Y-90070680D01*
X162078457Y-90182145D01*
X162150135Y-90395032D01*
X162284418Y-90167440D01*
X162416885Y-89976173D01*
X162567057Y-89844319D01*
X162762221Y-89760014D01*
X163029663Y-89711397D01*
X163389888Y-89686876D01*
X163686640Y-89680175D01*
X163960594Y-89683153D01*
G36*
X163960594Y-89683153D02*
G01*
X164170077Y-89694975D01*
X164237102Y-89703845D01*
X164462069Y-89789952D01*
X164630950Y-89937215D01*
X164711727Y-90115434D01*
X164714500Y-90154140D01*
X164734249Y-90297028D01*
X164793586Y-90319323D01*
X164892645Y-90221035D01*
X164929132Y-90169516D01*
X165083455Y-89978283D01*
X165261796Y-89845860D01*
X165489552Y-89762927D01*
X165792122Y-89720164D01*
X166186218Y-89708250D01*
X166575568Y-89720234D01*
X166859183Y-89761736D01*
X167056549Y-89841080D01*
X167187150Y-89966588D01*
X167270471Y-90146585D01*
X167279037Y-90175087D01*
X167334971Y-90307793D01*
X167396082Y-90376295D01*
X167438389Y-90360561D01*
X167445000Y-90313709D01*
X167483788Y-90232568D01*
X167581654Y-90099282D01*
X167635447Y-90035511D01*
X167855981Y-89854515D01*
X168149558Y-89739843D01*
X168532682Y-89686435D01*
X168790744Y-89681380D01*
X169168823Y-89702002D01*
X169445222Y-89759396D01*
X169642242Y-89862806D01*
X169782183Y-90021476D01*
X169832358Y-90113123D01*
X169965466Y-90389846D01*
X170097847Y-90176048D01*
X170245989Y-89978849D01*
X170420743Y-89843626D01*
X170647691Y-89760334D01*
X170952418Y-89718925D01*
X171286750Y-89709159D01*
X171706862Y-89721694D01*
X172017151Y-89767488D01*
X172232684Y-89856765D01*
X172368532Y-89999747D01*
X172439762Y-90206657D01*
X172461445Y-90487718D01*
X172461500Y-90506095D01*
X172446368Y-90722076D01*
X172405919Y-91009930D01*
X172347567Y-91333362D01*
X172278729Y-91656077D01*
X172206821Y-91941779D01*
X172139257Y-92154173D01*
X172111997Y-92216649D01*
X171972058Y-92419331D01*
X171780998Y-92557047D01*
X171508263Y-92648481D01*
X171356699Y-92678489D01*
X171014085Y-92716385D01*
X170665414Y-92705553D01*
X170446223Y-92679015D01*
X170187485Y-92636617D01*
X170017954Y-92589931D01*
X169900349Y-92523248D01*
X169797393Y-92420856D01*
X169777270Y-92397097D01*
X169601193Y-92186185D01*
X169459721Y-92354110D01*
X169325641Y-92493301D01*
X169181260Y-92588523D01*
X168999363Y-92647668D01*
X168752734Y-92678624D01*
X168414160Y-92689284D01*
X168302250Y-92689707D01*
X167890673Y-92678864D01*
X167587053Y-92642857D01*
X167373950Y-92576639D01*
X167233924Y-92475160D01*
X167160067Y-92359093D01*
X167073391Y-92236568D01*
X166977097Y-92240672D01*
X166889484Y-92341502D01*
X166753248Y-92494653D01*
X166555690Y-92599766D01*
X166277948Y-92662692D01*
X165901159Y-92689279D01*
X165762250Y-92691054D01*
X165384443Y-92686074D01*
X165107771Y-92664828D01*
X164906789Y-92621352D01*
X164756050Y-92549684D01*
X164630109Y-92443863D01*
X164607990Y-92420599D01*
X164448804Y-92248835D01*
X164340898Y-92382094D01*
X164207653Y-92513937D01*
X164041322Y-92603885D01*
X163812476Y-92662264D01*
X163491691Y-92699400D01*
X163421723Y-92704639D01*
X162932980Y-92722880D01*
X162549364Y-92698750D01*
X162255395Y-92629665D01*
X162035595Y-92513039D01*
X161976265Y-92463274D01*
X161773819Y-92274161D01*
X161558246Y-92483103D01*
X161461096Y-92573735D01*
X161373758Y-92633926D01*
X161267678Y-92670545D01*
X161114300Y-92690464D01*
X160885069Y-92700553D01*
X160631461Y-92706094D01*
X160324440Y-92706765D01*
X160047751Y-92697637D01*
X159836154Y-92680410D01*
X159738801Y-92662488D01*
X159478460Y-92526750D01*
X159321264Y-92317273D01*
X159280249Y-92180427D01*
X159279603Y-92144716D01*
X159353233Y-92144716D01*
X159383245Y-92310315D01*
X159451274Y-92424545D01*
X159558835Y-92505294D01*
X159591394Y-92522015D01*
X159706417Y-92548079D01*
X159918599Y-92570129D01*
X160198112Y-92585899D01*
X160515127Y-92593122D01*
X160528306Y-92593202D01*
X160861926Y-92593571D01*
X161092866Y-92588030D01*
X161245426Y-92572957D01*
X161343905Y-92544726D01*
X161412604Y-92499715D01*
X161457503Y-92454625D01*
X161678921Y-92124667D01*
X161692871Y-92080655D01*
X161925608Y-92080655D01*
X161992874Y-92321617D01*
X162076363Y-92441636D01*
X162148254Y-92506780D01*
X162226450Y-92550696D01*
X162336184Y-92577553D01*
X162502687Y-92591522D01*
X162751193Y-92596773D01*
X163019387Y-92597500D01*
X163341250Y-92592300D01*
X163632808Y-92578149D01*
X163861636Y-92557221D01*
X163993903Y-92532187D01*
X164160906Y-92429762D01*
X164289626Y-92283423D01*
X164390732Y-92031668D01*
X164402798Y-91961879D01*
X164610926Y-91961879D01*
X164624627Y-92216714D01*
X164701032Y-92392643D01*
X164849330Y-92504046D01*
X165078709Y-92565300D01*
X165398359Y-92590784D01*
X165653164Y-92594957D01*
X166060565Y-92584572D01*
X166363107Y-92550623D01*
X166521350Y-92507553D01*
X166698566Y-92407134D01*
X166829625Y-92260487D01*
X166894355Y-92119503D01*
X167198739Y-92119503D01*
X167235420Y-92308156D01*
X167317591Y-92438717D01*
X167446965Y-92526909D01*
X167508500Y-92552450D01*
X167660217Y-92580094D01*
X167901097Y-92594028D01*
X168194165Y-92595349D01*
X168502448Y-92585149D01*
X168788975Y-92564524D01*
X169016771Y-92534566D01*
X169132411Y-92504394D01*
X169287586Y-92407000D01*
X169414743Y-92247313D01*
X169521374Y-92008879D01*
X169547710Y-91914996D01*
X169800791Y-91914996D01*
X169805952Y-92181953D01*
X169855871Y-92357179D01*
X169905625Y-92420622D01*
X169997145Y-92491571D01*
X170096274Y-92539444D01*
X170228327Y-92568078D01*
X170418622Y-92581308D01*
X170692477Y-92582970D01*
X170952327Y-92579217D01*
X171270575Y-92572392D01*
X171488878Y-92561585D01*
X171634274Y-92540847D01*
X171733803Y-92504229D01*
X171814503Y-92445780D01*
X171890127Y-92372854D01*
X171978823Y-92270174D01*
X172049247Y-92146690D01*
X172111516Y-91975347D01*
X172175744Y-91729091D01*
X172240424Y-91435995D01*
X172335014Y-90950332D01*
X172385331Y-90571358D01*
X172386656Y-90285075D01*
X172334268Y-90077489D01*
X172223449Y-89934602D01*
X172049478Y-89842419D01*
X171807635Y-89786944D01*
X171678805Y-89770590D01*
X171349105Y-89756342D01*
X171014333Y-89777586D01*
X170709330Y-89828923D01*
X170468934Y-89904955D01*
X170350349Y-89976413D01*
X170236900Y-90100843D01*
X170144790Y-90260061D01*
X170064501Y-90478553D01*
X169986515Y-90780804D01*
X169925265Y-91069926D01*
X169840518Y-91547317D01*
X169800791Y-91914996D01*
X169547710Y-91914996D01*
X169614967Y-91675245D01*
X169697069Y-91264000D01*
X169764531Y-90812775D01*
X169787109Y-90465667D01*
X169763534Y-90207519D01*
X169692540Y-90023173D01*
X169583468Y-89905139D01*
X169483702Y-89842989D01*
X169366350Y-89803731D01*
X169201142Y-89782572D01*
X168957803Y-89774717D01*
X168757968Y-89774411D01*
X168365019Y-89786560D01*
X168065058Y-89830008D01*
X167840323Y-89920755D01*
X167673049Y-90074806D01*
X167545475Y-90308161D01*
X167439836Y-90636824D01*
X167344494Y-91047770D01*
X167254989Y-91505032D01*
X167205833Y-91857035D01*
X167198739Y-92119503D01*
X166894355Y-92119503D01*
X166929926Y-92042031D01*
X167014868Y-91726184D01*
X167027774Y-91666276D01*
X167134118Y-91133035D01*
X167199887Y-90709591D01*
X167218962Y-90383502D01*
X167185223Y-90142329D01*
X167092550Y-89973631D01*
X166934823Y-89864968D01*
X166705923Y-89803899D01*
X166399729Y-89777983D01*
X166097007Y-89774194D01*
X165793934Y-89779540D01*
X165586914Y-89796124D01*
X165445149Y-89829050D01*
X165337842Y-89883424D01*
X165307181Y-89905117D01*
X165153128Y-90035847D01*
X165034100Y-90182704D01*
X164938813Y-90370395D01*
X164855980Y-90623627D01*
X164774315Y-90967107D01*
X164734884Y-91157976D01*
X164650741Y-91613759D01*
X164610926Y-91961879D01*
X164402798Y-91961879D01*
X164442080Y-91734680D01*
X164436209Y-91452682D01*
X164407651Y-91330758D01*
X164375066Y-91192339D01*
X164393731Y-91059856D01*
X164472691Y-90882471D01*
X164494952Y-90840069D01*
X164616918Y-90525022D01*
X164643858Y-90232931D01*
X164574825Y-89988914D01*
X164529565Y-89921659D01*
X164473709Y-89860467D01*
X164407380Y-89818676D01*
X164307170Y-89792596D01*
X164149669Y-89778541D01*
X163911468Y-89772822D01*
X163578105Y-89771750D01*
X162748081Y-89771750D01*
X162508915Y-90010984D01*
X162385190Y-90141370D01*
X162313472Y-90251361D01*
X162279271Y-90383020D01*
X162268096Y-90578412D01*
X162266606Y-90714348D01*
X162257956Y-90975610D01*
X162230907Y-91146552D01*
X162177337Y-91263437D01*
X162130789Y-91320887D01*
X161996611Y-91538167D01*
X161927535Y-91805465D01*
X161925608Y-92080655D01*
X161692871Y-92080655D01*
X161808636Y-91715446D01*
X161832179Y-91560459D01*
X161850290Y-91351176D01*
X161834985Y-91219289D01*
X161774851Y-91117116D01*
X161709263Y-91046990D01*
X161634054Y-90977769D01*
X161555497Y-90931391D01*
X161447703Y-90903291D01*
X161284783Y-90888905D01*
X161040849Y-90883669D01*
X160779176Y-90883000D01*
X160013080Y-90883000D01*
X160054824Y-90708375D01*
X160063112Y-90682553D01*
X160222324Y-90682553D01*
X160343150Y-90750803D01*
X160587120Y-90795421D01*
X160954980Y-90816732D01*
X161134061Y-90818801D01*
X161400972Y-90827752D01*
X161580726Y-90859168D01*
X161712376Y-90921396D01*
X161753186Y-90951108D01*
X161868349Y-91066734D01*
X161920261Y-91168325D01*
X161920500Y-91173358D01*
X161955957Y-91255476D01*
X162040717Y-91238317D01*
X162097594Y-91184625D01*
X162135238Y-91067444D01*
X162129717Y-90930625D01*
X162098670Y-90825721D01*
X162033890Y-90774186D01*
X161898540Y-90757301D01*
X161786097Y-90756000D01*
X161596305Y-90747969D01*
X161502974Y-90716520D01*
X161476173Y-90650622D01*
X161476000Y-90641700D01*
X161443913Y-90508539D01*
X161336040Y-90425255D01*
X161134958Y-90383695D01*
X160905929Y-90375000D01*
X160584335Y-90395673D01*
X160374946Y-90456841D01*
X160347129Y-90473850D01*
X160223899Y-90590344D01*
X160222324Y-90682553D01*
X160063112Y-90682553D01*
X160118738Y-90509252D01*
X160213288Y-90376193D01*
X160362150Y-90296743D01*
X160589003Y-90258445D01*
X160917522Y-90248844D01*
X160928312Y-90248867D01*
X161217034Y-90258459D01*
X161400706Y-90291388D01*
X161500469Y-90356666D01*
X161537463Y-90463304D01*
X161539500Y-90509406D01*
X161552397Y-90631935D01*
X161616509Y-90682641D01*
X161764918Y-90692500D01*
X161990337Y-90692500D01*
X161971293Y-90327931D01*
X161954252Y-90116749D01*
X161919120Y-89993201D01*
X161847870Y-89917920D01*
X161761750Y-89870362D01*
X161537325Y-89801263D01*
X161229506Y-89760514D01*
X160879167Y-89750273D01*
X160527184Y-89772699D01*
X160364750Y-89796583D01*
X160137179Y-89847489D01*
X159962147Y-89918765D01*
X159828013Y-90028280D01*
X159723139Y-90193905D01*
X159635885Y-90433509D01*
X159554612Y-90764962D01*
X159476155Y-91160852D01*
X159401202Y-91587872D01*
X159359724Y-91909864D01*
X159353233Y-92144716D01*
X159279603Y-92144716D01*
X159277577Y-92032925D01*
X159300214Y-91793481D01*
X159342607Y-91492010D01*
X159399206Y-91158424D01*
X159464457Y-90822637D01*
X159532811Y-90514563D01*
X159598714Y-90264115D01*
X159656615Y-90101206D01*
X159671060Y-90074696D01*
X159792826Y-89929856D01*
X159954670Y-89827314D01*
X160177771Y-89760886D01*
X160483312Y-89724391D01*
X160892472Y-89711644D01*
X160915150Y-89711523D01*
X161308404Y-89718702D01*
X161596332Y-89749825D01*
X161799651Y-89813275D01*
X161939077Y-89917433D01*
X162035329Y-90070680D01*
X162078457Y-90182145D01*
X162150135Y-90395032D01*
X162284418Y-90167440D01*
X162416885Y-89976173D01*
X162567057Y-89844319D01*
X162762221Y-89760014D01*
X163029663Y-89711397D01*
X163389888Y-89686876D01*
X163686640Y-89680175D01*
X163960594Y-89683153D01*
G37*
X159208603Y-87561238D02*
X159391084Y-87598592D01*
X159629063Y-87647766D01*
X159777804Y-87648980D01*
X159787143Y-87644500D01*
X159888500Y-87644500D01*
X159888500Y-89105000D01*
X160396500Y-89105000D01*
X160396500Y-88533500D01*
X161285500Y-88533500D01*
X161285500Y-89105000D01*
X161781647Y-89105000D01*
X161784650Y-89064933D01*
X161920500Y-89064933D01*
X161975516Y-89093714D01*
X162100269Y-89105000D01*
X162272654Y-89057831D01*
X162365000Y-88946250D01*
X162416854Y-88866357D01*
X162487137Y-88818976D01*
X162606803Y-88795685D01*
X162806804Y-88788065D01*
X162948591Y-88787500D01*
X163200319Y-88790209D01*
X163355269Y-88803935D01*
X163443636Y-88837072D01*
X163495617Y-88898017D01*
X163519554Y-88946250D01*
X163581013Y-89043333D01*
X163676481Y-89090450D01*
X163847193Y-89104614D01*
X163904371Y-89105000D01*
X164216858Y-89105000D01*
X164270000Y-89105000D01*
X164778000Y-89105000D01*
X164778000Y-88120750D01*
X164841500Y-88120750D01*
X164856508Y-88225365D01*
X164925908Y-88269872D01*
X165079625Y-88278527D01*
X165260789Y-88263547D01*
X165394261Y-88228064D01*
X165406378Y-88221436D01*
X165481371Y-88132623D01*
X165447831Y-88048607D01*
X165323662Y-87986147D01*
X165129242Y-87962000D01*
X164952136Y-87968474D01*
X164867926Y-88000374D01*
X164842686Y-88076418D01*
X164841500Y-88120750D01*
X164778000Y-88120750D01*
X164778000Y-87898500D01*
X165099674Y-87898500D01*
X165387067Y-87921739D01*
X165579347Y-87988202D01*
X165664043Y-88093001D01*
X165667000Y-88120750D01*
X165608402Y-88231666D01*
X165447833Y-88308928D01*
X165208126Y-88342386D01*
X165166922Y-88343000D01*
X164994977Y-88359461D01*
X164882113Y-88400409D01*
X164868194Y-88414680D01*
X164889774Y-88491778D01*
X164994954Y-88625234D01*
X165166071Y-88792931D01*
X165353100Y-88953996D01*
X165492440Y-89046190D01*
X165627731Y-89088896D01*
X165802611Y-89101494D01*
X165862508Y-89102250D01*
X166216766Y-89105000D01*
X166365500Y-89105000D01*
X166587750Y-89105000D01*
X166732286Y-89096629D01*
X166794861Y-89046577D01*
X166809724Y-88917431D01*
X166810000Y-88862232D01*
X166810000Y-88619464D01*
X167302125Y-88623479D01*
X167694161Y-88602239D01*
X167977038Y-88528375D01*
X168159010Y-88397669D01*
X168248332Y-88205905D01*
X168258377Y-88134868D01*
X168256061Y-87966298D01*
X168191431Y-87859362D01*
X168077190Y-87779074D01*
X167766418Y-87653211D01*
X167361511Y-87598270D01*
X166856437Y-87613458D01*
X166835483Y-87615379D01*
X166365500Y-87659420D01*
X166365500Y-89105000D01*
X166216766Y-89105000D01*
X166231033Y-88752360D01*
X166245300Y-88399721D01*
X165843700Y-88607397D01*
X166021230Y-88792698D01*
X166116927Y-88906530D01*
X166145988Y-88971881D01*
X166135836Y-88978000D01*
X166058128Y-88935779D01*
X165931431Y-88828440D01*
X165857500Y-88755750D01*
X165734004Y-88623735D01*
X165693428Y-88557988D01*
X165728245Y-88535621D01*
X165784429Y-88533500D01*
X165931729Y-88486213D01*
X166085630Y-88371221D01*
X166202010Y-88228826D01*
X166238500Y-88118751D01*
X166196165Y-88009897D01*
X166091328Y-87870110D01*
X166060572Y-87837803D01*
X165848878Y-87696841D01*
X165549879Y-87615376D01*
X165153929Y-87591767D01*
X164748589Y-87614573D01*
X164270000Y-87659420D01*
X164270000Y-89105000D01*
X164216858Y-89105000D01*
X164072496Y-88866875D01*
X163837608Y-88478946D01*
X163658506Y-88185523D01*
X163523948Y-87973237D01*
X163422695Y-87828721D01*
X163343505Y-87738608D01*
X163275137Y-87689529D01*
X163206352Y-87668118D01*
X163125909Y-87661005D01*
X163055385Y-87657295D01*
X162765569Y-87638340D01*
X162343034Y-88331603D01*
X162183938Y-88595601D01*
X162052218Y-88819819D01*
X161960423Y-88982477D01*
X161921103Y-89061795D01*
X161920500Y-89064933D01*
X161784650Y-89064933D01*
X161826063Y-88512571D01*
X161849068Y-88174575D01*
X161854706Y-87942329D01*
X161837384Y-87795130D01*
X161791507Y-87712272D01*
X161711480Y-87673054D01*
X161594876Y-87657035D01*
X161430887Y-87668446D01*
X161335253Y-87750460D01*
X161292717Y-87923656D01*
X161286367Y-88073125D01*
X161277095Y-88147903D01*
X161232025Y-88190713D01*
X161123572Y-88210406D01*
X160924149Y-88215831D01*
X160841000Y-88216000D01*
X160396500Y-88216000D01*
X160396500Y-87644500D01*
X159888500Y-87644500D01*
X159787143Y-87644500D01*
X159811082Y-87633017D01*
X159906981Y-87600325D01*
X160076366Y-87589705D01*
X160149747Y-87592802D01*
X160428250Y-87612750D01*
X160467302Y-88152500D01*
X160765276Y-88151527D01*
X160999998Y-88138989D01*
X161137458Y-88090336D01*
X161206291Y-87986143D01*
X161232709Y-87834445D01*
X161252864Y-87699893D01*
X161303839Y-87632031D01*
X161421777Y-87603692D01*
X161553313Y-87593479D01*
X161705153Y-87588567D01*
X161807197Y-87610884D01*
X161870518Y-87681194D01*
X161906188Y-87820260D01*
X161925280Y-88048845D01*
X161936099Y-88311250D01*
X161952250Y-88755750D01*
X162197873Y-88374750D01*
X162393832Y-88069881D01*
X162535163Y-87854696D01*
X162638393Y-87713685D01*
X162720053Y-87631340D01*
X162796671Y-87592151D01*
X162884775Y-87580609D01*
X163000896Y-87581206D01*
X163043362Y-87581433D01*
X163372475Y-87581000D01*
X163697426Y-88118973D01*
X163840606Y-88350909D01*
X163962857Y-88539559D01*
X164047522Y-88659711D01*
X164073845Y-88688755D01*
X164100532Y-88645137D01*
X164127903Y-88501460D01*
X164151471Y-88284556D01*
X164159116Y-88178738D01*
X164178953Y-87928066D01*
X164202604Y-87728404D01*
X164216426Y-87659420D01*
X164225969Y-87611793D01*
X164233667Y-87596165D01*
X164309728Y-87579919D01*
X164486102Y-87566196D01*
X164736105Y-87556486D01*
X165018333Y-87552333D01*
X165369160Y-87555072D01*
X165621097Y-87568815D01*
X165802010Y-87596753D01*
X165939769Y-87642080D01*
X165983488Y-87662923D01*
X166131381Y-87731435D01*
X166213366Y-87737519D01*
X166273001Y-87683140D01*
X166278139Y-87676199D01*
X166303568Y-87659420D01*
X166367649Y-87617138D01*
X166547764Y-87573624D01*
X166835230Y-87541879D01*
X166892402Y-87537633D01*
X167371742Y-87531259D01*
X167762156Y-87583891D01*
X168056785Y-87692756D01*
X168248764Y-87855078D01*
X168331233Y-88068080D01*
X168334000Y-88120750D01*
X168275804Y-88347151D01*
X168107881Y-88525510D01*
X167840225Y-88650154D01*
X167482833Y-88715411D01*
X167270794Y-88724000D01*
X167073787Y-88730378D01*
X166973243Y-88756862D01*
X166938947Y-88814477D01*
X166937000Y-88845806D01*
X166929946Y-88981968D01*
X166894744Y-89073276D01*
X166810329Y-89128651D01*
X166655636Y-89157016D01*
X166409603Y-89167292D01*
X166175120Y-89168500D01*
X165490328Y-89168500D01*
X165181789Y-88912863D01*
X164873250Y-88657227D01*
X164841500Y-88896988D01*
X164809750Y-89136750D01*
X164210610Y-89155163D01*
X163928754Y-89161798D01*
X163743521Y-89156941D01*
X163624663Y-89134819D01*
X163541930Y-89089660D01*
X163465076Y-89015691D01*
X163461915Y-89012288D01*
X163360427Y-88921432D01*
X163242899Y-88872566D01*
X163067178Y-88853383D01*
X162909483Y-88851000D01*
X162683052Y-88856406D01*
X162545718Y-88880599D01*
X162459764Y-88935540D01*
X162400939Y-89012267D01*
X162341265Y-89091582D01*
X162270049Y-89138081D01*
X162156191Y-89158857D01*
X161968590Y-89161004D01*
X161774511Y-89155142D01*
X161253750Y-89136750D01*
X161232709Y-88915054D01*
X161200391Y-88746446D01*
X161124463Y-88650348D01*
X160976288Y-88607333D01*
X160765276Y-88597972D01*
X160467302Y-88597000D01*
X160428250Y-89136750D01*
X160149747Y-89156697D01*
X159965739Y-89155896D01*
X159834711Y-89130167D01*
X159809700Y-89115100D01*
X159701205Y-89093322D01*
X159534617Y-89142777D01*
X159335776Y-89192038D01*
X159053461Y-89220238D01*
X158729424Y-89227483D01*
X158405412Y-89213883D01*
X158123177Y-89179544D01*
X157959674Y-89138712D01*
X157752123Y-89053951D01*
X157650368Y-88970401D01*
X157640828Y-88892469D01*
X157693297Y-88892469D01*
X157694344Y-88964011D01*
X157818971Y-89027723D01*
X158039306Y-89082942D01*
X158324110Y-89124870D01*
X158642144Y-89148712D01*
X158913584Y-89151216D01*
X159208896Y-89138891D01*
X159406949Y-89115733D01*
X159537383Y-89076034D01*
X159629836Y-89014082D01*
X159631040Y-89012994D01*
X159736891Y-88842034D01*
X159738749Y-88644240D01*
X159640524Y-88459760D01*
X159571000Y-88396377D01*
X159432103Y-88328584D01*
X159211530Y-88258175D01*
X158953540Y-88198946D01*
X158915838Y-88192136D01*
X158772571Y-88162737D01*
X159398683Y-88162737D01*
X159420422Y-88195293D01*
X159507500Y-88247750D01*
X159660579Y-88324221D01*
X159736205Y-88319233D01*
X159760380Y-88224984D01*
X159761500Y-88171550D01*
X159749975Y-88058985D01*
X159707215Y-88056647D01*
X159685300Y-88076300D01*
X159560728Y-88141570D01*
X159478925Y-88154750D01*
X159398683Y-88162737D01*
X158772571Y-88162737D01*
X158648699Y-88137318D01*
X159154041Y-88137318D01*
X159216458Y-88147486D01*
X159298818Y-88135811D01*
X159299802Y-88114135D01*
X159214814Y-88098976D01*
X159178093Y-88109122D01*
X159154041Y-88137318D01*
X158648699Y-88137318D01*
X158605278Y-88128408D01*
X158409163Y-88066051D01*
X158330892Y-88007067D01*
X158330986Y-88006949D01*
X158578116Y-88006949D01*
X158584246Y-88021449D01*
X158670076Y-88066290D01*
X158826506Y-88088485D01*
X158855080Y-88089000D01*
X158996929Y-88083428D01*
X159058871Y-88069638D01*
X159057708Y-88065673D01*
X158983921Y-88040466D01*
X158833640Y-88006922D01*
X158786874Y-87998123D01*
X158625164Y-87980289D01*
X158578116Y-88006949D01*
X158330986Y-88006949D01*
X158373868Y-87953455D01*
X158460461Y-87924397D01*
X158622683Y-87913226D01*
X158858182Y-87930237D01*
X159118062Y-87968928D01*
X159353428Y-88022796D01*
X159455005Y-88056652D01*
X159556480Y-88041750D01*
X159642873Y-87952606D01*
X159680340Y-87839002D01*
X159653318Y-87764918D01*
X159538991Y-87709195D01*
X159335616Y-87659796D01*
X159081141Y-87621910D01*
X158813511Y-87600729D01*
X158570675Y-87601441D01*
X158501905Y-87607428D01*
X158154187Y-87676787D01*
X157900673Y-87788922D01*
X157750527Y-87936818D01*
X157712913Y-88113454D01*
X157733421Y-88195973D01*
X157831687Y-88341114D01*
X158010469Y-88439085D01*
X158291363Y-88501442D01*
X158308921Y-88503893D01*
X158699900Y-88567064D01*
X158980769Y-88634142D01*
X159145585Y-88703386D01*
X159190000Y-88762083D01*
X159133619Y-88819888D01*
X158981477Y-88842573D01*
X158759074Y-88832765D01*
X158491909Y-88793088D01*
X158205482Y-88726169D01*
X157925293Y-88634634D01*
X157918663Y-88632076D01*
X158210262Y-88632076D01*
X158269250Y-88660500D01*
X158421093Y-88698017D01*
X158612404Y-88713237D01*
X158618500Y-88713207D01*
X158755682Y-88709177D01*
X158775691Y-88695000D01*
X158688339Y-88662534D01*
X158682000Y-88660500D01*
X158494892Y-88621284D01*
X158332750Y-88607792D01*
X158213523Y-88611485D01*
X158210262Y-88632076D01*
X157918663Y-88632076D01*
X157915435Y-88630831D01*
X157814564Y-88648390D01*
X157738433Y-88761502D01*
X157693297Y-88892469D01*
X157640828Y-88892469D01*
X157636775Y-88859367D01*
X157690286Y-88700317D01*
X157747973Y-88537407D01*
X157745939Y-88421868D01*
X157682783Y-88288252D01*
X157681409Y-88285857D01*
X157619970Y-88074224D01*
X157681074Y-87879029D01*
X157860402Y-87710861D01*
X157933121Y-87669065D01*
X158178427Y-87586759D01*
X158502176Y-87539932D01*
X158860269Y-87530714D01*
X159208603Y-87561238D01*
G36*
X159208603Y-87561238D02*
G01*
X159391084Y-87598592D01*
X159629063Y-87647766D01*
X159777804Y-87648980D01*
X159787143Y-87644500D01*
X159888500Y-87644500D01*
X159888500Y-89105000D01*
X160396500Y-89105000D01*
X160396500Y-88533500D01*
X161285500Y-88533500D01*
X161285500Y-89105000D01*
X161781647Y-89105000D01*
X161784650Y-89064933D01*
X161920500Y-89064933D01*
X161975516Y-89093714D01*
X162100269Y-89105000D01*
X162272654Y-89057831D01*
X162365000Y-88946250D01*
X162416854Y-88866357D01*
X162487137Y-88818976D01*
X162606803Y-88795685D01*
X162806804Y-88788065D01*
X162948591Y-88787500D01*
X163200319Y-88790209D01*
X163355269Y-88803935D01*
X163443636Y-88837072D01*
X163495617Y-88898017D01*
X163519554Y-88946250D01*
X163581013Y-89043333D01*
X163676481Y-89090450D01*
X163847193Y-89104614D01*
X163904371Y-89105000D01*
X164216858Y-89105000D01*
X164270000Y-89105000D01*
X164778000Y-89105000D01*
X164778000Y-88120750D01*
X164841500Y-88120750D01*
X164856508Y-88225365D01*
X164925908Y-88269872D01*
X165079625Y-88278527D01*
X165260789Y-88263547D01*
X165394261Y-88228064D01*
X165406378Y-88221436D01*
X165481371Y-88132623D01*
X165447831Y-88048607D01*
X165323662Y-87986147D01*
X165129242Y-87962000D01*
X164952136Y-87968474D01*
X164867926Y-88000374D01*
X164842686Y-88076418D01*
X164841500Y-88120750D01*
X164778000Y-88120750D01*
X164778000Y-87898500D01*
X165099674Y-87898500D01*
X165387067Y-87921739D01*
X165579347Y-87988202D01*
X165664043Y-88093001D01*
X165667000Y-88120750D01*
X165608402Y-88231666D01*
X165447833Y-88308928D01*
X165208126Y-88342386D01*
X165166922Y-88343000D01*
X164994977Y-88359461D01*
X164882113Y-88400409D01*
X164868194Y-88414680D01*
X164889774Y-88491778D01*
X164994954Y-88625234D01*
X165166071Y-88792931D01*
X165353100Y-88953996D01*
X165492440Y-89046190D01*
X165627731Y-89088896D01*
X165802611Y-89101494D01*
X165862508Y-89102250D01*
X166216766Y-89105000D01*
X166365500Y-89105000D01*
X166587750Y-89105000D01*
X166732286Y-89096629D01*
X166794861Y-89046577D01*
X166809724Y-88917431D01*
X166810000Y-88862232D01*
X166810000Y-88619464D01*
X167302125Y-88623479D01*
X167694161Y-88602239D01*
X167977038Y-88528375D01*
X168159010Y-88397669D01*
X168248332Y-88205905D01*
X168258377Y-88134868D01*
X168256061Y-87966298D01*
X168191431Y-87859362D01*
X168077190Y-87779074D01*
X167766418Y-87653211D01*
X167361511Y-87598270D01*
X166856437Y-87613458D01*
X166835483Y-87615379D01*
X166365500Y-87659420D01*
X166365500Y-89105000D01*
X166216766Y-89105000D01*
X166231033Y-88752360D01*
X166245300Y-88399721D01*
X165843700Y-88607397D01*
X166021230Y-88792698D01*
X166116927Y-88906530D01*
X166145988Y-88971881D01*
X166135836Y-88978000D01*
X166058128Y-88935779D01*
X165931431Y-88828440D01*
X165857500Y-88755750D01*
X165734004Y-88623735D01*
X165693428Y-88557988D01*
X165728245Y-88535621D01*
X165784429Y-88533500D01*
X165931729Y-88486213D01*
X166085630Y-88371221D01*
X166202010Y-88228826D01*
X166238500Y-88118751D01*
X166196165Y-88009897D01*
X166091328Y-87870110D01*
X166060572Y-87837803D01*
X165848878Y-87696841D01*
X165549879Y-87615376D01*
X165153929Y-87591767D01*
X164748589Y-87614573D01*
X164270000Y-87659420D01*
X164270000Y-89105000D01*
X164216858Y-89105000D01*
X164072496Y-88866875D01*
X163837608Y-88478946D01*
X163658506Y-88185523D01*
X163523948Y-87973237D01*
X163422695Y-87828721D01*
X163343505Y-87738608D01*
X163275137Y-87689529D01*
X163206352Y-87668118D01*
X163125909Y-87661005D01*
X163055385Y-87657295D01*
X162765569Y-87638340D01*
X162343034Y-88331603D01*
X162183938Y-88595601D01*
X162052218Y-88819819D01*
X161960423Y-88982477D01*
X161921103Y-89061795D01*
X161920500Y-89064933D01*
X161784650Y-89064933D01*
X161826063Y-88512571D01*
X161849068Y-88174575D01*
X161854706Y-87942329D01*
X161837384Y-87795130D01*
X161791507Y-87712272D01*
X161711480Y-87673054D01*
X161594876Y-87657035D01*
X161430887Y-87668446D01*
X161335253Y-87750460D01*
X161292717Y-87923656D01*
X161286367Y-88073125D01*
X161277095Y-88147903D01*
X161232025Y-88190713D01*
X161123572Y-88210406D01*
X160924149Y-88215831D01*
X160841000Y-88216000D01*
X160396500Y-88216000D01*
X160396500Y-87644500D01*
X159888500Y-87644500D01*
X159787143Y-87644500D01*
X159811082Y-87633017D01*
X159906981Y-87600325D01*
X160076366Y-87589705D01*
X160149747Y-87592802D01*
X160428250Y-87612750D01*
X160467302Y-88152500D01*
X160765276Y-88151527D01*
X160999998Y-88138989D01*
X161137458Y-88090336D01*
X161206291Y-87986143D01*
X161232709Y-87834445D01*
X161252864Y-87699893D01*
X161303839Y-87632031D01*
X161421777Y-87603692D01*
X161553313Y-87593479D01*
X161705153Y-87588567D01*
X161807197Y-87610884D01*
X161870518Y-87681194D01*
X161906188Y-87820260D01*
X161925280Y-88048845D01*
X161936099Y-88311250D01*
X161952250Y-88755750D01*
X162197873Y-88374750D01*
X162393832Y-88069881D01*
X162535163Y-87854696D01*
X162638393Y-87713685D01*
X162720053Y-87631340D01*
X162796671Y-87592151D01*
X162884775Y-87580609D01*
X163000896Y-87581206D01*
X163043362Y-87581433D01*
X163372475Y-87581000D01*
X163697426Y-88118973D01*
X163840606Y-88350909D01*
X163962857Y-88539559D01*
X164047522Y-88659711D01*
X164073845Y-88688755D01*
X164100532Y-88645137D01*
X164127903Y-88501460D01*
X164151471Y-88284556D01*
X164159116Y-88178738D01*
X164178953Y-87928066D01*
X164202604Y-87728404D01*
X164216426Y-87659420D01*
X164225969Y-87611793D01*
X164233667Y-87596165D01*
X164309728Y-87579919D01*
X164486102Y-87566196D01*
X164736105Y-87556486D01*
X165018333Y-87552333D01*
X165369160Y-87555072D01*
X165621097Y-87568815D01*
X165802010Y-87596753D01*
X165939769Y-87642080D01*
X165983488Y-87662923D01*
X166131381Y-87731435D01*
X166213366Y-87737519D01*
X166273001Y-87683140D01*
X166278139Y-87676199D01*
X166303568Y-87659420D01*
X166367649Y-87617138D01*
X166547764Y-87573624D01*
X166835230Y-87541879D01*
X166892402Y-87537633D01*
X167371742Y-87531259D01*
X167762156Y-87583891D01*
X168056785Y-87692756D01*
X168248764Y-87855078D01*
X168331233Y-88068080D01*
X168334000Y-88120750D01*
X168275804Y-88347151D01*
X168107881Y-88525510D01*
X167840225Y-88650154D01*
X167482833Y-88715411D01*
X167270794Y-88724000D01*
X167073787Y-88730378D01*
X166973243Y-88756862D01*
X166938947Y-88814477D01*
X166937000Y-88845806D01*
X166929946Y-88981968D01*
X166894744Y-89073276D01*
X166810329Y-89128651D01*
X166655636Y-89157016D01*
X166409603Y-89167292D01*
X166175120Y-89168500D01*
X165490328Y-89168500D01*
X165181789Y-88912863D01*
X164873250Y-88657227D01*
X164841500Y-88896988D01*
X164809750Y-89136750D01*
X164210610Y-89155163D01*
X163928754Y-89161798D01*
X163743521Y-89156941D01*
X163624663Y-89134819D01*
X163541930Y-89089660D01*
X163465076Y-89015691D01*
X163461915Y-89012288D01*
X163360427Y-88921432D01*
X163242899Y-88872566D01*
X163067178Y-88853383D01*
X162909483Y-88851000D01*
X162683052Y-88856406D01*
X162545718Y-88880599D01*
X162459764Y-88935540D01*
X162400939Y-89012267D01*
X162341265Y-89091582D01*
X162270049Y-89138081D01*
X162156191Y-89158857D01*
X161968590Y-89161004D01*
X161774511Y-89155142D01*
X161253750Y-89136750D01*
X161232709Y-88915054D01*
X161200391Y-88746446D01*
X161124463Y-88650348D01*
X160976288Y-88607333D01*
X160765276Y-88597972D01*
X160467302Y-88597000D01*
X160428250Y-89136750D01*
X160149747Y-89156697D01*
X159965739Y-89155896D01*
X159834711Y-89130167D01*
X159809700Y-89115100D01*
X159701205Y-89093322D01*
X159534617Y-89142777D01*
X159335776Y-89192038D01*
X159053461Y-89220238D01*
X158729424Y-89227483D01*
X158405412Y-89213883D01*
X158123177Y-89179544D01*
X157959674Y-89138712D01*
X157752123Y-89053951D01*
X157650368Y-88970401D01*
X157640828Y-88892469D01*
X157693297Y-88892469D01*
X157694344Y-88964011D01*
X157818971Y-89027723D01*
X158039306Y-89082942D01*
X158324110Y-89124870D01*
X158642144Y-89148712D01*
X158913584Y-89151216D01*
X159208896Y-89138891D01*
X159406949Y-89115733D01*
X159537383Y-89076034D01*
X159629836Y-89014082D01*
X159631040Y-89012994D01*
X159736891Y-88842034D01*
X159738749Y-88644240D01*
X159640524Y-88459760D01*
X159571000Y-88396377D01*
X159432103Y-88328584D01*
X159211530Y-88258175D01*
X158953540Y-88198946D01*
X158915838Y-88192136D01*
X158772571Y-88162737D01*
X159398683Y-88162737D01*
X159420422Y-88195293D01*
X159507500Y-88247750D01*
X159660579Y-88324221D01*
X159736205Y-88319233D01*
X159760380Y-88224984D01*
X159761500Y-88171550D01*
X159749975Y-88058985D01*
X159707215Y-88056647D01*
X159685300Y-88076300D01*
X159560728Y-88141570D01*
X159478925Y-88154750D01*
X159398683Y-88162737D01*
X158772571Y-88162737D01*
X158648699Y-88137318D01*
X159154041Y-88137318D01*
X159216458Y-88147486D01*
X159298818Y-88135811D01*
X159299802Y-88114135D01*
X159214814Y-88098976D01*
X159178093Y-88109122D01*
X159154041Y-88137318D01*
X158648699Y-88137318D01*
X158605278Y-88128408D01*
X158409163Y-88066051D01*
X158330892Y-88007067D01*
X158330986Y-88006949D01*
X158578116Y-88006949D01*
X158584246Y-88021449D01*
X158670076Y-88066290D01*
X158826506Y-88088485D01*
X158855080Y-88089000D01*
X158996929Y-88083428D01*
X159058871Y-88069638D01*
X159057708Y-88065673D01*
X158983921Y-88040466D01*
X158833640Y-88006922D01*
X158786874Y-87998123D01*
X158625164Y-87980289D01*
X158578116Y-88006949D01*
X158330986Y-88006949D01*
X158373868Y-87953455D01*
X158460461Y-87924397D01*
X158622683Y-87913226D01*
X158858182Y-87930237D01*
X159118062Y-87968928D01*
X159353428Y-88022796D01*
X159455005Y-88056652D01*
X159556480Y-88041750D01*
X159642873Y-87952606D01*
X159680340Y-87839002D01*
X159653318Y-87764918D01*
X159538991Y-87709195D01*
X159335616Y-87659796D01*
X159081141Y-87621910D01*
X158813511Y-87600729D01*
X158570675Y-87601441D01*
X158501905Y-87607428D01*
X158154187Y-87676787D01*
X157900673Y-87788922D01*
X157750527Y-87936818D01*
X157712913Y-88113454D01*
X157733421Y-88195973D01*
X157831687Y-88341114D01*
X158010469Y-88439085D01*
X158291363Y-88501442D01*
X158308921Y-88503893D01*
X158699900Y-88567064D01*
X158980769Y-88634142D01*
X159145585Y-88703386D01*
X159190000Y-88762083D01*
X159133619Y-88819888D01*
X158981477Y-88842573D01*
X158759074Y-88832765D01*
X158491909Y-88793088D01*
X158205482Y-88726169D01*
X157925293Y-88634634D01*
X157918663Y-88632076D01*
X158210262Y-88632076D01*
X158269250Y-88660500D01*
X158421093Y-88698017D01*
X158612404Y-88713237D01*
X158618500Y-88713207D01*
X158755682Y-88709177D01*
X158775691Y-88695000D01*
X158688339Y-88662534D01*
X158682000Y-88660500D01*
X158494892Y-88621284D01*
X158332750Y-88607792D01*
X158213523Y-88611485D01*
X158210262Y-88632076D01*
X157918663Y-88632076D01*
X157915435Y-88630831D01*
X157814564Y-88648390D01*
X157738433Y-88761502D01*
X157693297Y-88892469D01*
X157640828Y-88892469D01*
X157636775Y-88859367D01*
X157690286Y-88700317D01*
X157747973Y-88537407D01*
X157745939Y-88421868D01*
X157682783Y-88288252D01*
X157681409Y-88285857D01*
X157619970Y-88074224D01*
X157681074Y-87879029D01*
X157860402Y-87710861D01*
X157933121Y-87669065D01*
X158178427Y-87586759D01*
X158502176Y-87539932D01*
X158860269Y-87530714D01*
X159208603Y-87561238D01*
G37*
X155109102Y-92035408D02*
X155233834Y-92224416D01*
X155338114Y-92393089D01*
X155372836Y-92454625D01*
X155447968Y-92597500D01*
X154810734Y-92597500D01*
X154543673Y-92592905D01*
X154331661Y-92580512D01*
X154201529Y-92562411D01*
X154173500Y-92547887D01*
X154215727Y-92483254D01*
X154221733Y-92476386D01*
X154399400Y-92476386D01*
X154425243Y-92512387D01*
X154524484Y-92529116D01*
X154720244Y-92533838D01*
X154806265Y-92534000D01*
X155039091Y-92525488D01*
X155196692Y-92502463D01*
X155253000Y-92469609D01*
X155220985Y-92378116D01*
X155143523Y-92239187D01*
X155048490Y-92095786D01*
X154963760Y-91990876D01*
X154924497Y-91963286D01*
X154840989Y-92004339D01*
X154710667Y-92106823D01*
X154570917Y-92237090D01*
X154459125Y-92361495D01*
X154423834Y-92413849D01*
X154399400Y-92476386D01*
X154221733Y-92476386D01*
X154328092Y-92354773D01*
X154489117Y-92186549D01*
X154547000Y-92128671D01*
X154920501Y-91759067D01*
X155109102Y-92035408D01*
G36*
X155109102Y-92035408D02*
G01*
X155233834Y-92224416D01*
X155338114Y-92393089D01*
X155372836Y-92454625D01*
X155447968Y-92597500D01*
X154810734Y-92597500D01*
X154543673Y-92592905D01*
X154331661Y-92580512D01*
X154201529Y-92562411D01*
X154173500Y-92547887D01*
X154215727Y-92483254D01*
X154221733Y-92476386D01*
X154399400Y-92476386D01*
X154425243Y-92512387D01*
X154524484Y-92529116D01*
X154720244Y-92533838D01*
X154806265Y-92534000D01*
X155039091Y-92525488D01*
X155196692Y-92502463D01*
X155253000Y-92469609D01*
X155220985Y-92378116D01*
X155143523Y-92239187D01*
X155048490Y-92095786D01*
X154963760Y-91990876D01*
X154924497Y-91963286D01*
X154840989Y-92004339D01*
X154710667Y-92106823D01*
X154570917Y-92237090D01*
X154459125Y-92361495D01*
X154423834Y-92413849D01*
X154399400Y-92476386D01*
X154221733Y-92476386D01*
X154328092Y-92354773D01*
X154489117Y-92186549D01*
X154547000Y-92128671D01*
X154920501Y-91759067D01*
X155109102Y-92035408D01*
G37*
X157348174Y-90994125D02*
X157555787Y-91348857D01*
X157748891Y-91678745D01*
X157915558Y-91963416D01*
X158043860Y-92182496D01*
X158121868Y-92315613D01*
X158128916Y-92327625D01*
X158250044Y-92534000D01*
X156336654Y-92534000D01*
X155975256Y-91914875D01*
X155785937Y-91591143D01*
X155564466Y-91213346D01*
X155343274Y-90836770D01*
X155211178Y-90612334D01*
X155058052Y-90350113D01*
X154931709Y-90129304D01*
X154844498Y-89971813D01*
X154824072Y-89930500D01*
X154924569Y-89930500D01*
X155163000Y-90359125D01*
X155283863Y-90572500D01*
X155450458Y-90861292D01*
X155643287Y-91191950D01*
X155842852Y-91530922D01*
X155901064Y-91629125D01*
X156400696Y-92470500D01*
X157188350Y-92470500D01*
X157491612Y-92466426D01*
X157746265Y-92455313D01*
X157926805Y-92438821D01*
X158007730Y-92418613D01*
X158009049Y-92417032D01*
X157994451Y-92341358D01*
X157926996Y-92185658D01*
X157819642Y-91978518D01*
X157771595Y-91893157D01*
X157631300Y-91649431D01*
X157451020Y-91336601D01*
X157254309Y-90995524D01*
X157070247Y-90676625D01*
X156639397Y-89930500D01*
X154924569Y-89930500D01*
X154824072Y-89930500D01*
X154808768Y-89899549D01*
X154808500Y-89897959D01*
X154868315Y-89887118D01*
X155033033Y-89877935D01*
X155280557Y-89871136D01*
X155588794Y-89867450D01*
X155748530Y-89867000D01*
X156688561Y-89867000D01*
X157348174Y-90994125D01*
G36*
X157348174Y-90994125D02*
G01*
X157555787Y-91348857D01*
X157748891Y-91678745D01*
X157915558Y-91963416D01*
X158043860Y-92182496D01*
X158121868Y-92315613D01*
X158128916Y-92327625D01*
X158250044Y-92534000D01*
X156336654Y-92534000D01*
X155975256Y-91914875D01*
X155785937Y-91591143D01*
X155564466Y-91213346D01*
X155343274Y-90836770D01*
X155211178Y-90612334D01*
X155058052Y-90350113D01*
X154931709Y-90129304D01*
X154844498Y-89971813D01*
X154824072Y-89930500D01*
X154924569Y-89930500D01*
X155163000Y-90359125D01*
X155283863Y-90572500D01*
X155450458Y-90861292D01*
X155643287Y-91191950D01*
X155842852Y-91530922D01*
X155901064Y-91629125D01*
X156400696Y-92470500D01*
X157188350Y-92470500D01*
X157491612Y-92466426D01*
X157746265Y-92455313D01*
X157926805Y-92438821D01*
X158007730Y-92418613D01*
X158009049Y-92417032D01*
X157994451Y-92341358D01*
X157926996Y-92185658D01*
X157819642Y-91978518D01*
X157771595Y-91893157D01*
X157631300Y-91649431D01*
X157451020Y-91336601D01*
X157254309Y-90995524D01*
X157070247Y-90676625D01*
X156639397Y-89930500D01*
X154924569Y-89930500D01*
X154824072Y-89930500D01*
X154808768Y-89899549D01*
X154808500Y-89897959D01*
X154868315Y-89887118D01*
X155033033Y-89877935D01*
X155280557Y-89871136D01*
X155588794Y-89867450D01*
X155748530Y-89867000D01*
X156688561Y-89867000D01*
X157348174Y-90994125D01*
G37*
X158733264Y-89840497D02*
X158829731Y-89848915D01*
X158836399Y-89852065D01*
X158812273Y-89909295D01*
X158720020Y-90027513D01*
X158584189Y-90180869D01*
X158429326Y-90343515D01*
X158279980Y-90489604D01*
X158160698Y-90593286D01*
X158098564Y-90629000D01*
X158042742Y-90579507D01*
X157942689Y-90449908D01*
X157823053Y-90272814D01*
X157710830Y-90090975D01*
X157638818Y-89962250D01*
X157731281Y-89962250D01*
X157892739Y-90232125D01*
X157995704Y-90387999D01*
X158078781Y-90485481D01*
X158106710Y-90502000D01*
X158174676Y-90458442D01*
X158295686Y-90345886D01*
X158403639Y-90232125D01*
X158648057Y-89962250D01*
X158411028Y-89942541D01*
X158179412Y-89934412D01*
X157953829Y-89942436D01*
X157952640Y-89942541D01*
X157731281Y-89962250D01*
X157638818Y-89962250D01*
X157635979Y-89957176D01*
X157614727Y-89900525D01*
X157691127Y-89884274D01*
X157858010Y-89868678D01*
X158080521Y-89855119D01*
X158323804Y-89844981D01*
X158553003Y-89839646D01*
X158733264Y-89840497D01*
G36*
X158733264Y-89840497D02*
G01*
X158829731Y-89848915D01*
X158836399Y-89852065D01*
X158812273Y-89909295D01*
X158720020Y-90027513D01*
X158584189Y-90180869D01*
X158429326Y-90343515D01*
X158279980Y-90489604D01*
X158160698Y-90593286D01*
X158098564Y-90629000D01*
X158042742Y-90579507D01*
X157942689Y-90449908D01*
X157823053Y-90272814D01*
X157710830Y-90090975D01*
X157638818Y-89962250D01*
X157731281Y-89962250D01*
X157892739Y-90232125D01*
X157995704Y-90387999D01*
X158078781Y-90485481D01*
X158106710Y-90502000D01*
X158174676Y-90458442D01*
X158295686Y-90345886D01*
X158403639Y-90232125D01*
X158648057Y-89962250D01*
X158411028Y-89942541D01*
X158179412Y-89934412D01*
X157953829Y-89942436D01*
X157952640Y-89942541D01*
X157731281Y-89962250D01*
X157638818Y-89962250D01*
X157635979Y-89957176D01*
X157614727Y-89900525D01*
X157691127Y-89884274D01*
X157858010Y-89868678D01*
X158080521Y-89855119D01*
X158323804Y-89844981D01*
X158553003Y-89839646D01*
X158733264Y-89840497D01*
G37*
X160985500Y-91272818D02*
X161187977Y-91307112D01*
X161299611Y-91378635D01*
X161338110Y-91499144D01*
X161321182Y-91680392D01*
X161319074Y-91691928D01*
X161270009Y-91890284D01*
X161194582Y-92022463D01*
X161069164Y-92101538D01*
X160870129Y-92140580D01*
X160573847Y-92152660D01*
X160485655Y-92153000D01*
X160209903Y-92146205D01*
X159997046Y-92127675D01*
X159873706Y-92100190D01*
X159858602Y-92089500D01*
X159952000Y-92089500D01*
X160490286Y-92089500D01*
X160755477Y-92086755D01*
X160924029Y-92073634D01*
X161026268Y-92042803D01*
X161092517Y-91986932D01*
X161129900Y-91934854D01*
X161199479Y-91755466D01*
X161210738Y-91601479D01*
X161195359Y-91511366D01*
X161156446Y-91456931D01*
X161066496Y-91427537D01*
X160898005Y-91412546D01*
X160700748Y-91404251D01*
X160372638Y-91410144D01*
X160150056Y-91463497D01*
X160017263Y-91574042D01*
X159958520Y-91751510D01*
X159952000Y-91867250D01*
X159952000Y-92089500D01*
X159858602Y-92089500D01*
X159855309Y-92087169D01*
X159833848Y-91960959D01*
X159845912Y-91867250D01*
X159858043Y-91773033D01*
X159915703Y-91574736D01*
X159994634Y-91417410D01*
X160022216Y-91384283D01*
X160106754Y-91322565D01*
X160228772Y-91285734D01*
X160419027Y-91268116D01*
X160674474Y-91264000D01*
X160985500Y-91272818D01*
G36*
X160985500Y-91272818D02*
G01*
X161187977Y-91307112D01*
X161299611Y-91378635D01*
X161338110Y-91499144D01*
X161321182Y-91680392D01*
X161319074Y-91691928D01*
X161270009Y-91890284D01*
X161194582Y-92022463D01*
X161069164Y-92101538D01*
X160870129Y-92140580D01*
X160573847Y-92152660D01*
X160485655Y-92153000D01*
X160209903Y-92146205D01*
X159997046Y-92127675D01*
X159873706Y-92100190D01*
X159858602Y-92089500D01*
X159952000Y-92089500D01*
X160490286Y-92089500D01*
X160755477Y-92086755D01*
X160924029Y-92073634D01*
X161026268Y-92042803D01*
X161092517Y-91986932D01*
X161129900Y-91934854D01*
X161199479Y-91755466D01*
X161210738Y-91601479D01*
X161195359Y-91511366D01*
X161156446Y-91456931D01*
X161066496Y-91427537D01*
X160898005Y-91412546D01*
X160700748Y-91404251D01*
X160372638Y-91410144D01*
X160150056Y-91463497D01*
X160017263Y-91574042D01*
X159958520Y-91751510D01*
X159952000Y-91867250D01*
X159952000Y-92089500D01*
X159858602Y-92089500D01*
X159855309Y-92087169D01*
X159833848Y-91960959D01*
X159845912Y-91867250D01*
X159858043Y-91773033D01*
X159915703Y-91574736D01*
X159994634Y-91417410D01*
X160022216Y-91384283D01*
X160106754Y-91322565D01*
X160228772Y-91285734D01*
X160419027Y-91268116D01*
X160674474Y-91264000D01*
X160985500Y-91272818D01*
G37*
X163481310Y-91331960D02*
X163696854Y-91343810D01*
X163833268Y-91360750D01*
X163852056Y-91366043D01*
X163920918Y-91452972D01*
X163951228Y-91616546D01*
X163942887Y-91812368D01*
X163895796Y-91996046D01*
X163853649Y-92075370D01*
X163795696Y-92142297D01*
X163717013Y-92184012D01*
X163589142Y-92206366D01*
X163383625Y-92215211D01*
X163167286Y-92216500D01*
X162803647Y-92205360D01*
X162563695Y-92171830D01*
X162462533Y-92130771D01*
X162386688Y-92042989D01*
X162371385Y-91908859D01*
X162379340Y-91843565D01*
X162467960Y-91843565D01*
X162483863Y-91999963D01*
X162539817Y-92073625D01*
X162665708Y-92118217D01*
X162875638Y-92144662D01*
X163127962Y-92153062D01*
X163381037Y-92143517D01*
X163593219Y-92116130D01*
X163722865Y-92071000D01*
X163723211Y-92070748D01*
X163807757Y-91947507D01*
X163846473Y-91772702D01*
X163831376Y-91603504D01*
X163746553Y-91499909D01*
X163698500Y-91470811D01*
X163518223Y-91421202D01*
X163269030Y-91409813D01*
X163001993Y-91433248D01*
X162768185Y-91488114D01*
X162656622Y-91540062D01*
X162528843Y-91675207D01*
X162467960Y-91843565D01*
X162379340Y-91843565D01*
X162384965Y-91797396D01*
X162439962Y-91592483D01*
X162541278Y-91454890D01*
X162709939Y-91372843D01*
X162966971Y-91334568D01*
X163224091Y-91327500D01*
X163481310Y-91331960D01*
G36*
X163481310Y-91331960D02*
G01*
X163696854Y-91343810D01*
X163833268Y-91360750D01*
X163852056Y-91366043D01*
X163920918Y-91452972D01*
X163951228Y-91616546D01*
X163942887Y-91812368D01*
X163895796Y-91996046D01*
X163853649Y-92075370D01*
X163795696Y-92142297D01*
X163717013Y-92184012D01*
X163589142Y-92206366D01*
X163383625Y-92215211D01*
X163167286Y-92216500D01*
X162803647Y-92205360D01*
X162563695Y-92171830D01*
X162462533Y-92130771D01*
X162386688Y-92042989D01*
X162371385Y-91908859D01*
X162379340Y-91843565D01*
X162467960Y-91843565D01*
X162483863Y-91999963D01*
X162539817Y-92073625D01*
X162665708Y-92118217D01*
X162875638Y-92144662D01*
X163127962Y-92153062D01*
X163381037Y-92143517D01*
X163593219Y-92116130D01*
X163722865Y-92071000D01*
X163723211Y-92070748D01*
X163807757Y-91947507D01*
X163846473Y-91772702D01*
X163831376Y-91603504D01*
X163746553Y-91499909D01*
X163698500Y-91470811D01*
X163518223Y-91421202D01*
X163269030Y-91409813D01*
X163001993Y-91433248D01*
X162768185Y-91488114D01*
X162656622Y-91540062D01*
X162528843Y-91675207D01*
X162467960Y-91843565D01*
X162379340Y-91843565D01*
X162384965Y-91797396D01*
X162439962Y-91592483D01*
X162541278Y-91454890D01*
X162709939Y-91372843D01*
X162966971Y-91334568D01*
X163224091Y-91327500D01*
X163481310Y-91331960D01*
G37*
X163437207Y-90195854D02*
X163530558Y-90198227D01*
X164174750Y-90216250D01*
X164159833Y-90470250D01*
X164127750Y-90670801D01*
X164046476Y-90807857D01*
X163896911Y-90892262D01*
X163659954Y-90934861D01*
X163321048Y-90946500D01*
X163067166Y-90941939D01*
X162863901Y-90929763D01*
X162743038Y-90912227D01*
X162724833Y-90904166D01*
X162685892Y-90794340D01*
X162684205Y-90648574D01*
X162759127Y-90648574D01*
X162777978Y-90775795D01*
X162857125Y-90839227D01*
X163064233Y-90870856D01*
X163319176Y-90879022D01*
X163578589Y-90865937D01*
X163799107Y-90833808D01*
X163937365Y-90784845D01*
X163938370Y-90784149D01*
X164049555Y-90648568D01*
X164073476Y-90488942D01*
X164008317Y-90351903D01*
X163956674Y-90313734D01*
X163816272Y-90275702D01*
X163598851Y-90254128D01*
X163353502Y-90250470D01*
X163129319Y-90266188D01*
X163023615Y-90285998D01*
X162893549Y-90365117D01*
X162801518Y-90498829D01*
X162759127Y-90648574D01*
X162684205Y-90648574D01*
X162683875Y-90620143D01*
X162713474Y-90436975D01*
X162769382Y-90300236D01*
X162784433Y-90282138D01*
X162856291Y-90234464D01*
X162972181Y-90206087D01*
X163157390Y-90194166D01*
X163437207Y-90195854D01*
G36*
X163437207Y-90195854D02*
G01*
X163530558Y-90198227D01*
X164174750Y-90216250D01*
X164159833Y-90470250D01*
X164127750Y-90670801D01*
X164046476Y-90807857D01*
X163896911Y-90892262D01*
X163659954Y-90934861D01*
X163321048Y-90946500D01*
X163067166Y-90941939D01*
X162863901Y-90929763D01*
X162743038Y-90912227D01*
X162724833Y-90904166D01*
X162685892Y-90794340D01*
X162684205Y-90648574D01*
X162759127Y-90648574D01*
X162777978Y-90775795D01*
X162857125Y-90839227D01*
X163064233Y-90870856D01*
X163319176Y-90879022D01*
X163578589Y-90865937D01*
X163799107Y-90833808D01*
X163937365Y-90784845D01*
X163938370Y-90784149D01*
X164049555Y-90648568D01*
X164073476Y-90488942D01*
X164008317Y-90351903D01*
X163956674Y-90313734D01*
X163816272Y-90275702D01*
X163598851Y-90254128D01*
X163353502Y-90250470D01*
X163129319Y-90266188D01*
X163023615Y-90285998D01*
X162893549Y-90365117D01*
X162801518Y-90498829D01*
X162759127Y-90648574D01*
X162684205Y-90648574D01*
X162683875Y-90620143D01*
X162713474Y-90436975D01*
X162769382Y-90300236D01*
X162784433Y-90282138D01*
X162856291Y-90234464D01*
X162972181Y-90206087D01*
X163157390Y-90194166D01*
X163437207Y-90195854D01*
G37*
X166426328Y-90191432D02*
X166620407Y-90205496D01*
X166709556Y-90223043D01*
X166774217Y-90283154D01*
X166803602Y-90409720D01*
X166797344Y-90616694D01*
X166755079Y-90918028D01*
X166681193Y-91304634D01*
X166603973Y-91649157D01*
X166525883Y-91888151D01*
X166427935Y-92041789D01*
X166291142Y-92130242D01*
X166096516Y-92173683D01*
X165846512Y-92191387D01*
X165592641Y-92194948D01*
X165369694Y-92185284D01*
X165224907Y-92164485D01*
X165222500Y-92163781D01*
X165112042Y-92089646D01*
X165052764Y-91940932D01*
X165050956Y-91894484D01*
X165108282Y-91894484D01*
X165146501Y-92001225D01*
X165243744Y-92069185D01*
X165418580Y-92103244D01*
X165689582Y-92108279D01*
X165891314Y-92100184D01*
X166164924Y-92070549D01*
X166335508Y-92012718D01*
X166393837Y-91966270D01*
X166456820Y-91846007D01*
X166523632Y-91637900D01*
X166587869Y-91375619D01*
X166643125Y-91092832D01*
X166682994Y-90823206D01*
X166701073Y-90600409D01*
X166690955Y-90458109D01*
X166684101Y-90440558D01*
X166568772Y-90345280D01*
X166368887Y-90286173D01*
X166121682Y-90263407D01*
X165864391Y-90277154D01*
X165634250Y-90327582D01*
X165468495Y-90414863D01*
X165448004Y-90434903D01*
X165389649Y-90547885D01*
X165321233Y-90751738D01*
X165250862Y-91011642D01*
X165186640Y-91292773D01*
X165136672Y-91560311D01*
X165109064Y-91779432D01*
X165108282Y-91894484D01*
X165050956Y-91894484D01*
X165043604Y-91705617D01*
X165083501Y-91371679D01*
X165130378Y-91119804D01*
X165214378Y-90754177D01*
X165298637Y-90497974D01*
X165391347Y-90333865D01*
X165500700Y-90244523D01*
X165553331Y-90225188D01*
X165702175Y-90203403D01*
X165925258Y-90190463D01*
X166180627Y-90186447D01*
X166426328Y-90191432D01*
G36*
X166426328Y-90191432D02*
G01*
X166620407Y-90205496D01*
X166709556Y-90223043D01*
X166774217Y-90283154D01*
X166803602Y-90409720D01*
X166797344Y-90616694D01*
X166755079Y-90918028D01*
X166681193Y-91304634D01*
X166603973Y-91649157D01*
X166525883Y-91888151D01*
X166427935Y-92041789D01*
X166291142Y-92130242D01*
X166096516Y-92173683D01*
X165846512Y-92191387D01*
X165592641Y-92194948D01*
X165369694Y-92185284D01*
X165224907Y-92164485D01*
X165222500Y-92163781D01*
X165112042Y-92089646D01*
X165052764Y-91940932D01*
X165050956Y-91894484D01*
X165108282Y-91894484D01*
X165146501Y-92001225D01*
X165243744Y-92069185D01*
X165418580Y-92103244D01*
X165689582Y-92108279D01*
X165891314Y-92100184D01*
X166164924Y-92070549D01*
X166335508Y-92012718D01*
X166393837Y-91966270D01*
X166456820Y-91846007D01*
X166523632Y-91637900D01*
X166587869Y-91375619D01*
X166643125Y-91092832D01*
X166682994Y-90823206D01*
X166701073Y-90600409D01*
X166690955Y-90458109D01*
X166684101Y-90440558D01*
X166568772Y-90345280D01*
X166368887Y-90286173D01*
X166121682Y-90263407D01*
X165864391Y-90277154D01*
X165634250Y-90327582D01*
X165468495Y-90414863D01*
X165448004Y-90434903D01*
X165389649Y-90547885D01*
X165321233Y-90751738D01*
X165250862Y-91011642D01*
X165186640Y-91292773D01*
X165136672Y-91560311D01*
X165109064Y-91779432D01*
X165108282Y-91894484D01*
X165050956Y-91894484D01*
X165043604Y-91705617D01*
X165083501Y-91371679D01*
X165130378Y-91119804D01*
X165214378Y-90754177D01*
X165298637Y-90497974D01*
X165391347Y-90333865D01*
X165500700Y-90244523D01*
X165553331Y-90225188D01*
X165702175Y-90203403D01*
X165925258Y-90190463D01*
X166180627Y-90186447D01*
X166426328Y-90191432D01*
G37*
X169009576Y-90187568D02*
X169208718Y-90209237D01*
X169330432Y-90268200D01*
X169386366Y-90383152D01*
X169388172Y-90572787D01*
X169347499Y-90855800D01*
X169300910Y-91114474D01*
X169223979Y-91500528D01*
X169150503Y-91778842D01*
X169071250Y-91968039D01*
X168976991Y-92086744D01*
X168858496Y-92153581D01*
X168774863Y-92175952D01*
X168542113Y-92204317D01*
X168272003Y-92211206D01*
X168014506Y-92197757D01*
X167819595Y-92165105D01*
X167784872Y-92153424D01*
X167659411Y-92082977D01*
X167607901Y-92032716D01*
X167601029Y-91944706D01*
X167606037Y-91882606D01*
X167704240Y-91882606D01*
X167716840Y-91980901D01*
X167756012Y-92033720D01*
X167840774Y-92066451D01*
X167996066Y-92083505D01*
X168246822Y-92089295D01*
X168330543Y-92089500D01*
X168605369Y-92087002D01*
X168782167Y-92075204D01*
X168889880Y-92047641D01*
X168957447Y-91997854D01*
X169000595Y-91939897D01*
X169062584Y-91796668D01*
X169129678Y-91565837D01*
X169193656Y-91286102D01*
X169246295Y-90996161D01*
X169279373Y-90734712D01*
X169286500Y-90594213D01*
X169273647Y-90452958D01*
X169211692Y-90373028D01*
X169065540Y-90314040D01*
X169034903Y-90304717D01*
X168751376Y-90260130D01*
X168460749Y-90280720D01*
X168203548Y-90358505D01*
X168020298Y-90485506D01*
X168001786Y-90508183D01*
X167937519Y-90643626D01*
X167869943Y-90863961D01*
X167805943Y-91133606D01*
X167752403Y-91416982D01*
X167716207Y-91678509D01*
X167704240Y-91882606D01*
X167606037Y-91882606D01*
X167615622Y-91763769D01*
X167646812Y-91521217D01*
X167689732Y-91248364D01*
X167739516Y-90976522D01*
X167791297Y-90737005D01*
X167833451Y-90581571D01*
X167911034Y-90406855D01*
X168027148Y-90290346D01*
X168205226Y-90221563D01*
X168468703Y-90190027D01*
X168721353Y-90184500D01*
X169009576Y-90187568D01*
G36*
X169009576Y-90187568D02*
G01*
X169208718Y-90209237D01*
X169330432Y-90268200D01*
X169386366Y-90383152D01*
X169388172Y-90572787D01*
X169347499Y-90855800D01*
X169300910Y-91114474D01*
X169223979Y-91500528D01*
X169150503Y-91778842D01*
X169071250Y-91968039D01*
X168976991Y-92086744D01*
X168858496Y-92153581D01*
X168774863Y-92175952D01*
X168542113Y-92204317D01*
X168272003Y-92211206D01*
X168014506Y-92197757D01*
X167819595Y-92165105D01*
X167784872Y-92153424D01*
X167659411Y-92082977D01*
X167607901Y-92032716D01*
X167601029Y-91944706D01*
X167606037Y-91882606D01*
X167704240Y-91882606D01*
X167716840Y-91980901D01*
X167756012Y-92033720D01*
X167840774Y-92066451D01*
X167996066Y-92083505D01*
X168246822Y-92089295D01*
X168330543Y-92089500D01*
X168605369Y-92087002D01*
X168782167Y-92075204D01*
X168889880Y-92047641D01*
X168957447Y-91997854D01*
X169000595Y-91939897D01*
X169062584Y-91796668D01*
X169129678Y-91565837D01*
X169193656Y-91286102D01*
X169246295Y-90996161D01*
X169279373Y-90734712D01*
X169286500Y-90594213D01*
X169273647Y-90452958D01*
X169211692Y-90373028D01*
X169065540Y-90314040D01*
X169034903Y-90304717D01*
X168751376Y-90260130D01*
X168460749Y-90280720D01*
X168203548Y-90358505D01*
X168020298Y-90485506D01*
X168001786Y-90508183D01*
X167937519Y-90643626D01*
X167869943Y-90863961D01*
X167805943Y-91133606D01*
X167752403Y-91416982D01*
X167716207Y-91678509D01*
X167704240Y-91882606D01*
X167606037Y-91882606D01*
X167615622Y-91763769D01*
X167646812Y-91521217D01*
X167689732Y-91248364D01*
X167739516Y-90976522D01*
X167791297Y-90737005D01*
X167833451Y-90581571D01*
X167911034Y-90406855D01*
X168027148Y-90290346D01*
X168205226Y-90221563D01*
X168468703Y-90190027D01*
X168721353Y-90184500D01*
X169009576Y-90187568D01*
G37*
X171562464Y-90196503D02*
X171774535Y-90227804D01*
X171905738Y-90274810D01*
X171917214Y-90284285D01*
X171963824Y-90327622D01*
X171993555Y-90363799D01*
X172005505Y-90416314D01*
X171998772Y-90508663D01*
X171972455Y-90664346D01*
X171925653Y-90906858D01*
X171885373Y-91114126D01*
X171806941Y-91496211D01*
X171735722Y-91771229D01*
X171662004Y-91957981D01*
X171576078Y-92075268D01*
X171468232Y-92141890D01*
X171337284Y-92175270D01*
X171061526Y-92201765D01*
X170745832Y-92204629D01*
X170460509Y-92184126D01*
X170381979Y-92171699D01*
X170277047Y-92123869D01*
X170216949Y-92018618D01*
X170199728Y-91839323D01*
X170200579Y-91829618D01*
X170270595Y-91829618D01*
X170299546Y-91972294D01*
X170394410Y-92049899D01*
X170568149Y-92082105D01*
X170833724Y-92088585D01*
X170897650Y-92088527D01*
X171147074Y-92082626D01*
X171349694Y-92067825D01*
X171470074Y-92047005D01*
X171483618Y-92040902D01*
X171570348Y-91949581D01*
X171647088Y-91788229D01*
X171721391Y-91536977D01*
X171787567Y-91241332D01*
X171853716Y-90901345D01*
X171886605Y-90663448D01*
X171883120Y-90506356D01*
X171840141Y-90408789D01*
X171754553Y-90349465D01*
X171651875Y-90314838D01*
X171333001Y-90261258D01*
X171029794Y-90272445D01*
X170773876Y-90342878D01*
X170596869Y-90467037D01*
X170569958Y-90503711D01*
X170522756Y-90620360D01*
X170461957Y-90827973D01*
X170396920Y-91092605D01*
X170358587Y-91270357D01*
X170294596Y-91602196D01*
X170270595Y-91829618D01*
X170200579Y-91829618D01*
X170223427Y-91569361D01*
X170274199Y-91256643D01*
X170354440Y-90866770D01*
X170436485Y-90585758D01*
X170527599Y-90395587D01*
X170635044Y-90278235D01*
X170679982Y-90249882D01*
X170828283Y-90207596D01*
X171050614Y-90185322D01*
X171308249Y-90181984D01*
X171562464Y-90196503D01*
G36*
X171562464Y-90196503D02*
G01*
X171774535Y-90227804D01*
X171905738Y-90274810D01*
X171917214Y-90284285D01*
X171963824Y-90327622D01*
X171993555Y-90363799D01*
X172005505Y-90416314D01*
X171998772Y-90508663D01*
X171972455Y-90664346D01*
X171925653Y-90906858D01*
X171885373Y-91114126D01*
X171806941Y-91496211D01*
X171735722Y-91771229D01*
X171662004Y-91957981D01*
X171576078Y-92075268D01*
X171468232Y-92141890D01*
X171337284Y-92175270D01*
X171061526Y-92201765D01*
X170745832Y-92204629D01*
X170460509Y-92184126D01*
X170381979Y-92171699D01*
X170277047Y-92123869D01*
X170216949Y-92018618D01*
X170199728Y-91839323D01*
X170200579Y-91829618D01*
X170270595Y-91829618D01*
X170299546Y-91972294D01*
X170394410Y-92049899D01*
X170568149Y-92082105D01*
X170833724Y-92088585D01*
X170897650Y-92088527D01*
X171147074Y-92082626D01*
X171349694Y-92067825D01*
X171470074Y-92047005D01*
X171483618Y-92040902D01*
X171570348Y-91949581D01*
X171647088Y-91788229D01*
X171721391Y-91536977D01*
X171787567Y-91241332D01*
X171853716Y-90901345D01*
X171886605Y-90663448D01*
X171883120Y-90506356D01*
X171840141Y-90408789D01*
X171754553Y-90349465D01*
X171651875Y-90314838D01*
X171333001Y-90261258D01*
X171029794Y-90272445D01*
X170773876Y-90342878D01*
X170596869Y-90467037D01*
X170569958Y-90503711D01*
X170522756Y-90620360D01*
X170461957Y-90827973D01*
X170396920Y-91092605D01*
X170358587Y-91270357D01*
X170294596Y-91602196D01*
X170270595Y-91829618D01*
X170200579Y-91829618D01*
X170223427Y-91569361D01*
X170274199Y-91256643D01*
X170354440Y-90866770D01*
X170436485Y-90585758D01*
X170527599Y-90395587D01*
X170635044Y-90278235D01*
X170679982Y-90249882D01*
X170828283Y-90207596D01*
X171050614Y-90185322D01*
X171308249Y-90181984D01*
X171562464Y-90196503D01*
G37*
X163007540Y-88091596D02*
X163081558Y-88209922D01*
X163165937Y-88365420D01*
X163166982Y-88441982D01*
X163068552Y-88467525D01*
X162931208Y-88470000D01*
X162776428Y-88459822D01*
X162697579Y-88434284D01*
X162695120Y-88422375D01*
X162750568Y-88311250D01*
X162873000Y-88311250D01*
X162904750Y-88343000D01*
X162936500Y-88311250D01*
X162904750Y-88279500D01*
X162873000Y-88311250D01*
X162750568Y-88311250D01*
X162809417Y-88193309D01*
X162887268Y-88068597D01*
X162947150Y-88038078D01*
X163007540Y-88091596D01*
G36*
X163007540Y-88091596D02*
G01*
X163081558Y-88209922D01*
X163165937Y-88365420D01*
X163166982Y-88441982D01*
X163068552Y-88467525D01*
X162931208Y-88470000D01*
X162776428Y-88459822D01*
X162697579Y-88434284D01*
X162695120Y-88422375D01*
X162750568Y-88311250D01*
X162873000Y-88311250D01*
X162904750Y-88343000D01*
X162936500Y-88311250D01*
X162904750Y-88279500D01*
X162873000Y-88311250D01*
X162750568Y-88311250D01*
X162809417Y-88193309D01*
X162887268Y-88068597D01*
X162947150Y-88038078D01*
X163007540Y-88091596D01*
G37*
X167421356Y-87907738D02*
X167588613Y-87941613D01*
X167673802Y-88009366D01*
X167698922Y-88120238D01*
X167699000Y-88129115D01*
X167644286Y-88276544D01*
X167494536Y-88366866D01*
X167271341Y-88393255D01*
X167000500Y-88350049D01*
X166878298Y-88280551D01*
X166825913Y-88136885D01*
X166824014Y-88120750D01*
X166937000Y-88120750D01*
X166945761Y-88220066D01*
X166994250Y-88265652D01*
X167115771Y-88273670D01*
X167238625Y-88267104D01*
X167424565Y-88246603D01*
X167514684Y-88206383D01*
X167540073Y-88131357D01*
X167540250Y-88120750D01*
X167519896Y-88041153D01*
X167438107Y-87997960D01*
X167263790Y-87976084D01*
X167238625Y-87974395D01*
X167056824Y-87967543D01*
X166968184Y-87988494D01*
X166939397Y-88053409D01*
X166937000Y-88120750D01*
X166824014Y-88120750D01*
X166821851Y-88102379D01*
X166801953Y-87898500D01*
X167150033Y-87898500D01*
X167421356Y-87907738D01*
G36*
X167421356Y-87907738D02*
G01*
X167588613Y-87941613D01*
X167673802Y-88009366D01*
X167698922Y-88120238D01*
X167699000Y-88129115D01*
X167644286Y-88276544D01*
X167494536Y-88366866D01*
X167271341Y-88393255D01*
X167000500Y-88350049D01*
X166878298Y-88280551D01*
X166825913Y-88136885D01*
X166824014Y-88120750D01*
X166937000Y-88120750D01*
X166945761Y-88220066D01*
X166994250Y-88265652D01*
X167115771Y-88273670D01*
X167238625Y-88267104D01*
X167424565Y-88246603D01*
X167514684Y-88206383D01*
X167540073Y-88131357D01*
X167540250Y-88120750D01*
X167519896Y-88041153D01*
X167438107Y-87997960D01*
X167263790Y-87976084D01*
X167238625Y-87974395D01*
X167056824Y-87967543D01*
X166968184Y-87988494D01*
X166939397Y-88053409D01*
X166937000Y-88120750D01*
X166824014Y-88120750D01*
X166821851Y-88102379D01*
X166801953Y-87898500D01*
X167150033Y-87898500D01*
X167421356Y-87907738D01*
G37*
%TD*%
D12*
%TO.C,IC1*%
X151090000Y-99060000D03*
X151090000Y-100330000D03*
X151090000Y-101600000D03*
X151090000Y-102870000D03*
X151090000Y-104140000D03*
X151090000Y-105410000D03*
X151090000Y-106680000D03*
X151090000Y-107950000D03*
X146090000Y-107950000D03*
X146090000Y-106680000D03*
X146090000Y-105410000D03*
X146090000Y-104140000D03*
X146090000Y-102870000D03*
X146090000Y-101600000D03*
X146090000Y-100330000D03*
X146090000Y-99060000D03*
%TD*%
D13*
%TO.C,X1*%
X168275000Y-106680000D03*
X168275000Y-99060000D03*
X160655000Y-99060000D03*
D14*
X160655000Y-106680000D03*
%TD*%
D15*
%TO.C,SW1*%
X133985000Y-114935000D03*
D16*
X133985000Y-112395000D03*
%TD*%
D17*
%TO.C,R1*%
X141845000Y-94525000D03*
D13*
X152005000Y-94525000D03*
%TD*%
D15*
%TO.C,J1*%
X133985000Y-106680000D03*
X133985000Y-104140000D03*
X133985000Y-101600000D03*
D16*
X133985000Y-99060000D03*
%TD*%
M02*
