%TF.GenerationSoftware,KiCad,Pcbnew,8.0.3*%
%TF.CreationDate,2024-12-07T17:37:54-06:00*%
%TF.ProjectId,XVI Overclock,58564920-4f76-4657-9263-6c6f636b2e6b,rev?*%
%TF.SameCoordinates,Original*%
%TF.FileFunction,Soldermask,Bot*%
%TF.FilePolarity,Negative*%
%FSLAX46Y46*%
G04 Gerber Fmt 4.6, Leading zero omitted, Abs format (unit mm)*
G04 Created by KiCad (PCBNEW 8.0.3) date 2024-12-07 17:37:54*
%MOMM*%
%LPD*%
G01*
G04 APERTURE LIST*
%ADD10C,0.150000*%
%ADD11C,1.600000*%
%ADD12R,1.600000X1.600000*%
%ADD13O,1.600000X1.600000*%
G04 APERTURE END LIST*
D10*
X163884285Y-113614426D02*
X164027142Y-113757284D01*
X164027142Y-113757284D02*
X164455714Y-113900141D01*
X164455714Y-113900141D02*
X164741428Y-113900141D01*
X164741428Y-113900141D02*
X165169999Y-113757284D01*
X165169999Y-113757284D02*
X165455714Y-113471569D01*
X165455714Y-113471569D02*
X165598571Y-113185855D01*
X165598571Y-113185855D02*
X165741428Y-112614426D01*
X165741428Y-112614426D02*
X165741428Y-112185855D01*
X165741428Y-112185855D02*
X165598571Y-111614426D01*
X165598571Y-111614426D02*
X165455714Y-111328712D01*
X165455714Y-111328712D02*
X165169999Y-111042998D01*
X165169999Y-111042998D02*
X164741428Y-110900141D01*
X164741428Y-110900141D02*
X164455714Y-110900141D01*
X164455714Y-110900141D02*
X164027142Y-111042998D01*
X164027142Y-111042998D02*
X163884285Y-111185855D01*
X162169999Y-113900141D02*
X162455714Y-113757284D01*
X162455714Y-113757284D02*
X162598571Y-113614426D01*
X162598571Y-113614426D02*
X162741428Y-113328712D01*
X162741428Y-113328712D02*
X162741428Y-112471569D01*
X162741428Y-112471569D02*
X162598571Y-112185855D01*
X162598571Y-112185855D02*
X162455714Y-112042998D01*
X162455714Y-112042998D02*
X162169999Y-111900141D01*
X162169999Y-111900141D02*
X161741428Y-111900141D01*
X161741428Y-111900141D02*
X161455714Y-112042998D01*
X161455714Y-112042998D02*
X161312857Y-112185855D01*
X161312857Y-112185855D02*
X161169999Y-112471569D01*
X161169999Y-112471569D02*
X161169999Y-113328712D01*
X161169999Y-113328712D02*
X161312857Y-113614426D01*
X161312857Y-113614426D02*
X161455714Y-113757284D01*
X161455714Y-113757284D02*
X161741428Y-113900141D01*
X161741428Y-113900141D02*
X162169999Y-113900141D01*
X160169999Y-111900141D02*
X159455713Y-113900141D01*
X159455713Y-113900141D02*
X158741428Y-111900141D01*
X156455714Y-113757284D02*
X156741428Y-113900141D01*
X156741428Y-113900141D02*
X157312857Y-113900141D01*
X157312857Y-113900141D02*
X157598571Y-113757284D01*
X157598571Y-113757284D02*
X157741428Y-113471569D01*
X157741428Y-113471569D02*
X157741428Y-112328712D01*
X157741428Y-112328712D02*
X157598571Y-112042998D01*
X157598571Y-112042998D02*
X157312857Y-111900141D01*
X157312857Y-111900141D02*
X156741428Y-111900141D01*
X156741428Y-111900141D02*
X156455714Y-112042998D01*
X156455714Y-112042998D02*
X156312857Y-112328712D01*
X156312857Y-112328712D02*
X156312857Y-112614426D01*
X156312857Y-112614426D02*
X157741428Y-112900141D01*
X155027142Y-113900141D02*
X155027142Y-111900141D01*
X155027142Y-112471569D02*
X154884285Y-112185855D01*
X154884285Y-112185855D02*
X154741428Y-112042998D01*
X154741428Y-112042998D02*
X154455713Y-111900141D01*
X154455713Y-111900141D02*
X154169999Y-111900141D01*
X151312856Y-111900141D02*
X150169999Y-111900141D01*
X150884285Y-110900141D02*
X150884285Y-113471569D01*
X150884285Y-113471569D02*
X150741428Y-113757284D01*
X150741428Y-113757284D02*
X150455713Y-113900141D01*
X150455713Y-113900141D02*
X150169999Y-113900141D01*
X149169999Y-113900141D02*
X149169999Y-110900141D01*
X147884285Y-113900141D02*
X147884285Y-112328712D01*
X147884285Y-112328712D02*
X148027142Y-112042998D01*
X148027142Y-112042998D02*
X148312856Y-111900141D01*
X148312856Y-111900141D02*
X148741427Y-111900141D01*
X148741427Y-111900141D02*
X149027142Y-112042998D01*
X149027142Y-112042998D02*
X149169999Y-112185855D01*
X146455713Y-113900141D02*
X146455713Y-111900141D01*
X146455713Y-110900141D02*
X146598570Y-111042998D01*
X146598570Y-111042998D02*
X146455713Y-111185855D01*
X146455713Y-111185855D02*
X146312856Y-111042998D01*
X146312856Y-111042998D02*
X146455713Y-110900141D01*
X146455713Y-110900141D02*
X146455713Y-111185855D01*
X145169999Y-113757284D02*
X144884285Y-113900141D01*
X144884285Y-113900141D02*
X144312856Y-113900141D01*
X144312856Y-113900141D02*
X144027142Y-113757284D01*
X144027142Y-113757284D02*
X143884285Y-113471569D01*
X143884285Y-113471569D02*
X143884285Y-113328712D01*
X143884285Y-113328712D02*
X144027142Y-113042998D01*
X144027142Y-113042998D02*
X144312856Y-112900141D01*
X144312856Y-112900141D02*
X144741428Y-112900141D01*
X144741428Y-112900141D02*
X145027142Y-112757284D01*
X145027142Y-112757284D02*
X145169999Y-112471569D01*
X145169999Y-112471569D02*
X145169999Y-112328712D01*
X145169999Y-112328712D02*
X145027142Y-112042998D01*
X145027142Y-112042998D02*
X144741428Y-111900141D01*
X144741428Y-111900141D02*
X144312856Y-111900141D01*
X144312856Y-111900141D02*
X144027142Y-112042998D01*
X170027142Y-118587116D02*
X169741428Y-118729973D01*
X169741428Y-118729973D02*
X169169999Y-118729973D01*
X169169999Y-118729973D02*
X168884285Y-118587116D01*
X168884285Y-118587116D02*
X168741428Y-118301401D01*
X168741428Y-118301401D02*
X168741428Y-118158544D01*
X168741428Y-118158544D02*
X168884285Y-117872830D01*
X168884285Y-117872830D02*
X169169999Y-117729973D01*
X169169999Y-117729973D02*
X169598571Y-117729973D01*
X169598571Y-117729973D02*
X169884285Y-117587116D01*
X169884285Y-117587116D02*
X170027142Y-117301401D01*
X170027142Y-117301401D02*
X170027142Y-117158544D01*
X170027142Y-117158544D02*
X169884285Y-116872830D01*
X169884285Y-116872830D02*
X169598571Y-116729973D01*
X169598571Y-116729973D02*
X169169999Y-116729973D01*
X169169999Y-116729973D02*
X168884285Y-116872830D01*
X167455714Y-118729973D02*
X167455714Y-116729973D01*
X167455714Y-115729973D02*
X167598571Y-115872830D01*
X167598571Y-115872830D02*
X167455714Y-116015687D01*
X167455714Y-116015687D02*
X167312857Y-115872830D01*
X167312857Y-115872830D02*
X167455714Y-115729973D01*
X167455714Y-115729973D02*
X167455714Y-116015687D01*
X164741429Y-118729973D02*
X164741429Y-115729973D01*
X164741429Y-118587116D02*
X165027143Y-118729973D01*
X165027143Y-118729973D02*
X165598571Y-118729973D01*
X165598571Y-118729973D02*
X165884286Y-118587116D01*
X165884286Y-118587116D02*
X166027143Y-118444258D01*
X166027143Y-118444258D02*
X166170000Y-118158544D01*
X166170000Y-118158544D02*
X166170000Y-117301401D01*
X166170000Y-117301401D02*
X166027143Y-117015687D01*
X166027143Y-117015687D02*
X165884286Y-116872830D01*
X165884286Y-116872830D02*
X165598571Y-116729973D01*
X165598571Y-116729973D02*
X165027143Y-116729973D01*
X165027143Y-116729973D02*
X164741429Y-116872830D01*
X162170000Y-118587116D02*
X162455714Y-118729973D01*
X162455714Y-118729973D02*
X163027143Y-118729973D01*
X163027143Y-118729973D02*
X163312857Y-118587116D01*
X163312857Y-118587116D02*
X163455714Y-118301401D01*
X163455714Y-118301401D02*
X163455714Y-117158544D01*
X163455714Y-117158544D02*
X163312857Y-116872830D01*
X163312857Y-116872830D02*
X163027143Y-116729973D01*
X163027143Y-116729973D02*
X162455714Y-116729973D01*
X162455714Y-116729973D02*
X162170000Y-116872830D01*
X162170000Y-116872830D02*
X162027143Y-117158544D01*
X162027143Y-117158544D02*
X162027143Y-117444258D01*
X162027143Y-117444258D02*
X163455714Y-117729973D01*
X158741428Y-116729973D02*
X158170000Y-118729973D01*
X158170000Y-118729973D02*
X157598571Y-117301401D01*
X157598571Y-117301401D02*
X157027142Y-118729973D01*
X157027142Y-118729973D02*
X156455714Y-116729973D01*
X155312857Y-118729973D02*
X155312857Y-116729973D01*
X155312857Y-115729973D02*
X155455714Y-115872830D01*
X155455714Y-115872830D02*
X155312857Y-116015687D01*
X155312857Y-116015687D02*
X155170000Y-115872830D01*
X155170000Y-115872830D02*
X155312857Y-115729973D01*
X155312857Y-115729973D02*
X155312857Y-116015687D01*
X154312857Y-116729973D02*
X153170000Y-116729973D01*
X153884286Y-115729973D02*
X153884286Y-118301401D01*
X153884286Y-118301401D02*
X153741429Y-118587116D01*
X153741429Y-118587116D02*
X153455714Y-118729973D01*
X153455714Y-118729973D02*
X153170000Y-118729973D01*
X152170000Y-118729973D02*
X152170000Y-115729973D01*
X150884286Y-118729973D02*
X150884286Y-117158544D01*
X150884286Y-117158544D02*
X151027143Y-116872830D01*
X151027143Y-116872830D02*
X151312857Y-116729973D01*
X151312857Y-116729973D02*
X151741428Y-116729973D01*
X151741428Y-116729973D02*
X152027143Y-116872830D01*
X152027143Y-116872830D02*
X152170000Y-117015687D01*
X147598571Y-116729973D02*
X146455714Y-116729973D01*
X147170000Y-115729973D02*
X147170000Y-118301401D01*
X147170000Y-118301401D02*
X147027143Y-118587116D01*
X147027143Y-118587116D02*
X146741428Y-118729973D01*
X146741428Y-118729973D02*
X146455714Y-118729973D01*
X144170000Y-118729973D02*
X144170000Y-117158544D01*
X144170000Y-117158544D02*
X144312857Y-116872830D01*
X144312857Y-116872830D02*
X144598571Y-116729973D01*
X144598571Y-116729973D02*
X145170000Y-116729973D01*
X145170000Y-116729973D02*
X145455714Y-116872830D01*
X144170000Y-118587116D02*
X144455714Y-118729973D01*
X144455714Y-118729973D02*
X145170000Y-118729973D01*
X145170000Y-118729973D02*
X145455714Y-118587116D01*
X145455714Y-118587116D02*
X145598571Y-118301401D01*
X145598571Y-118301401D02*
X145598571Y-118015687D01*
X145598571Y-118015687D02*
X145455714Y-117729973D01*
X145455714Y-117729973D02*
X145170000Y-117587116D01*
X145170000Y-117587116D02*
X144455714Y-117587116D01*
X144455714Y-117587116D02*
X144170000Y-117444258D01*
X142741428Y-116729973D02*
X142741428Y-119729973D01*
X142741428Y-116872830D02*
X142455714Y-116729973D01*
X142455714Y-116729973D02*
X141884285Y-116729973D01*
X141884285Y-116729973D02*
X141598571Y-116872830D01*
X141598571Y-116872830D02*
X141455714Y-117015687D01*
X141455714Y-117015687D02*
X141312856Y-117301401D01*
X141312856Y-117301401D02*
X141312856Y-118158544D01*
X141312856Y-118158544D02*
X141455714Y-118444258D01*
X141455714Y-118444258D02*
X141598571Y-118587116D01*
X141598571Y-118587116D02*
X141884285Y-118729973D01*
X141884285Y-118729973D02*
X142455714Y-118729973D01*
X142455714Y-118729973D02*
X142741428Y-118587116D01*
X138884285Y-118587116D02*
X139169999Y-118729973D01*
X139169999Y-118729973D02*
X139741428Y-118729973D01*
X139741428Y-118729973D02*
X140027142Y-118587116D01*
X140027142Y-118587116D02*
X140169999Y-118301401D01*
X140169999Y-118301401D02*
X140169999Y-117158544D01*
X140169999Y-117158544D02*
X140027142Y-116872830D01*
X140027142Y-116872830D02*
X139741428Y-116729973D01*
X139741428Y-116729973D02*
X139169999Y-116729973D01*
X139169999Y-116729973D02*
X138884285Y-116872830D01*
X138884285Y-116872830D02*
X138741428Y-117158544D01*
X138741428Y-117158544D02*
X138741428Y-117444258D01*
X138741428Y-117444258D02*
X140169999Y-117729973D01*
X137455713Y-118444258D02*
X137312856Y-118587116D01*
X137312856Y-118587116D02*
X137455713Y-118729973D01*
X137455713Y-118729973D02*
X137598570Y-118587116D01*
X137598570Y-118587116D02*
X137455713Y-118444258D01*
X137455713Y-118444258D02*
X137455713Y-118729973D01*
X137455713Y-117587116D02*
X137598570Y-115872830D01*
X137598570Y-115872830D02*
X137455713Y-115729973D01*
X137455713Y-115729973D02*
X137312856Y-115872830D01*
X137312856Y-115872830D02*
X137455713Y-117587116D01*
X137455713Y-117587116D02*
X137455713Y-115729973D01*
D11*
%TO.C,X1*%
X168275000Y-106680000D03*
X168275000Y-99060000D03*
X160655000Y-99060000D03*
D12*
X160655000Y-106680000D03*
%TD*%
D13*
%TO.C,R1*%
X141845000Y-94525000D03*
D11*
X152005000Y-94525000D03*
%TD*%
M02*
