%TF.GenerationSoftware,KiCad,Pcbnew,8.0.3*%
%TF.CreationDate,2024-12-07T17:37:54-06:00*%
%TF.ProjectId,XVI Overclock,58564920-4f76-4657-9263-6c6f636b2e6b,rev?*%
%TF.SameCoordinates,Original*%
%TF.FileFunction,Copper,L2,Bot*%
%TF.FilePolarity,Positive*%
%FSLAX46Y46*%
G04 Gerber Fmt 4.6, Leading zero omitted, Abs format (unit mm)*
G04 Created by KiCad (PCBNEW 8.0.3) date 2024-12-07 17:37:54*
%MOMM*%
%LPD*%
G01*
G04 APERTURE LIST*
%TA.AperFunction,ComponentPad*%
%ADD10C,1.600000*%
%TD*%
%TA.AperFunction,ComponentPad*%
%ADD11R,1.600000X1.600000*%
%TD*%
%TA.AperFunction,ComponentPad*%
%ADD12O,1.600000X1.600000*%
%TD*%
%TA.AperFunction,ViaPad*%
%ADD13C,0.500000*%
%TD*%
%TA.AperFunction,ViaPad*%
%ADD14C,0.800000*%
%TD*%
%TA.AperFunction,Conductor*%
%ADD15C,0.750000*%
%TD*%
%TA.AperFunction,Conductor*%
%ADD16C,0.250000*%
%TD*%
G04 APERTURE END LIST*
D10*
%TO.P,X1,4*%
%TO.N,/B*%
X168275000Y-106680000D03*
%TO.P,X1,5*%
%TO.N,Net-(IC1-Pad10)*%
X168275000Y-99060000D03*
%TO.P,X1,8*%
%TO.N,/A*%
X160655000Y-99060000D03*
D11*
%TO.P,X1,1*%
%TO.N,Net-(X1-Pad1)*%
X160655000Y-106680000D03*
%TD*%
D12*
%TO.P,R1,2*%
%TO.N,/A*%
X141845000Y-94525000D03*
D10*
%TO.P,R1,1*%
%TO.N,Net-(IC1-Pad1)*%
X152005000Y-94525000D03*
%TD*%
D13*
%TO.N,/A*%
X138520000Y-94525000D03*
D14*
%TO.N,/C*%
X136575000Y-106575000D03*
%TO.N,/A*%
X151130000Y-97790000D03*
%TO.N,/B*%
X155575000Y-104140000D03*
%TO.N,/C*%
X148590000Y-105410000D03*
%TO.N,/B*%
X142240000Y-107950000D03*
%TO.N,Net-(IC1-Pad1)*%
X140335000Y-106680000D03*
%TD*%
D15*
%TO.N,/A*%
X151130000Y-97790000D02*
X141785000Y-97790000D01*
X141785000Y-97790000D02*
X138520000Y-94525000D01*
%TO.N,/C*%
X139010000Y-104140000D02*
X147320000Y-104140000D01*
X136575000Y-106575000D02*
X139010000Y-104140000D01*
D16*
%TO.N,/A*%
X151130000Y-97790000D02*
X151130000Y-97790000D01*
%TO.N,/B*%
X155575000Y-110490000D02*
X155575000Y-110490000D01*
D15*
X151130000Y-114935000D02*
X155575000Y-110490000D01*
X159480002Y-110490000D02*
X155575000Y-110490000D01*
X163290002Y-106680000D02*
X159480002Y-110490000D01*
X168275000Y-106680000D02*
X163290002Y-106680000D01*
X155575000Y-104140000D02*
X155575000Y-110490000D01*
%TO.N,/C*%
X147320000Y-104140000D02*
X148590000Y-105410000D01*
%TO.N,/B*%
X142240000Y-114935000D02*
X142240000Y-107950000D01*
X133985000Y-114935000D02*
X142240000Y-114935000D01*
X142240000Y-114935000D02*
X151130000Y-114935000D01*
X142240000Y-107950000D02*
X142240000Y-107950000D01*
%TO.N,Net-(IC1-Pad1)*%
X134620000Y-112395000D02*
X140335000Y-106680000D01*
X133985000Y-112395000D02*
X134620000Y-112395000D01*
%TD*%
%TA.AperFunction,Conductor*%
%TO.N,/B*%
G36*
X173272539Y-86405185D02*
G01*
X173318294Y-86457989D01*
X173329500Y-86509500D01*
X173329500Y-120500500D01*
X173309815Y-120567539D01*
X173257011Y-120613294D01*
X173205500Y-120624500D01*
X130324500Y-120624500D01*
X130257461Y-120604815D01*
X130211706Y-120552011D01*
X130200500Y-120500500D01*
X130200500Y-112307978D01*
X133101500Y-112307978D01*
X133101500Y-112482021D01*
X133135450Y-112652699D01*
X133135453Y-112652711D01*
X133202049Y-112813489D01*
X133202050Y-112813491D01*
X133298740Y-112958197D01*
X133298743Y-112958201D01*
X133421798Y-113081256D01*
X133421802Y-113081259D01*
X133566506Y-113177948D01*
X133566507Y-113177948D01*
X133566508Y-113177949D01*
X133566510Y-113177950D01*
X133727288Y-113244546D01*
X133727293Y-113244548D01*
X133897978Y-113278499D01*
X133897982Y-113278500D01*
X133897983Y-113278500D01*
X134707018Y-113278500D01*
X134707019Y-113278499D01*
X134877708Y-113244548D01*
X135038495Y-113177948D01*
X135183199Y-113081259D01*
X140790660Y-107473795D01*
X140805434Y-107461176D01*
X140946253Y-107358866D01*
X141074040Y-107216944D01*
X141169527Y-107051556D01*
X141228542Y-106869928D01*
X141248504Y-106680000D01*
X141228542Y-106490072D01*
X141169527Y-106308444D01*
X141074040Y-106143056D01*
X140946253Y-106001134D01*
X140791752Y-105888882D01*
X140617288Y-105811206D01*
X140617286Y-105811205D01*
X140430487Y-105771500D01*
X140239513Y-105771500D01*
X140052714Y-105811205D01*
X140052712Y-105811206D01*
X139888805Y-105884182D01*
X139878246Y-105888883D01*
X139723745Y-106001135D01*
X139595962Y-106143053D01*
X139595961Y-106143054D01*
X139595960Y-106143056D01*
X139582220Y-106166853D01*
X139567883Y-106191685D01*
X139548178Y-106217363D01*
X134290361Y-111475181D01*
X134229038Y-111508666D01*
X134202680Y-111511500D01*
X133897978Y-111511500D01*
X133727300Y-111545450D01*
X133727288Y-111545453D01*
X133566510Y-111612049D01*
X133566508Y-111612050D01*
X133421802Y-111708740D01*
X133421798Y-111708743D01*
X133298743Y-111831798D01*
X133298740Y-111831802D01*
X133202050Y-111976508D01*
X133202049Y-111976510D01*
X133135453Y-112137288D01*
X133135450Y-112137300D01*
X133101500Y-112307978D01*
X130200500Y-112307978D01*
X130200500Y-106575000D01*
X135661496Y-106575000D01*
X135681458Y-106764928D01*
X135681459Y-106764931D01*
X135740470Y-106946549D01*
X135740473Y-106946556D01*
X135835960Y-107111944D01*
X135963747Y-107253866D01*
X136118248Y-107366118D01*
X136292712Y-107443794D01*
X136479513Y-107483500D01*
X136670487Y-107483500D01*
X136857288Y-107443794D01*
X137031752Y-107366118D01*
X137186253Y-107253866D01*
X137301099Y-107126317D01*
X137314036Y-107111949D01*
X137314036Y-107111947D01*
X137314040Y-107111944D01*
X137342116Y-107063312D01*
X137361815Y-107037641D01*
X139339639Y-105059819D01*
X139400962Y-105026334D01*
X139427320Y-105023500D01*
X146902680Y-105023500D01*
X146969719Y-105043185D01*
X146990361Y-105059819D01*
X147803180Y-105872638D01*
X147822886Y-105898319D01*
X147850960Y-105946944D01*
X147978747Y-106088866D01*
X148133248Y-106201118D01*
X148307712Y-106278794D01*
X148494513Y-106318500D01*
X148685487Y-106318500D01*
X148872288Y-106278794D01*
X149046752Y-106201118D01*
X149201253Y-106088866D01*
X149329040Y-105946944D01*
X149395781Y-105831345D01*
X159346500Y-105831345D01*
X159346500Y-107528654D01*
X159353011Y-107589202D01*
X159353011Y-107589204D01*
X159404111Y-107726204D01*
X159491739Y-107843261D01*
X159608796Y-107930889D01*
X159745799Y-107981989D01*
X159773050Y-107984918D01*
X159806345Y-107988499D01*
X159806362Y-107988500D01*
X161503638Y-107988500D01*
X161503654Y-107988499D01*
X161530692Y-107985591D01*
X161564201Y-107981989D01*
X161701204Y-107930889D01*
X161818261Y-107843261D01*
X161905889Y-107726204D01*
X161956989Y-107589201D01*
X161960591Y-107555692D01*
X161963499Y-107528654D01*
X161963500Y-107528637D01*
X161963500Y-106679997D01*
X166970034Y-106679997D01*
X166970034Y-106680002D01*
X166989858Y-106906599D01*
X166989860Y-106906610D01*
X167048730Y-107126317D01*
X167048735Y-107126331D01*
X167144863Y-107332478D01*
X167195974Y-107405472D01*
X167875000Y-106726446D01*
X167875000Y-106732661D01*
X167902259Y-106834394D01*
X167954920Y-106925606D01*
X168029394Y-107000080D01*
X168120606Y-107052741D01*
X168222339Y-107080000D01*
X168228553Y-107080000D01*
X167549526Y-107759025D01*
X167622513Y-107810132D01*
X167622521Y-107810136D01*
X167828668Y-107906264D01*
X167828682Y-107906269D01*
X168048389Y-107965139D01*
X168048400Y-107965141D01*
X168274998Y-107984966D01*
X168275002Y-107984966D01*
X168501599Y-107965141D01*
X168501610Y-107965139D01*
X168721317Y-107906269D01*
X168721331Y-107906264D01*
X168927478Y-107810136D01*
X169000471Y-107759024D01*
X168321447Y-107080000D01*
X168327661Y-107080000D01*
X168429394Y-107052741D01*
X168520606Y-107000080D01*
X168595080Y-106925606D01*
X168647741Y-106834394D01*
X168675000Y-106732661D01*
X168675000Y-106726447D01*
X169354024Y-107405471D01*
X169405136Y-107332478D01*
X169501264Y-107126331D01*
X169501269Y-107126317D01*
X169560139Y-106906610D01*
X169560141Y-106906599D01*
X169579966Y-106680002D01*
X169579966Y-106679997D01*
X169560141Y-106453400D01*
X169560139Y-106453389D01*
X169501269Y-106233682D01*
X169501264Y-106233668D01*
X169405136Y-106027521D01*
X169405132Y-106027513D01*
X169354025Y-105954526D01*
X168675000Y-106633551D01*
X168675000Y-106627339D01*
X168647741Y-106525606D01*
X168595080Y-106434394D01*
X168520606Y-106359920D01*
X168429394Y-106307259D01*
X168327661Y-106280000D01*
X168321448Y-106280000D01*
X169000472Y-105600974D01*
X168927478Y-105549863D01*
X168721331Y-105453735D01*
X168721317Y-105453730D01*
X168501610Y-105394860D01*
X168501599Y-105394858D01*
X168275002Y-105375034D01*
X168274998Y-105375034D01*
X168048400Y-105394858D01*
X168048389Y-105394860D01*
X167828682Y-105453730D01*
X167828673Y-105453734D01*
X167622516Y-105549866D01*
X167622512Y-105549868D01*
X167549526Y-105600973D01*
X167549526Y-105600974D01*
X168228553Y-106280000D01*
X168222339Y-106280000D01*
X168120606Y-106307259D01*
X168029394Y-106359920D01*
X167954920Y-106434394D01*
X167902259Y-106525606D01*
X167875000Y-106627339D01*
X167875000Y-106633552D01*
X167195974Y-105954526D01*
X167195973Y-105954526D01*
X167144868Y-106027512D01*
X167144866Y-106027516D01*
X167048734Y-106233673D01*
X167048730Y-106233682D01*
X166989860Y-106453389D01*
X166989858Y-106453400D01*
X166970034Y-106679997D01*
X161963500Y-106679997D01*
X161963500Y-105831362D01*
X161963499Y-105831345D01*
X161958145Y-105781556D01*
X161956989Y-105770799D01*
X161905889Y-105633796D01*
X161818261Y-105516739D01*
X161701204Y-105429111D01*
X161564203Y-105378011D01*
X161503654Y-105371500D01*
X161503638Y-105371500D01*
X159806362Y-105371500D01*
X159806345Y-105371500D01*
X159745797Y-105378011D01*
X159745795Y-105378011D01*
X159608795Y-105429111D01*
X159491739Y-105516739D01*
X159404111Y-105633795D01*
X159353011Y-105770795D01*
X159353011Y-105770797D01*
X159346500Y-105831345D01*
X149395781Y-105831345D01*
X149424527Y-105781556D01*
X149483542Y-105599928D01*
X149503504Y-105410000D01*
X149483542Y-105220072D01*
X149424527Y-105038444D01*
X149329040Y-104873056D01*
X149201253Y-104731134D01*
X149060450Y-104628834D01*
X149045655Y-104616197D01*
X147883202Y-103453743D01*
X147883198Y-103453740D01*
X147738492Y-103357050D01*
X147738490Y-103357049D01*
X147577712Y-103290453D01*
X147577700Y-103290450D01*
X147407021Y-103256500D01*
X147407017Y-103256500D01*
X139097017Y-103256500D01*
X138922983Y-103256500D01*
X138922978Y-103256500D01*
X138752299Y-103290450D01*
X138752287Y-103290453D01*
X138591509Y-103357049D01*
X138591507Y-103357050D01*
X138446801Y-103453740D01*
X138446797Y-103453743D01*
X136119343Y-105781197D01*
X136104549Y-105793833D01*
X135963746Y-105896134D01*
X135835959Y-106038057D01*
X135740473Y-106203443D01*
X135740470Y-106203450D01*
X135689630Y-106359920D01*
X135681458Y-106385072D01*
X135661496Y-106575000D01*
X130200500Y-106575000D01*
X130200500Y-99059998D01*
X159341502Y-99059998D01*
X159341502Y-99060001D01*
X159361456Y-99288081D01*
X159361457Y-99288089D01*
X159420714Y-99509238D01*
X159420718Y-99509249D01*
X159517475Y-99716745D01*
X159517477Y-99716749D01*
X159648802Y-99904300D01*
X159810700Y-100066198D01*
X159998251Y-100197523D01*
X160123091Y-100255736D01*
X160205750Y-100294281D01*
X160205752Y-100294281D01*
X160205757Y-100294284D01*
X160426913Y-100353543D01*
X160589832Y-100367796D01*
X160654998Y-100373498D01*
X160655000Y-100373498D01*
X160655002Y-100373498D01*
X160712021Y-100368509D01*
X160883087Y-100353543D01*
X161104243Y-100294284D01*
X161311749Y-100197523D01*
X161499300Y-100066198D01*
X161661198Y-99904300D01*
X161792523Y-99716749D01*
X161889284Y-99509243D01*
X161948543Y-99288087D01*
X161968498Y-99060000D01*
X161968498Y-99059998D01*
X166961502Y-99059998D01*
X166961502Y-99060001D01*
X166981456Y-99288081D01*
X166981457Y-99288089D01*
X167040714Y-99509238D01*
X167040718Y-99509249D01*
X167137475Y-99716745D01*
X167137477Y-99716749D01*
X167268802Y-99904300D01*
X167430700Y-100066198D01*
X167618251Y-100197523D01*
X167743091Y-100255736D01*
X167825750Y-100294281D01*
X167825752Y-100294281D01*
X167825757Y-100294284D01*
X168046913Y-100353543D01*
X168209832Y-100367796D01*
X168274998Y-100373498D01*
X168275000Y-100373498D01*
X168275002Y-100373498D01*
X168332021Y-100368509D01*
X168503087Y-100353543D01*
X168724243Y-100294284D01*
X168931749Y-100197523D01*
X169119300Y-100066198D01*
X169281198Y-99904300D01*
X169412523Y-99716749D01*
X169509284Y-99509243D01*
X169568543Y-99288087D01*
X169588498Y-99060000D01*
X169568543Y-98831913D01*
X169509284Y-98610757D01*
X169491653Y-98572948D01*
X169446566Y-98476257D01*
X169412523Y-98403251D01*
X169281198Y-98215700D01*
X169119300Y-98053802D01*
X168931749Y-97922477D01*
X168931745Y-97922475D01*
X168724249Y-97825718D01*
X168724238Y-97825714D01*
X168503089Y-97766457D01*
X168503081Y-97766456D01*
X168275002Y-97746502D01*
X168274998Y-97746502D01*
X168046918Y-97766456D01*
X168046910Y-97766457D01*
X167825761Y-97825714D01*
X167825750Y-97825718D01*
X167618254Y-97922475D01*
X167618252Y-97922476D01*
X167618251Y-97922477D01*
X167430700Y-98053802D01*
X167430698Y-98053803D01*
X167430695Y-98053806D01*
X167268806Y-98215695D01*
X167137476Y-98403252D01*
X167137475Y-98403254D01*
X167040718Y-98610750D01*
X167040716Y-98610757D01*
X166981457Y-98831910D01*
X166981456Y-98831918D01*
X166961502Y-99059998D01*
X161968498Y-99059998D01*
X161948543Y-98831913D01*
X161889284Y-98610757D01*
X161871653Y-98572948D01*
X161826566Y-98476257D01*
X161792523Y-98403251D01*
X161661198Y-98215700D01*
X161499300Y-98053802D01*
X161311749Y-97922477D01*
X161311745Y-97922475D01*
X161104249Y-97825718D01*
X161104238Y-97825714D01*
X160883089Y-97766457D01*
X160883081Y-97766456D01*
X160655002Y-97746502D01*
X160654998Y-97746502D01*
X160426918Y-97766456D01*
X160426910Y-97766457D01*
X160205761Y-97825714D01*
X160205750Y-97825718D01*
X159998254Y-97922475D01*
X159998252Y-97922476D01*
X159998251Y-97922477D01*
X159810700Y-98053802D01*
X159810698Y-98053803D01*
X159810695Y-98053806D01*
X159648806Y-98215695D01*
X159517476Y-98403252D01*
X159517475Y-98403254D01*
X159420718Y-98610750D01*
X159420716Y-98610757D01*
X159361457Y-98831910D01*
X159361456Y-98831918D01*
X159341502Y-99059998D01*
X130200500Y-99059998D01*
X130200500Y-94437978D01*
X137636500Y-94437978D01*
X137636500Y-94612021D01*
X137670450Y-94782700D01*
X137670453Y-94782712D01*
X137737049Y-94943490D01*
X137737050Y-94943492D01*
X137833740Y-95088198D01*
X137833743Y-95088202D01*
X141221798Y-98476257D01*
X141221801Y-98476259D01*
X141318488Y-98540863D01*
X141318491Y-98540866D01*
X141366503Y-98572946D01*
X141366506Y-98572948D01*
X141457785Y-98610757D01*
X141527292Y-98639548D01*
X141555611Y-98645180D01*
X141555615Y-98645180D01*
X141555616Y-98645181D01*
X141697980Y-98673500D01*
X141697983Y-98673500D01*
X150903866Y-98673500D01*
X150929647Y-98676210D01*
X151034513Y-98698500D01*
X151225487Y-98698500D01*
X151412288Y-98658794D01*
X151586752Y-98581118D01*
X151741253Y-98468866D01*
X151869040Y-98326944D01*
X151964527Y-98161556D01*
X152023542Y-97979928D01*
X152043504Y-97790000D01*
X152023542Y-97600072D01*
X151964527Y-97418444D01*
X151869040Y-97253056D01*
X151741253Y-97111134D01*
X151586752Y-96998882D01*
X151412288Y-96921206D01*
X151412286Y-96921205D01*
X151225487Y-96881500D01*
X151034513Y-96881500D01*
X150929647Y-96903790D01*
X150903866Y-96906500D01*
X142202320Y-96906500D01*
X142135281Y-96886815D01*
X142114639Y-96870181D01*
X141158488Y-95914030D01*
X141125003Y-95852707D01*
X141129987Y-95783015D01*
X141171859Y-95727082D01*
X141237323Y-95702665D01*
X141298573Y-95713967D01*
X141395750Y-95759281D01*
X141395752Y-95759281D01*
X141395757Y-95759284D01*
X141616913Y-95818543D01*
X141779832Y-95832796D01*
X141844998Y-95838498D01*
X141845000Y-95838498D01*
X141845002Y-95838498D01*
X141902021Y-95833509D01*
X142073087Y-95818543D01*
X142294243Y-95759284D01*
X142501749Y-95662523D01*
X142689300Y-95531198D01*
X142851198Y-95369300D01*
X142982523Y-95181749D01*
X143079284Y-94974243D01*
X143138543Y-94753087D01*
X143158498Y-94525000D01*
X143158498Y-94524998D01*
X150691502Y-94524998D01*
X150691502Y-94525001D01*
X150711456Y-94753081D01*
X150711457Y-94753089D01*
X150770714Y-94974238D01*
X150770718Y-94974249D01*
X150848244Y-95140504D01*
X150867477Y-95181749D01*
X150998802Y-95369300D01*
X151160700Y-95531198D01*
X151348251Y-95662523D01*
X151458574Y-95713967D01*
X151555750Y-95759281D01*
X151555752Y-95759281D01*
X151555757Y-95759284D01*
X151776913Y-95818543D01*
X151939832Y-95832796D01*
X152004998Y-95838498D01*
X152005000Y-95838498D01*
X152005002Y-95838498D01*
X152062021Y-95833509D01*
X152233087Y-95818543D01*
X152454243Y-95759284D01*
X152661749Y-95662523D01*
X152849300Y-95531198D01*
X153011198Y-95369300D01*
X153142523Y-95181749D01*
X153239284Y-94974243D01*
X153298543Y-94753087D01*
X153318498Y-94525000D01*
X153298543Y-94296913D01*
X153239284Y-94075757D01*
X153142523Y-93868251D01*
X153011198Y-93680700D01*
X152849300Y-93518802D01*
X152661749Y-93387477D01*
X152661745Y-93387475D01*
X152454249Y-93290718D01*
X152454238Y-93290714D01*
X152233089Y-93231457D01*
X152233081Y-93231456D01*
X152005002Y-93211502D01*
X152004998Y-93211502D01*
X151776918Y-93231456D01*
X151776910Y-93231457D01*
X151555761Y-93290714D01*
X151555750Y-93290718D01*
X151348254Y-93387475D01*
X151348252Y-93387476D01*
X151348251Y-93387477D01*
X151160700Y-93518802D01*
X151160698Y-93518803D01*
X151160695Y-93518806D01*
X150998806Y-93680695D01*
X150867476Y-93868252D01*
X150867475Y-93868254D01*
X150770718Y-94075750D01*
X150770714Y-94075761D01*
X150711457Y-94296910D01*
X150711456Y-94296918D01*
X150691502Y-94524998D01*
X143158498Y-94524998D01*
X143138543Y-94296913D01*
X143079284Y-94075757D01*
X142982523Y-93868251D01*
X142851198Y-93680700D01*
X142689300Y-93518802D01*
X142501749Y-93387477D01*
X142501745Y-93387475D01*
X142294249Y-93290718D01*
X142294238Y-93290714D01*
X142073089Y-93231457D01*
X142073081Y-93231456D01*
X141845002Y-93211502D01*
X141844998Y-93211502D01*
X141616918Y-93231456D01*
X141616910Y-93231457D01*
X141395761Y-93290714D01*
X141395750Y-93290718D01*
X141188254Y-93387475D01*
X141188252Y-93387476D01*
X141188251Y-93387477D01*
X141000700Y-93518802D01*
X141000698Y-93518803D01*
X141000695Y-93518806D01*
X140838806Y-93680695D01*
X140707476Y-93868252D01*
X140707475Y-93868254D01*
X140610718Y-94075750D01*
X140610714Y-94075761D01*
X140551457Y-94296910D01*
X140551456Y-94296918D01*
X140531502Y-94524998D01*
X140531502Y-94525001D01*
X140551456Y-94753081D01*
X140551457Y-94753089D01*
X140610714Y-94974238D01*
X140610715Y-94974240D01*
X140656033Y-95071426D01*
X140666524Y-95140504D01*
X140638004Y-95204287D01*
X140579527Y-95242526D01*
X140509659Y-95243080D01*
X140455969Y-95211511D01*
X139083202Y-93838743D01*
X139083198Y-93838740D01*
X138938492Y-93742050D01*
X138938490Y-93742049D01*
X138777712Y-93675453D01*
X138777700Y-93675450D01*
X138607021Y-93641500D01*
X138607017Y-93641500D01*
X138432983Y-93641500D01*
X138432978Y-93641500D01*
X138262299Y-93675450D01*
X138262287Y-93675453D01*
X138101509Y-93742049D01*
X138101507Y-93742050D01*
X137956801Y-93838740D01*
X137956797Y-93838743D01*
X137833743Y-93961797D01*
X137833740Y-93961801D01*
X137737050Y-94106507D01*
X137737049Y-94106509D01*
X137670453Y-94267287D01*
X137670450Y-94267299D01*
X137636500Y-94437978D01*
X130200500Y-94437978D01*
X130200500Y-86509500D01*
X130220185Y-86442461D01*
X130272989Y-86396706D01*
X130324500Y-86385500D01*
X173205500Y-86385500D01*
X173272539Y-86405185D01*
G37*
%TD.AperFunction*%
%TD*%
M02*
