%TF.GenerationSoftware,KiCad,Pcbnew,8.0.3*%
%TF.CreationDate,2024-12-07T17:37:52-06:00*%
%TF.ProjectId,XVI Overclock,58564920-4f76-4657-9263-6c6f636b2e6b,rev?*%
%TF.SameCoordinates,Original*%
%TF.FileFunction,Drillmap*%
%TF.FilePolarity,Positive*%
%FSLAX45Y45*%
G04 Gerber Fmt 4.5, Leading zero omitted, Abs format (unit mm)*
G04 Created by KiCad (PCBNEW 8.0.3) date 2024-12-07 17:37:52*
%MOMM*%
%LPD*%
G01*
G04 APERTURE LIST*
%ADD10C,0.050000*%
%ADD11C,0.200000*%
%ADD12C,0.100000*%
G04 APERTURE END LIST*
D10*
X17335500Y-12065000D02*
X17335500Y-11430000D01*
X13017500Y-12065000D02*
X17335500Y-12065000D01*
X13017500Y-8636000D02*
X13017500Y-12065000D01*
X17335500Y-8636000D02*
X13017500Y-8636000D01*
X17335500Y-11430000D02*
X17335500Y-8636000D01*
D11*
D12*
X13837000Y-9437500D02*
X13867000Y-9467500D01*
X13867000Y-9437500D02*
X13837000Y-9467500D01*
X13677500Y-10657500D02*
G75*
G02*
X13637500Y-10657500I-20000J0D01*
G01*
X13637500Y-10657500D02*
G75*
G02*
X13677500Y-10657500I20000J0D01*
G01*
X14053500Y-10668000D02*
G75*
G02*
X14013500Y-10668000I-20000J0D01*
G01*
X14013500Y-10668000D02*
G75*
G02*
X14053500Y-10668000I20000J0D01*
G01*
X14244000Y-10795000D02*
G75*
G02*
X14204000Y-10795000I-20000J0D01*
G01*
X14204000Y-10795000D02*
G75*
G02*
X14244000Y-10795000I20000J0D01*
G01*
X14879000Y-10541000D02*
G75*
G02*
X14839000Y-10541000I-20000J0D01*
G01*
X14839000Y-10541000D02*
G75*
G02*
X14879000Y-10541000I20000J0D01*
G01*
X15133000Y-9779000D02*
G75*
G02*
X15093000Y-9779000I-20000J0D01*
G01*
X15093000Y-9779000D02*
G75*
G02*
X15133000Y-9779000I20000J0D01*
G01*
X15577500Y-10414000D02*
G75*
G02*
X15537500Y-10414000I-20000J0D01*
G01*
X15537500Y-10414000D02*
G75*
G02*
X15577500Y-10414000I20000J0D01*
G01*
X14184500Y-9412500D02*
X14184500Y-9492500D01*
X14144500Y-9452500D02*
X14224500Y-9452500D01*
X15200500Y-9412500D02*
X15200500Y-9492500D01*
X15160500Y-9452500D02*
X15240500Y-9452500D01*
X16065500Y-9866000D02*
X16065500Y-9946000D01*
X16025500Y-9906000D02*
X16105500Y-9906000D01*
X16065500Y-10628000D02*
X16065500Y-10708000D01*
X16025500Y-10668000D02*
X16105500Y-10668000D01*
X16827500Y-9866000D02*
X16827500Y-9946000D01*
X16787500Y-9906000D02*
X16867500Y-9906000D01*
X16827500Y-10628000D02*
X16827500Y-10708000D01*
X16787500Y-10668000D02*
X16867500Y-10668000D01*
D11*
X13275777Y-12378984D02*
X13275777Y-12178984D01*
X13275777Y-12178984D02*
X13323396Y-12178984D01*
X13323396Y-12178984D02*
X13351967Y-12188508D01*
X13351967Y-12188508D02*
X13371015Y-12207555D01*
X13371015Y-12207555D02*
X13380539Y-12226603D01*
X13380539Y-12226603D02*
X13390062Y-12264698D01*
X13390062Y-12264698D02*
X13390062Y-12293269D01*
X13390062Y-12293269D02*
X13380539Y-12331365D01*
X13380539Y-12331365D02*
X13371015Y-12350412D01*
X13371015Y-12350412D02*
X13351967Y-12369460D01*
X13351967Y-12369460D02*
X13323396Y-12378984D01*
X13323396Y-12378984D02*
X13275777Y-12378984D01*
X13475777Y-12378984D02*
X13475777Y-12245650D01*
X13475777Y-12283746D02*
X13485301Y-12264698D01*
X13485301Y-12264698D02*
X13494824Y-12255174D01*
X13494824Y-12255174D02*
X13513872Y-12245650D01*
X13513872Y-12245650D02*
X13532920Y-12245650D01*
X13599586Y-12378984D02*
X13599586Y-12245650D01*
X13599586Y-12178984D02*
X13590062Y-12188508D01*
X13590062Y-12188508D02*
X13599586Y-12198031D01*
X13599586Y-12198031D02*
X13609110Y-12188508D01*
X13609110Y-12188508D02*
X13599586Y-12178984D01*
X13599586Y-12178984D02*
X13599586Y-12198031D01*
X13723396Y-12378984D02*
X13704348Y-12369460D01*
X13704348Y-12369460D02*
X13694824Y-12350412D01*
X13694824Y-12350412D02*
X13694824Y-12178984D01*
X13828158Y-12378984D02*
X13809110Y-12369460D01*
X13809110Y-12369460D02*
X13799586Y-12350412D01*
X13799586Y-12350412D02*
X13799586Y-12178984D01*
X14056729Y-12378984D02*
X14056729Y-12178984D01*
X14056729Y-12178984D02*
X14123396Y-12321841D01*
X14123396Y-12321841D02*
X14190062Y-12178984D01*
X14190062Y-12178984D02*
X14190062Y-12378984D01*
X14371015Y-12378984D02*
X14371015Y-12274222D01*
X14371015Y-12274222D02*
X14361491Y-12255174D01*
X14361491Y-12255174D02*
X14342443Y-12245650D01*
X14342443Y-12245650D02*
X14304348Y-12245650D01*
X14304348Y-12245650D02*
X14285301Y-12255174D01*
X14371015Y-12369460D02*
X14351967Y-12378984D01*
X14351967Y-12378984D02*
X14304348Y-12378984D01*
X14304348Y-12378984D02*
X14285301Y-12369460D01*
X14285301Y-12369460D02*
X14275777Y-12350412D01*
X14275777Y-12350412D02*
X14275777Y-12331365D01*
X14275777Y-12331365D02*
X14285301Y-12312317D01*
X14285301Y-12312317D02*
X14304348Y-12302793D01*
X14304348Y-12302793D02*
X14351967Y-12302793D01*
X14351967Y-12302793D02*
X14371015Y-12293269D01*
X14466253Y-12245650D02*
X14466253Y-12445650D01*
X14466253Y-12255174D02*
X14485301Y-12245650D01*
X14485301Y-12245650D02*
X14523396Y-12245650D01*
X14523396Y-12245650D02*
X14542443Y-12255174D01*
X14542443Y-12255174D02*
X14551967Y-12264698D01*
X14551967Y-12264698D02*
X14561491Y-12283746D01*
X14561491Y-12283746D02*
X14561491Y-12340888D01*
X14561491Y-12340888D02*
X14551967Y-12359936D01*
X14551967Y-12359936D02*
X14542443Y-12369460D01*
X14542443Y-12369460D02*
X14523396Y-12378984D01*
X14523396Y-12378984D02*
X14485301Y-12378984D01*
X14485301Y-12378984D02*
X14466253Y-12369460D01*
X14647205Y-12359936D02*
X14656729Y-12369460D01*
X14656729Y-12369460D02*
X14647205Y-12378984D01*
X14647205Y-12378984D02*
X14637682Y-12369460D01*
X14637682Y-12369460D02*
X14647205Y-12359936D01*
X14647205Y-12359936D02*
X14647205Y-12378984D01*
X14647205Y-12255174D02*
X14656729Y-12264698D01*
X14656729Y-12264698D02*
X14647205Y-12274222D01*
X14647205Y-12274222D02*
X14637682Y-12264698D01*
X14637682Y-12264698D02*
X14647205Y-12255174D01*
X14647205Y-12255174D02*
X14647205Y-12274222D01*
D12*
X12985000Y-12692500D02*
X13015000Y-12722500D01*
X13015000Y-12692500D02*
X12985000Y-12722500D01*
D11*
X13313872Y-12598984D02*
X13332920Y-12598984D01*
X13332920Y-12598984D02*
X13351967Y-12608508D01*
X13351967Y-12608508D02*
X13361491Y-12618031D01*
X13361491Y-12618031D02*
X13371015Y-12637079D01*
X13371015Y-12637079D02*
X13380539Y-12675174D01*
X13380539Y-12675174D02*
X13380539Y-12722793D01*
X13380539Y-12722793D02*
X13371015Y-12760888D01*
X13371015Y-12760888D02*
X13361491Y-12779936D01*
X13361491Y-12779936D02*
X13351967Y-12789460D01*
X13351967Y-12789460D02*
X13332920Y-12798984D01*
X13332920Y-12798984D02*
X13313872Y-12798984D01*
X13313872Y-12798984D02*
X13294824Y-12789460D01*
X13294824Y-12789460D02*
X13285301Y-12779936D01*
X13285301Y-12779936D02*
X13275777Y-12760888D01*
X13275777Y-12760888D02*
X13266253Y-12722793D01*
X13266253Y-12722793D02*
X13266253Y-12675174D01*
X13266253Y-12675174D02*
X13275777Y-12637079D01*
X13275777Y-12637079D02*
X13285301Y-12618031D01*
X13285301Y-12618031D02*
X13294824Y-12608508D01*
X13294824Y-12608508D02*
X13313872Y-12598984D01*
X13466253Y-12779936D02*
X13475777Y-12789460D01*
X13475777Y-12789460D02*
X13466253Y-12798984D01*
X13466253Y-12798984D02*
X13456729Y-12789460D01*
X13456729Y-12789460D02*
X13466253Y-12779936D01*
X13466253Y-12779936D02*
X13466253Y-12798984D01*
X13542443Y-12598984D02*
X13666253Y-12598984D01*
X13666253Y-12598984D02*
X13599586Y-12675174D01*
X13599586Y-12675174D02*
X13628158Y-12675174D01*
X13628158Y-12675174D02*
X13647205Y-12684698D01*
X13647205Y-12684698D02*
X13656729Y-12694222D01*
X13656729Y-12694222D02*
X13666253Y-12713269D01*
X13666253Y-12713269D02*
X13666253Y-12760888D01*
X13666253Y-12760888D02*
X13656729Y-12779936D01*
X13656729Y-12779936D02*
X13647205Y-12789460D01*
X13647205Y-12789460D02*
X13628158Y-12798984D01*
X13628158Y-12798984D02*
X13571015Y-12798984D01*
X13571015Y-12798984D02*
X13551967Y-12789460D01*
X13551967Y-12789460D02*
X13542443Y-12779936D01*
X13790062Y-12598984D02*
X13809110Y-12598984D01*
X13809110Y-12598984D02*
X13828158Y-12608508D01*
X13828158Y-12608508D02*
X13837682Y-12618031D01*
X13837682Y-12618031D02*
X13847205Y-12637079D01*
X13847205Y-12637079D02*
X13856729Y-12675174D01*
X13856729Y-12675174D02*
X13856729Y-12722793D01*
X13856729Y-12722793D02*
X13847205Y-12760888D01*
X13847205Y-12760888D02*
X13837682Y-12779936D01*
X13837682Y-12779936D02*
X13828158Y-12789460D01*
X13828158Y-12789460D02*
X13809110Y-12798984D01*
X13809110Y-12798984D02*
X13790062Y-12798984D01*
X13790062Y-12798984D02*
X13771015Y-12789460D01*
X13771015Y-12789460D02*
X13761491Y-12779936D01*
X13761491Y-12779936D02*
X13751967Y-12760888D01*
X13751967Y-12760888D02*
X13742443Y-12722793D01*
X13742443Y-12722793D02*
X13742443Y-12675174D01*
X13742443Y-12675174D02*
X13751967Y-12637079D01*
X13751967Y-12637079D02*
X13761491Y-12618031D01*
X13761491Y-12618031D02*
X13771015Y-12608508D01*
X13771015Y-12608508D02*
X13790062Y-12598984D01*
X13980539Y-12598984D02*
X13999586Y-12598984D01*
X13999586Y-12598984D02*
X14018634Y-12608508D01*
X14018634Y-12608508D02*
X14028158Y-12618031D01*
X14028158Y-12618031D02*
X14037682Y-12637079D01*
X14037682Y-12637079D02*
X14047205Y-12675174D01*
X14047205Y-12675174D02*
X14047205Y-12722793D01*
X14047205Y-12722793D02*
X14037682Y-12760888D01*
X14037682Y-12760888D02*
X14028158Y-12779936D01*
X14028158Y-12779936D02*
X14018634Y-12789460D01*
X14018634Y-12789460D02*
X13999586Y-12798984D01*
X13999586Y-12798984D02*
X13980539Y-12798984D01*
X13980539Y-12798984D02*
X13961491Y-12789460D01*
X13961491Y-12789460D02*
X13951967Y-12779936D01*
X13951967Y-12779936D02*
X13942443Y-12760888D01*
X13942443Y-12760888D02*
X13932920Y-12722793D01*
X13932920Y-12722793D02*
X13932920Y-12675174D01*
X13932920Y-12675174D02*
X13942443Y-12637079D01*
X13942443Y-12637079D02*
X13951967Y-12618031D01*
X13951967Y-12618031D02*
X13961491Y-12608508D01*
X13961491Y-12608508D02*
X13980539Y-12598984D01*
X14132920Y-12798984D02*
X14132920Y-12665650D01*
X14132920Y-12684698D02*
X14142443Y-12675174D01*
X14142443Y-12675174D02*
X14161491Y-12665650D01*
X14161491Y-12665650D02*
X14190063Y-12665650D01*
X14190063Y-12665650D02*
X14209110Y-12675174D01*
X14209110Y-12675174D02*
X14218634Y-12694222D01*
X14218634Y-12694222D02*
X14218634Y-12798984D01*
X14218634Y-12694222D02*
X14228158Y-12675174D01*
X14228158Y-12675174D02*
X14247205Y-12665650D01*
X14247205Y-12665650D02*
X14275777Y-12665650D01*
X14275777Y-12665650D02*
X14294824Y-12675174D01*
X14294824Y-12675174D02*
X14304348Y-12694222D01*
X14304348Y-12694222D02*
X14304348Y-12798984D01*
X14399586Y-12798984D02*
X14399586Y-12665650D01*
X14399586Y-12684698D02*
X14409110Y-12675174D01*
X14409110Y-12675174D02*
X14428158Y-12665650D01*
X14428158Y-12665650D02*
X14456729Y-12665650D01*
X14456729Y-12665650D02*
X14475777Y-12675174D01*
X14475777Y-12675174D02*
X14485301Y-12694222D01*
X14485301Y-12694222D02*
X14485301Y-12798984D01*
X14485301Y-12694222D02*
X14494824Y-12675174D01*
X14494824Y-12675174D02*
X14513872Y-12665650D01*
X14513872Y-12665650D02*
X14542443Y-12665650D01*
X14542443Y-12665650D02*
X14561491Y-12675174D01*
X14561491Y-12675174D02*
X14571015Y-12694222D01*
X14571015Y-12694222D02*
X14571015Y-12798984D01*
X14961491Y-12589460D02*
X14790063Y-12846603D01*
X15218634Y-12598984D02*
X15237682Y-12598984D01*
X15237682Y-12598984D02*
X15256729Y-12608508D01*
X15256729Y-12608508D02*
X15266253Y-12618031D01*
X15266253Y-12618031D02*
X15275777Y-12637079D01*
X15275777Y-12637079D02*
X15285301Y-12675174D01*
X15285301Y-12675174D02*
X15285301Y-12722793D01*
X15285301Y-12722793D02*
X15275777Y-12760888D01*
X15275777Y-12760888D02*
X15266253Y-12779936D01*
X15266253Y-12779936D02*
X15256729Y-12789460D01*
X15256729Y-12789460D02*
X15237682Y-12798984D01*
X15237682Y-12798984D02*
X15218634Y-12798984D01*
X15218634Y-12798984D02*
X15199586Y-12789460D01*
X15199586Y-12789460D02*
X15190063Y-12779936D01*
X15190063Y-12779936D02*
X15180539Y-12760888D01*
X15180539Y-12760888D02*
X15171015Y-12722793D01*
X15171015Y-12722793D02*
X15171015Y-12675174D01*
X15171015Y-12675174D02*
X15180539Y-12637079D01*
X15180539Y-12637079D02*
X15190063Y-12618031D01*
X15190063Y-12618031D02*
X15199586Y-12608508D01*
X15199586Y-12608508D02*
X15218634Y-12598984D01*
X15371015Y-12779936D02*
X15380539Y-12789460D01*
X15380539Y-12789460D02*
X15371015Y-12798984D01*
X15371015Y-12798984D02*
X15361491Y-12789460D01*
X15361491Y-12789460D02*
X15371015Y-12779936D01*
X15371015Y-12779936D02*
X15371015Y-12798984D01*
X15504348Y-12598984D02*
X15523396Y-12598984D01*
X15523396Y-12598984D02*
X15542444Y-12608508D01*
X15542444Y-12608508D02*
X15551967Y-12618031D01*
X15551967Y-12618031D02*
X15561491Y-12637079D01*
X15561491Y-12637079D02*
X15571015Y-12675174D01*
X15571015Y-12675174D02*
X15571015Y-12722793D01*
X15571015Y-12722793D02*
X15561491Y-12760888D01*
X15561491Y-12760888D02*
X15551967Y-12779936D01*
X15551967Y-12779936D02*
X15542444Y-12789460D01*
X15542444Y-12789460D02*
X15523396Y-12798984D01*
X15523396Y-12798984D02*
X15504348Y-12798984D01*
X15504348Y-12798984D02*
X15485301Y-12789460D01*
X15485301Y-12789460D02*
X15475777Y-12779936D01*
X15475777Y-12779936D02*
X15466253Y-12760888D01*
X15466253Y-12760888D02*
X15456729Y-12722793D01*
X15456729Y-12722793D02*
X15456729Y-12675174D01*
X15456729Y-12675174D02*
X15466253Y-12637079D01*
X15466253Y-12637079D02*
X15475777Y-12618031D01*
X15475777Y-12618031D02*
X15485301Y-12608508D01*
X15485301Y-12608508D02*
X15504348Y-12598984D01*
X15761491Y-12798984D02*
X15647206Y-12798984D01*
X15704348Y-12798984D02*
X15704348Y-12598984D01*
X15704348Y-12598984D02*
X15685301Y-12627555D01*
X15685301Y-12627555D02*
X15666253Y-12646603D01*
X15666253Y-12646603D02*
X15647206Y-12656127D01*
X15951967Y-12798984D02*
X15837682Y-12798984D01*
X15894825Y-12798984D02*
X15894825Y-12598984D01*
X15894825Y-12598984D02*
X15875777Y-12627555D01*
X15875777Y-12627555D02*
X15856729Y-12646603D01*
X15856729Y-12646603D02*
X15837682Y-12656127D01*
X16066253Y-12684698D02*
X16047206Y-12675174D01*
X16047206Y-12675174D02*
X16037682Y-12665650D01*
X16037682Y-12665650D02*
X16028158Y-12646603D01*
X16028158Y-12646603D02*
X16028158Y-12637079D01*
X16028158Y-12637079D02*
X16037682Y-12618031D01*
X16037682Y-12618031D02*
X16047206Y-12608508D01*
X16047206Y-12608508D02*
X16066253Y-12598984D01*
X16066253Y-12598984D02*
X16104348Y-12598984D01*
X16104348Y-12598984D02*
X16123396Y-12608508D01*
X16123396Y-12608508D02*
X16132920Y-12618031D01*
X16132920Y-12618031D02*
X16142444Y-12637079D01*
X16142444Y-12637079D02*
X16142444Y-12646603D01*
X16142444Y-12646603D02*
X16132920Y-12665650D01*
X16132920Y-12665650D02*
X16123396Y-12675174D01*
X16123396Y-12675174D02*
X16104348Y-12684698D01*
X16104348Y-12684698D02*
X16066253Y-12684698D01*
X16066253Y-12684698D02*
X16047206Y-12694222D01*
X16047206Y-12694222D02*
X16037682Y-12703746D01*
X16037682Y-12703746D02*
X16028158Y-12722793D01*
X16028158Y-12722793D02*
X16028158Y-12760888D01*
X16028158Y-12760888D02*
X16037682Y-12779936D01*
X16037682Y-12779936D02*
X16047206Y-12789460D01*
X16047206Y-12789460D02*
X16066253Y-12798984D01*
X16066253Y-12798984D02*
X16104348Y-12798984D01*
X16104348Y-12798984D02*
X16123396Y-12789460D01*
X16123396Y-12789460D02*
X16132920Y-12779936D01*
X16132920Y-12779936D02*
X16142444Y-12760888D01*
X16142444Y-12760888D02*
X16142444Y-12722793D01*
X16142444Y-12722793D02*
X16132920Y-12703746D01*
X16132920Y-12703746D02*
X16123396Y-12694222D01*
X16123396Y-12694222D02*
X16104348Y-12684698D01*
X16218634Y-12598984D02*
X16218634Y-12637079D01*
X16294825Y-12598984D02*
X16294825Y-12637079D01*
X16590063Y-12875174D02*
X16580539Y-12865650D01*
X16580539Y-12865650D02*
X16561491Y-12837079D01*
X16561491Y-12837079D02*
X16551968Y-12818031D01*
X16551968Y-12818031D02*
X16542444Y-12789460D01*
X16542444Y-12789460D02*
X16532920Y-12741841D01*
X16532920Y-12741841D02*
X16532920Y-12703746D01*
X16532920Y-12703746D02*
X16542444Y-12656127D01*
X16542444Y-12656127D02*
X16551968Y-12627555D01*
X16551968Y-12627555D02*
X16561491Y-12608508D01*
X16561491Y-12608508D02*
X16580539Y-12579936D01*
X16580539Y-12579936D02*
X16590063Y-12570412D01*
X16771015Y-12798984D02*
X16656729Y-12798984D01*
X16713872Y-12798984D02*
X16713872Y-12598984D01*
X16713872Y-12598984D02*
X16694825Y-12627555D01*
X16694825Y-12627555D02*
X16675777Y-12646603D01*
X16675777Y-12646603D02*
X16656729Y-12656127D01*
X17009111Y-12798984D02*
X17009111Y-12598984D01*
X17094825Y-12798984D02*
X17094825Y-12694222D01*
X17094825Y-12694222D02*
X17085301Y-12675174D01*
X17085301Y-12675174D02*
X17066253Y-12665650D01*
X17066253Y-12665650D02*
X17037682Y-12665650D01*
X17037682Y-12665650D02*
X17018634Y-12675174D01*
X17018634Y-12675174D02*
X17009111Y-12684698D01*
X17218634Y-12798984D02*
X17199587Y-12789460D01*
X17199587Y-12789460D02*
X17190063Y-12779936D01*
X17190063Y-12779936D02*
X17180539Y-12760888D01*
X17180539Y-12760888D02*
X17180539Y-12703746D01*
X17180539Y-12703746D02*
X17190063Y-12684698D01*
X17190063Y-12684698D02*
X17199587Y-12675174D01*
X17199587Y-12675174D02*
X17218634Y-12665650D01*
X17218634Y-12665650D02*
X17247206Y-12665650D01*
X17247206Y-12665650D02*
X17266253Y-12675174D01*
X17266253Y-12675174D02*
X17275777Y-12684698D01*
X17275777Y-12684698D02*
X17285301Y-12703746D01*
X17285301Y-12703746D02*
X17285301Y-12760888D01*
X17285301Y-12760888D02*
X17275777Y-12779936D01*
X17275777Y-12779936D02*
X17266253Y-12789460D01*
X17266253Y-12789460D02*
X17247206Y-12798984D01*
X17247206Y-12798984D02*
X17218634Y-12798984D01*
X17399587Y-12798984D02*
X17380539Y-12789460D01*
X17380539Y-12789460D02*
X17371015Y-12770412D01*
X17371015Y-12770412D02*
X17371015Y-12598984D01*
X17551968Y-12789460D02*
X17532920Y-12798984D01*
X17532920Y-12798984D02*
X17494825Y-12798984D01*
X17494825Y-12798984D02*
X17475777Y-12789460D01*
X17475777Y-12789460D02*
X17466253Y-12770412D01*
X17466253Y-12770412D02*
X17466253Y-12694222D01*
X17466253Y-12694222D02*
X17475777Y-12675174D01*
X17475777Y-12675174D02*
X17494825Y-12665650D01*
X17494825Y-12665650D02*
X17532920Y-12665650D01*
X17532920Y-12665650D02*
X17551968Y-12675174D01*
X17551968Y-12675174D02*
X17561492Y-12694222D01*
X17561492Y-12694222D02*
X17561492Y-12713269D01*
X17561492Y-12713269D02*
X17466253Y-12732317D01*
X17628158Y-12875174D02*
X17637682Y-12865650D01*
X17637682Y-12865650D02*
X17656730Y-12837079D01*
X17656730Y-12837079D02*
X17666253Y-12818031D01*
X17666253Y-12818031D02*
X17675777Y-12789460D01*
X17675777Y-12789460D02*
X17685301Y-12741841D01*
X17685301Y-12741841D02*
X17685301Y-12703746D01*
X17685301Y-12703746D02*
X17675777Y-12656127D01*
X17675777Y-12656127D02*
X17666253Y-12627555D01*
X17666253Y-12627555D02*
X17656730Y-12608508D01*
X17656730Y-12608508D02*
X17637682Y-12579936D01*
X17637682Y-12579936D02*
X17628158Y-12570412D01*
D12*
X13015000Y-12971500D02*
G75*
G02*
X12975000Y-12971500I-20000J0D01*
G01*
X12975000Y-12971500D02*
G75*
G02*
X13015000Y-12971500I20000J0D01*
G01*
D11*
X13313872Y-12862984D02*
X13332920Y-12862984D01*
X13332920Y-12862984D02*
X13351967Y-12872508D01*
X13351967Y-12872508D02*
X13361491Y-12882031D01*
X13361491Y-12882031D02*
X13371015Y-12901079D01*
X13371015Y-12901079D02*
X13380539Y-12939174D01*
X13380539Y-12939174D02*
X13380539Y-12986793D01*
X13380539Y-12986793D02*
X13371015Y-13024888D01*
X13371015Y-13024888D02*
X13361491Y-13043936D01*
X13361491Y-13043936D02*
X13351967Y-13053460D01*
X13351967Y-13053460D02*
X13332920Y-13062984D01*
X13332920Y-13062984D02*
X13313872Y-13062984D01*
X13313872Y-13062984D02*
X13294824Y-13053460D01*
X13294824Y-13053460D02*
X13285301Y-13043936D01*
X13285301Y-13043936D02*
X13275777Y-13024888D01*
X13275777Y-13024888D02*
X13266253Y-12986793D01*
X13266253Y-12986793D02*
X13266253Y-12939174D01*
X13266253Y-12939174D02*
X13275777Y-12901079D01*
X13275777Y-12901079D02*
X13285301Y-12882031D01*
X13285301Y-12882031D02*
X13294824Y-12872508D01*
X13294824Y-12872508D02*
X13313872Y-12862984D01*
X13466253Y-13043936D02*
X13475777Y-13053460D01*
X13475777Y-13053460D02*
X13466253Y-13062984D01*
X13466253Y-13062984D02*
X13456729Y-13053460D01*
X13456729Y-13053460D02*
X13466253Y-13043936D01*
X13466253Y-13043936D02*
X13466253Y-13062984D01*
X13647205Y-12929650D02*
X13647205Y-13062984D01*
X13599586Y-12853460D02*
X13551967Y-12996317D01*
X13551967Y-12996317D02*
X13675777Y-12996317D01*
X13790062Y-12862984D02*
X13809110Y-12862984D01*
X13809110Y-12862984D02*
X13828158Y-12872508D01*
X13828158Y-12872508D02*
X13837682Y-12882031D01*
X13837682Y-12882031D02*
X13847205Y-12901079D01*
X13847205Y-12901079D02*
X13856729Y-12939174D01*
X13856729Y-12939174D02*
X13856729Y-12986793D01*
X13856729Y-12986793D02*
X13847205Y-13024888D01*
X13847205Y-13024888D02*
X13837682Y-13043936D01*
X13837682Y-13043936D02*
X13828158Y-13053460D01*
X13828158Y-13053460D02*
X13809110Y-13062984D01*
X13809110Y-13062984D02*
X13790062Y-13062984D01*
X13790062Y-13062984D02*
X13771015Y-13053460D01*
X13771015Y-13053460D02*
X13761491Y-13043936D01*
X13761491Y-13043936D02*
X13751967Y-13024888D01*
X13751967Y-13024888D02*
X13742443Y-12986793D01*
X13742443Y-12986793D02*
X13742443Y-12939174D01*
X13742443Y-12939174D02*
X13751967Y-12901079D01*
X13751967Y-12901079D02*
X13761491Y-12882031D01*
X13761491Y-12882031D02*
X13771015Y-12872508D01*
X13771015Y-12872508D02*
X13790062Y-12862984D01*
X13980539Y-12862984D02*
X13999586Y-12862984D01*
X13999586Y-12862984D02*
X14018634Y-12872508D01*
X14018634Y-12872508D02*
X14028158Y-12882031D01*
X14028158Y-12882031D02*
X14037682Y-12901079D01*
X14037682Y-12901079D02*
X14047205Y-12939174D01*
X14047205Y-12939174D02*
X14047205Y-12986793D01*
X14047205Y-12986793D02*
X14037682Y-13024888D01*
X14037682Y-13024888D02*
X14028158Y-13043936D01*
X14028158Y-13043936D02*
X14018634Y-13053460D01*
X14018634Y-13053460D02*
X13999586Y-13062984D01*
X13999586Y-13062984D02*
X13980539Y-13062984D01*
X13980539Y-13062984D02*
X13961491Y-13053460D01*
X13961491Y-13053460D02*
X13951967Y-13043936D01*
X13951967Y-13043936D02*
X13942443Y-13024888D01*
X13942443Y-13024888D02*
X13932920Y-12986793D01*
X13932920Y-12986793D02*
X13932920Y-12939174D01*
X13932920Y-12939174D02*
X13942443Y-12901079D01*
X13942443Y-12901079D02*
X13951967Y-12882031D01*
X13951967Y-12882031D02*
X13961491Y-12872508D01*
X13961491Y-12872508D02*
X13980539Y-12862984D01*
X14132920Y-13062984D02*
X14132920Y-12929650D01*
X14132920Y-12948698D02*
X14142443Y-12939174D01*
X14142443Y-12939174D02*
X14161491Y-12929650D01*
X14161491Y-12929650D02*
X14190063Y-12929650D01*
X14190063Y-12929650D02*
X14209110Y-12939174D01*
X14209110Y-12939174D02*
X14218634Y-12958222D01*
X14218634Y-12958222D02*
X14218634Y-13062984D01*
X14218634Y-12958222D02*
X14228158Y-12939174D01*
X14228158Y-12939174D02*
X14247205Y-12929650D01*
X14247205Y-12929650D02*
X14275777Y-12929650D01*
X14275777Y-12929650D02*
X14294824Y-12939174D01*
X14294824Y-12939174D02*
X14304348Y-12958222D01*
X14304348Y-12958222D02*
X14304348Y-13062984D01*
X14399586Y-13062984D02*
X14399586Y-12929650D01*
X14399586Y-12948698D02*
X14409110Y-12939174D01*
X14409110Y-12939174D02*
X14428158Y-12929650D01*
X14428158Y-12929650D02*
X14456729Y-12929650D01*
X14456729Y-12929650D02*
X14475777Y-12939174D01*
X14475777Y-12939174D02*
X14485301Y-12958222D01*
X14485301Y-12958222D02*
X14485301Y-13062984D01*
X14485301Y-12958222D02*
X14494824Y-12939174D01*
X14494824Y-12939174D02*
X14513872Y-12929650D01*
X14513872Y-12929650D02*
X14542443Y-12929650D01*
X14542443Y-12929650D02*
X14561491Y-12939174D01*
X14561491Y-12939174D02*
X14571015Y-12958222D01*
X14571015Y-12958222D02*
X14571015Y-13062984D01*
X14961491Y-12853460D02*
X14790063Y-13110603D01*
X15218634Y-12862984D02*
X15237682Y-12862984D01*
X15237682Y-12862984D02*
X15256729Y-12872508D01*
X15256729Y-12872508D02*
X15266253Y-12882031D01*
X15266253Y-12882031D02*
X15275777Y-12901079D01*
X15275777Y-12901079D02*
X15285301Y-12939174D01*
X15285301Y-12939174D02*
X15285301Y-12986793D01*
X15285301Y-12986793D02*
X15275777Y-13024888D01*
X15275777Y-13024888D02*
X15266253Y-13043936D01*
X15266253Y-13043936D02*
X15256729Y-13053460D01*
X15256729Y-13053460D02*
X15237682Y-13062984D01*
X15237682Y-13062984D02*
X15218634Y-13062984D01*
X15218634Y-13062984D02*
X15199586Y-13053460D01*
X15199586Y-13053460D02*
X15190063Y-13043936D01*
X15190063Y-13043936D02*
X15180539Y-13024888D01*
X15180539Y-13024888D02*
X15171015Y-12986793D01*
X15171015Y-12986793D02*
X15171015Y-12939174D01*
X15171015Y-12939174D02*
X15180539Y-12901079D01*
X15180539Y-12901079D02*
X15190063Y-12882031D01*
X15190063Y-12882031D02*
X15199586Y-12872508D01*
X15199586Y-12872508D02*
X15218634Y-12862984D01*
X15371015Y-13043936D02*
X15380539Y-13053460D01*
X15380539Y-13053460D02*
X15371015Y-13062984D01*
X15371015Y-13062984D02*
X15361491Y-13053460D01*
X15361491Y-13053460D02*
X15371015Y-13043936D01*
X15371015Y-13043936D02*
X15371015Y-13062984D01*
X15504348Y-12862984D02*
X15523396Y-12862984D01*
X15523396Y-12862984D02*
X15542444Y-12872508D01*
X15542444Y-12872508D02*
X15551967Y-12882031D01*
X15551967Y-12882031D02*
X15561491Y-12901079D01*
X15561491Y-12901079D02*
X15571015Y-12939174D01*
X15571015Y-12939174D02*
X15571015Y-12986793D01*
X15571015Y-12986793D02*
X15561491Y-13024888D01*
X15561491Y-13024888D02*
X15551967Y-13043936D01*
X15551967Y-13043936D02*
X15542444Y-13053460D01*
X15542444Y-13053460D02*
X15523396Y-13062984D01*
X15523396Y-13062984D02*
X15504348Y-13062984D01*
X15504348Y-13062984D02*
X15485301Y-13053460D01*
X15485301Y-13053460D02*
X15475777Y-13043936D01*
X15475777Y-13043936D02*
X15466253Y-13024888D01*
X15466253Y-13024888D02*
X15456729Y-12986793D01*
X15456729Y-12986793D02*
X15456729Y-12939174D01*
X15456729Y-12939174D02*
X15466253Y-12901079D01*
X15466253Y-12901079D02*
X15475777Y-12882031D01*
X15475777Y-12882031D02*
X15485301Y-12872508D01*
X15485301Y-12872508D02*
X15504348Y-12862984D01*
X15761491Y-13062984D02*
X15647206Y-13062984D01*
X15704348Y-13062984D02*
X15704348Y-12862984D01*
X15704348Y-12862984D02*
X15685301Y-12891555D01*
X15685301Y-12891555D02*
X15666253Y-12910603D01*
X15666253Y-12910603D02*
X15647206Y-12920127D01*
X15942444Y-12862984D02*
X15847206Y-12862984D01*
X15847206Y-12862984D02*
X15837682Y-12958222D01*
X15837682Y-12958222D02*
X15847206Y-12948698D01*
X15847206Y-12948698D02*
X15866253Y-12939174D01*
X15866253Y-12939174D02*
X15913872Y-12939174D01*
X15913872Y-12939174D02*
X15932920Y-12948698D01*
X15932920Y-12948698D02*
X15942444Y-12958222D01*
X15942444Y-12958222D02*
X15951967Y-12977269D01*
X15951967Y-12977269D02*
X15951967Y-13024888D01*
X15951967Y-13024888D02*
X15942444Y-13043936D01*
X15942444Y-13043936D02*
X15932920Y-13053460D01*
X15932920Y-13053460D02*
X15913872Y-13062984D01*
X15913872Y-13062984D02*
X15866253Y-13062984D01*
X15866253Y-13062984D02*
X15847206Y-13053460D01*
X15847206Y-13053460D02*
X15837682Y-13043936D01*
X16018634Y-12862984D02*
X16151967Y-12862984D01*
X16151967Y-12862984D02*
X16066253Y-13062984D01*
X16218634Y-12862984D02*
X16218634Y-12901079D01*
X16294825Y-12862984D02*
X16294825Y-12901079D01*
X16590063Y-13139174D02*
X16580539Y-13129650D01*
X16580539Y-13129650D02*
X16561491Y-13101079D01*
X16561491Y-13101079D02*
X16551968Y-13082031D01*
X16551968Y-13082031D02*
X16542444Y-13053460D01*
X16542444Y-13053460D02*
X16532920Y-13005841D01*
X16532920Y-13005841D02*
X16532920Y-12967746D01*
X16532920Y-12967746D02*
X16542444Y-12920127D01*
X16542444Y-12920127D02*
X16551968Y-12891555D01*
X16551968Y-12891555D02*
X16561491Y-12872508D01*
X16561491Y-12872508D02*
X16580539Y-12843936D01*
X16580539Y-12843936D02*
X16590063Y-12834412D01*
X16751968Y-12862984D02*
X16713872Y-12862984D01*
X16713872Y-12862984D02*
X16694825Y-12872508D01*
X16694825Y-12872508D02*
X16685301Y-12882031D01*
X16685301Y-12882031D02*
X16666253Y-12910603D01*
X16666253Y-12910603D02*
X16656729Y-12948698D01*
X16656729Y-12948698D02*
X16656729Y-13024888D01*
X16656729Y-13024888D02*
X16666253Y-13043936D01*
X16666253Y-13043936D02*
X16675777Y-13053460D01*
X16675777Y-13053460D02*
X16694825Y-13062984D01*
X16694825Y-13062984D02*
X16732920Y-13062984D01*
X16732920Y-13062984D02*
X16751968Y-13053460D01*
X16751968Y-13053460D02*
X16761491Y-13043936D01*
X16761491Y-13043936D02*
X16771015Y-13024888D01*
X16771015Y-13024888D02*
X16771015Y-12977269D01*
X16771015Y-12977269D02*
X16761491Y-12958222D01*
X16761491Y-12958222D02*
X16751968Y-12948698D01*
X16751968Y-12948698D02*
X16732920Y-12939174D01*
X16732920Y-12939174D02*
X16694825Y-12939174D01*
X16694825Y-12939174D02*
X16675777Y-12948698D01*
X16675777Y-12948698D02*
X16666253Y-12958222D01*
X16666253Y-12958222D02*
X16656729Y-12977269D01*
X17009111Y-13062984D02*
X17009111Y-12862984D01*
X17094825Y-13062984D02*
X17094825Y-12958222D01*
X17094825Y-12958222D02*
X17085301Y-12939174D01*
X17085301Y-12939174D02*
X17066253Y-12929650D01*
X17066253Y-12929650D02*
X17037682Y-12929650D01*
X17037682Y-12929650D02*
X17018634Y-12939174D01*
X17018634Y-12939174D02*
X17009111Y-12948698D01*
X17218634Y-13062984D02*
X17199587Y-13053460D01*
X17199587Y-13053460D02*
X17190063Y-13043936D01*
X17190063Y-13043936D02*
X17180539Y-13024888D01*
X17180539Y-13024888D02*
X17180539Y-12967746D01*
X17180539Y-12967746D02*
X17190063Y-12948698D01*
X17190063Y-12948698D02*
X17199587Y-12939174D01*
X17199587Y-12939174D02*
X17218634Y-12929650D01*
X17218634Y-12929650D02*
X17247206Y-12929650D01*
X17247206Y-12929650D02*
X17266253Y-12939174D01*
X17266253Y-12939174D02*
X17275777Y-12948698D01*
X17275777Y-12948698D02*
X17285301Y-12967746D01*
X17285301Y-12967746D02*
X17285301Y-13024888D01*
X17285301Y-13024888D02*
X17275777Y-13043936D01*
X17275777Y-13043936D02*
X17266253Y-13053460D01*
X17266253Y-13053460D02*
X17247206Y-13062984D01*
X17247206Y-13062984D02*
X17218634Y-13062984D01*
X17399587Y-13062984D02*
X17380539Y-13053460D01*
X17380539Y-13053460D02*
X17371015Y-13034412D01*
X17371015Y-13034412D02*
X17371015Y-12862984D01*
X17551968Y-13053460D02*
X17532920Y-13062984D01*
X17532920Y-13062984D02*
X17494825Y-13062984D01*
X17494825Y-13062984D02*
X17475777Y-13053460D01*
X17475777Y-13053460D02*
X17466253Y-13034412D01*
X17466253Y-13034412D02*
X17466253Y-12958222D01*
X17466253Y-12958222D02*
X17475777Y-12939174D01*
X17475777Y-12939174D02*
X17494825Y-12929650D01*
X17494825Y-12929650D02*
X17532920Y-12929650D01*
X17532920Y-12929650D02*
X17551968Y-12939174D01*
X17551968Y-12939174D02*
X17561492Y-12958222D01*
X17561492Y-12958222D02*
X17561492Y-12977269D01*
X17561492Y-12977269D02*
X17466253Y-12996317D01*
X17637682Y-13053460D02*
X17656730Y-13062984D01*
X17656730Y-13062984D02*
X17694825Y-13062984D01*
X17694825Y-13062984D02*
X17713873Y-13053460D01*
X17713873Y-13053460D02*
X17723396Y-13034412D01*
X17723396Y-13034412D02*
X17723396Y-13024888D01*
X17723396Y-13024888D02*
X17713873Y-13005841D01*
X17713873Y-13005841D02*
X17694825Y-12996317D01*
X17694825Y-12996317D02*
X17666253Y-12996317D01*
X17666253Y-12996317D02*
X17647206Y-12986793D01*
X17647206Y-12986793D02*
X17637682Y-12967746D01*
X17637682Y-12967746D02*
X17637682Y-12958222D01*
X17637682Y-12958222D02*
X17647206Y-12939174D01*
X17647206Y-12939174D02*
X17666253Y-12929650D01*
X17666253Y-12929650D02*
X17694825Y-12929650D01*
X17694825Y-12929650D02*
X17713873Y-12939174D01*
X17790063Y-13139174D02*
X17799587Y-13129650D01*
X17799587Y-13129650D02*
X17818634Y-13101079D01*
X17818634Y-13101079D02*
X17828158Y-13082031D01*
X17828158Y-13082031D02*
X17837682Y-13053460D01*
X17837682Y-13053460D02*
X17847206Y-13005841D01*
X17847206Y-13005841D02*
X17847206Y-12967746D01*
X17847206Y-12967746D02*
X17837682Y-12920127D01*
X17837682Y-12920127D02*
X17828158Y-12891555D01*
X17828158Y-12891555D02*
X17818634Y-12872508D01*
X17818634Y-12872508D02*
X17799587Y-12843936D01*
X17799587Y-12843936D02*
X17790063Y-12834412D01*
D12*
X12975000Y-13195500D02*
X12975000Y-13275500D01*
X12935000Y-13235500D02*
X13015000Y-13235500D01*
D11*
X13313872Y-13126984D02*
X13332920Y-13126984D01*
X13332920Y-13126984D02*
X13351967Y-13136508D01*
X13351967Y-13136508D02*
X13361491Y-13146031D01*
X13361491Y-13146031D02*
X13371015Y-13165079D01*
X13371015Y-13165079D02*
X13380539Y-13203174D01*
X13380539Y-13203174D02*
X13380539Y-13250793D01*
X13380539Y-13250793D02*
X13371015Y-13288888D01*
X13371015Y-13288888D02*
X13361491Y-13307936D01*
X13361491Y-13307936D02*
X13351967Y-13317460D01*
X13351967Y-13317460D02*
X13332920Y-13326984D01*
X13332920Y-13326984D02*
X13313872Y-13326984D01*
X13313872Y-13326984D02*
X13294824Y-13317460D01*
X13294824Y-13317460D02*
X13285301Y-13307936D01*
X13285301Y-13307936D02*
X13275777Y-13288888D01*
X13275777Y-13288888D02*
X13266253Y-13250793D01*
X13266253Y-13250793D02*
X13266253Y-13203174D01*
X13266253Y-13203174D02*
X13275777Y-13165079D01*
X13275777Y-13165079D02*
X13285301Y-13146031D01*
X13285301Y-13146031D02*
X13294824Y-13136508D01*
X13294824Y-13136508D02*
X13313872Y-13126984D01*
X13466253Y-13307936D02*
X13475777Y-13317460D01*
X13475777Y-13317460D02*
X13466253Y-13326984D01*
X13466253Y-13326984D02*
X13456729Y-13317460D01*
X13456729Y-13317460D02*
X13466253Y-13307936D01*
X13466253Y-13307936D02*
X13466253Y-13326984D01*
X13590062Y-13212698D02*
X13571015Y-13203174D01*
X13571015Y-13203174D02*
X13561491Y-13193650D01*
X13561491Y-13193650D02*
X13551967Y-13174603D01*
X13551967Y-13174603D02*
X13551967Y-13165079D01*
X13551967Y-13165079D02*
X13561491Y-13146031D01*
X13561491Y-13146031D02*
X13571015Y-13136508D01*
X13571015Y-13136508D02*
X13590062Y-13126984D01*
X13590062Y-13126984D02*
X13628158Y-13126984D01*
X13628158Y-13126984D02*
X13647205Y-13136508D01*
X13647205Y-13136508D02*
X13656729Y-13146031D01*
X13656729Y-13146031D02*
X13666253Y-13165079D01*
X13666253Y-13165079D02*
X13666253Y-13174603D01*
X13666253Y-13174603D02*
X13656729Y-13193650D01*
X13656729Y-13193650D02*
X13647205Y-13203174D01*
X13647205Y-13203174D02*
X13628158Y-13212698D01*
X13628158Y-13212698D02*
X13590062Y-13212698D01*
X13590062Y-13212698D02*
X13571015Y-13222222D01*
X13571015Y-13222222D02*
X13561491Y-13231746D01*
X13561491Y-13231746D02*
X13551967Y-13250793D01*
X13551967Y-13250793D02*
X13551967Y-13288888D01*
X13551967Y-13288888D02*
X13561491Y-13307936D01*
X13561491Y-13307936D02*
X13571015Y-13317460D01*
X13571015Y-13317460D02*
X13590062Y-13326984D01*
X13590062Y-13326984D02*
X13628158Y-13326984D01*
X13628158Y-13326984D02*
X13647205Y-13317460D01*
X13647205Y-13317460D02*
X13656729Y-13307936D01*
X13656729Y-13307936D02*
X13666253Y-13288888D01*
X13666253Y-13288888D02*
X13666253Y-13250793D01*
X13666253Y-13250793D02*
X13656729Y-13231746D01*
X13656729Y-13231746D02*
X13647205Y-13222222D01*
X13647205Y-13222222D02*
X13628158Y-13212698D01*
X13790062Y-13126984D02*
X13809110Y-13126984D01*
X13809110Y-13126984D02*
X13828158Y-13136508D01*
X13828158Y-13136508D02*
X13837682Y-13146031D01*
X13837682Y-13146031D02*
X13847205Y-13165079D01*
X13847205Y-13165079D02*
X13856729Y-13203174D01*
X13856729Y-13203174D02*
X13856729Y-13250793D01*
X13856729Y-13250793D02*
X13847205Y-13288888D01*
X13847205Y-13288888D02*
X13837682Y-13307936D01*
X13837682Y-13307936D02*
X13828158Y-13317460D01*
X13828158Y-13317460D02*
X13809110Y-13326984D01*
X13809110Y-13326984D02*
X13790062Y-13326984D01*
X13790062Y-13326984D02*
X13771015Y-13317460D01*
X13771015Y-13317460D02*
X13761491Y-13307936D01*
X13761491Y-13307936D02*
X13751967Y-13288888D01*
X13751967Y-13288888D02*
X13742443Y-13250793D01*
X13742443Y-13250793D02*
X13742443Y-13203174D01*
X13742443Y-13203174D02*
X13751967Y-13165079D01*
X13751967Y-13165079D02*
X13761491Y-13146031D01*
X13761491Y-13146031D02*
X13771015Y-13136508D01*
X13771015Y-13136508D02*
X13790062Y-13126984D01*
X13980539Y-13126984D02*
X13999586Y-13126984D01*
X13999586Y-13126984D02*
X14018634Y-13136508D01*
X14018634Y-13136508D02*
X14028158Y-13146031D01*
X14028158Y-13146031D02*
X14037682Y-13165079D01*
X14037682Y-13165079D02*
X14047205Y-13203174D01*
X14047205Y-13203174D02*
X14047205Y-13250793D01*
X14047205Y-13250793D02*
X14037682Y-13288888D01*
X14037682Y-13288888D02*
X14028158Y-13307936D01*
X14028158Y-13307936D02*
X14018634Y-13317460D01*
X14018634Y-13317460D02*
X13999586Y-13326984D01*
X13999586Y-13326984D02*
X13980539Y-13326984D01*
X13980539Y-13326984D02*
X13961491Y-13317460D01*
X13961491Y-13317460D02*
X13951967Y-13307936D01*
X13951967Y-13307936D02*
X13942443Y-13288888D01*
X13942443Y-13288888D02*
X13932920Y-13250793D01*
X13932920Y-13250793D02*
X13932920Y-13203174D01*
X13932920Y-13203174D02*
X13942443Y-13165079D01*
X13942443Y-13165079D02*
X13951967Y-13146031D01*
X13951967Y-13146031D02*
X13961491Y-13136508D01*
X13961491Y-13136508D02*
X13980539Y-13126984D01*
X14132920Y-13326984D02*
X14132920Y-13193650D01*
X14132920Y-13212698D02*
X14142443Y-13203174D01*
X14142443Y-13203174D02*
X14161491Y-13193650D01*
X14161491Y-13193650D02*
X14190063Y-13193650D01*
X14190063Y-13193650D02*
X14209110Y-13203174D01*
X14209110Y-13203174D02*
X14218634Y-13222222D01*
X14218634Y-13222222D02*
X14218634Y-13326984D01*
X14218634Y-13222222D02*
X14228158Y-13203174D01*
X14228158Y-13203174D02*
X14247205Y-13193650D01*
X14247205Y-13193650D02*
X14275777Y-13193650D01*
X14275777Y-13193650D02*
X14294824Y-13203174D01*
X14294824Y-13203174D02*
X14304348Y-13222222D01*
X14304348Y-13222222D02*
X14304348Y-13326984D01*
X14399586Y-13326984D02*
X14399586Y-13193650D01*
X14399586Y-13212698D02*
X14409110Y-13203174D01*
X14409110Y-13203174D02*
X14428158Y-13193650D01*
X14428158Y-13193650D02*
X14456729Y-13193650D01*
X14456729Y-13193650D02*
X14475777Y-13203174D01*
X14475777Y-13203174D02*
X14485301Y-13222222D01*
X14485301Y-13222222D02*
X14485301Y-13326984D01*
X14485301Y-13222222D02*
X14494824Y-13203174D01*
X14494824Y-13203174D02*
X14513872Y-13193650D01*
X14513872Y-13193650D02*
X14542443Y-13193650D01*
X14542443Y-13193650D02*
X14561491Y-13203174D01*
X14561491Y-13203174D02*
X14571015Y-13222222D01*
X14571015Y-13222222D02*
X14571015Y-13326984D01*
X14961491Y-13117460D02*
X14790063Y-13374603D01*
X15218634Y-13126984D02*
X15237682Y-13126984D01*
X15237682Y-13126984D02*
X15256729Y-13136508D01*
X15256729Y-13136508D02*
X15266253Y-13146031D01*
X15266253Y-13146031D02*
X15275777Y-13165079D01*
X15275777Y-13165079D02*
X15285301Y-13203174D01*
X15285301Y-13203174D02*
X15285301Y-13250793D01*
X15285301Y-13250793D02*
X15275777Y-13288888D01*
X15275777Y-13288888D02*
X15266253Y-13307936D01*
X15266253Y-13307936D02*
X15256729Y-13317460D01*
X15256729Y-13317460D02*
X15237682Y-13326984D01*
X15237682Y-13326984D02*
X15218634Y-13326984D01*
X15218634Y-13326984D02*
X15199586Y-13317460D01*
X15199586Y-13317460D02*
X15190063Y-13307936D01*
X15190063Y-13307936D02*
X15180539Y-13288888D01*
X15180539Y-13288888D02*
X15171015Y-13250793D01*
X15171015Y-13250793D02*
X15171015Y-13203174D01*
X15171015Y-13203174D02*
X15180539Y-13165079D01*
X15180539Y-13165079D02*
X15190063Y-13146031D01*
X15190063Y-13146031D02*
X15199586Y-13136508D01*
X15199586Y-13136508D02*
X15218634Y-13126984D01*
X15371015Y-13307936D02*
X15380539Y-13317460D01*
X15380539Y-13317460D02*
X15371015Y-13326984D01*
X15371015Y-13326984D02*
X15361491Y-13317460D01*
X15361491Y-13317460D02*
X15371015Y-13307936D01*
X15371015Y-13307936D02*
X15371015Y-13326984D01*
X15504348Y-13126984D02*
X15523396Y-13126984D01*
X15523396Y-13126984D02*
X15542444Y-13136508D01*
X15542444Y-13136508D02*
X15551967Y-13146031D01*
X15551967Y-13146031D02*
X15561491Y-13165079D01*
X15561491Y-13165079D02*
X15571015Y-13203174D01*
X15571015Y-13203174D02*
X15571015Y-13250793D01*
X15571015Y-13250793D02*
X15561491Y-13288888D01*
X15561491Y-13288888D02*
X15551967Y-13307936D01*
X15551967Y-13307936D02*
X15542444Y-13317460D01*
X15542444Y-13317460D02*
X15523396Y-13326984D01*
X15523396Y-13326984D02*
X15504348Y-13326984D01*
X15504348Y-13326984D02*
X15485301Y-13317460D01*
X15485301Y-13317460D02*
X15475777Y-13307936D01*
X15475777Y-13307936D02*
X15466253Y-13288888D01*
X15466253Y-13288888D02*
X15456729Y-13250793D01*
X15456729Y-13250793D02*
X15456729Y-13203174D01*
X15456729Y-13203174D02*
X15466253Y-13165079D01*
X15466253Y-13165079D02*
X15475777Y-13146031D01*
X15475777Y-13146031D02*
X15485301Y-13136508D01*
X15485301Y-13136508D02*
X15504348Y-13126984D01*
X15637682Y-13126984D02*
X15761491Y-13126984D01*
X15761491Y-13126984D02*
X15694825Y-13203174D01*
X15694825Y-13203174D02*
X15723396Y-13203174D01*
X15723396Y-13203174D02*
X15742444Y-13212698D01*
X15742444Y-13212698D02*
X15751967Y-13222222D01*
X15751967Y-13222222D02*
X15761491Y-13241269D01*
X15761491Y-13241269D02*
X15761491Y-13288888D01*
X15761491Y-13288888D02*
X15751967Y-13307936D01*
X15751967Y-13307936D02*
X15742444Y-13317460D01*
X15742444Y-13317460D02*
X15723396Y-13326984D01*
X15723396Y-13326984D02*
X15666253Y-13326984D01*
X15666253Y-13326984D02*
X15647206Y-13317460D01*
X15647206Y-13317460D02*
X15637682Y-13307936D01*
X15951967Y-13326984D02*
X15837682Y-13326984D01*
X15894825Y-13326984D02*
X15894825Y-13126984D01*
X15894825Y-13126984D02*
X15875777Y-13155555D01*
X15875777Y-13155555D02*
X15856729Y-13174603D01*
X15856729Y-13174603D02*
X15837682Y-13184127D01*
X16132920Y-13126984D02*
X16037682Y-13126984D01*
X16037682Y-13126984D02*
X16028158Y-13222222D01*
X16028158Y-13222222D02*
X16037682Y-13212698D01*
X16037682Y-13212698D02*
X16056729Y-13203174D01*
X16056729Y-13203174D02*
X16104348Y-13203174D01*
X16104348Y-13203174D02*
X16123396Y-13212698D01*
X16123396Y-13212698D02*
X16132920Y-13222222D01*
X16132920Y-13222222D02*
X16142444Y-13241269D01*
X16142444Y-13241269D02*
X16142444Y-13288888D01*
X16142444Y-13288888D02*
X16132920Y-13307936D01*
X16132920Y-13307936D02*
X16123396Y-13317460D01*
X16123396Y-13317460D02*
X16104348Y-13326984D01*
X16104348Y-13326984D02*
X16056729Y-13326984D01*
X16056729Y-13326984D02*
X16037682Y-13317460D01*
X16037682Y-13317460D02*
X16028158Y-13307936D01*
X16218634Y-13126984D02*
X16218634Y-13165079D01*
X16294825Y-13126984D02*
X16294825Y-13165079D01*
X16590063Y-13403174D02*
X16580539Y-13393650D01*
X16580539Y-13393650D02*
X16561491Y-13365079D01*
X16561491Y-13365079D02*
X16551968Y-13346031D01*
X16551968Y-13346031D02*
X16542444Y-13317460D01*
X16542444Y-13317460D02*
X16532920Y-13269841D01*
X16532920Y-13269841D02*
X16532920Y-13231746D01*
X16532920Y-13231746D02*
X16542444Y-13184127D01*
X16542444Y-13184127D02*
X16551968Y-13155555D01*
X16551968Y-13155555D02*
X16561491Y-13136508D01*
X16561491Y-13136508D02*
X16580539Y-13107936D01*
X16580539Y-13107936D02*
X16590063Y-13098412D01*
X16751968Y-13126984D02*
X16713872Y-13126984D01*
X16713872Y-13126984D02*
X16694825Y-13136508D01*
X16694825Y-13136508D02*
X16685301Y-13146031D01*
X16685301Y-13146031D02*
X16666253Y-13174603D01*
X16666253Y-13174603D02*
X16656729Y-13212698D01*
X16656729Y-13212698D02*
X16656729Y-13288888D01*
X16656729Y-13288888D02*
X16666253Y-13307936D01*
X16666253Y-13307936D02*
X16675777Y-13317460D01*
X16675777Y-13317460D02*
X16694825Y-13326984D01*
X16694825Y-13326984D02*
X16732920Y-13326984D01*
X16732920Y-13326984D02*
X16751968Y-13317460D01*
X16751968Y-13317460D02*
X16761491Y-13307936D01*
X16761491Y-13307936D02*
X16771015Y-13288888D01*
X16771015Y-13288888D02*
X16771015Y-13241269D01*
X16771015Y-13241269D02*
X16761491Y-13222222D01*
X16761491Y-13222222D02*
X16751968Y-13212698D01*
X16751968Y-13212698D02*
X16732920Y-13203174D01*
X16732920Y-13203174D02*
X16694825Y-13203174D01*
X16694825Y-13203174D02*
X16675777Y-13212698D01*
X16675777Y-13212698D02*
X16666253Y-13222222D01*
X16666253Y-13222222D02*
X16656729Y-13241269D01*
X17009111Y-13326984D02*
X17009111Y-13126984D01*
X17094825Y-13326984D02*
X17094825Y-13222222D01*
X17094825Y-13222222D02*
X17085301Y-13203174D01*
X17085301Y-13203174D02*
X17066253Y-13193650D01*
X17066253Y-13193650D02*
X17037682Y-13193650D01*
X17037682Y-13193650D02*
X17018634Y-13203174D01*
X17018634Y-13203174D02*
X17009111Y-13212698D01*
X17218634Y-13326984D02*
X17199587Y-13317460D01*
X17199587Y-13317460D02*
X17190063Y-13307936D01*
X17190063Y-13307936D02*
X17180539Y-13288888D01*
X17180539Y-13288888D02*
X17180539Y-13231746D01*
X17180539Y-13231746D02*
X17190063Y-13212698D01*
X17190063Y-13212698D02*
X17199587Y-13203174D01*
X17199587Y-13203174D02*
X17218634Y-13193650D01*
X17218634Y-13193650D02*
X17247206Y-13193650D01*
X17247206Y-13193650D02*
X17266253Y-13203174D01*
X17266253Y-13203174D02*
X17275777Y-13212698D01*
X17275777Y-13212698D02*
X17285301Y-13231746D01*
X17285301Y-13231746D02*
X17285301Y-13288888D01*
X17285301Y-13288888D02*
X17275777Y-13307936D01*
X17275777Y-13307936D02*
X17266253Y-13317460D01*
X17266253Y-13317460D02*
X17247206Y-13326984D01*
X17247206Y-13326984D02*
X17218634Y-13326984D01*
X17399587Y-13326984D02*
X17380539Y-13317460D01*
X17380539Y-13317460D02*
X17371015Y-13298412D01*
X17371015Y-13298412D02*
X17371015Y-13126984D01*
X17551968Y-13317460D02*
X17532920Y-13326984D01*
X17532920Y-13326984D02*
X17494825Y-13326984D01*
X17494825Y-13326984D02*
X17475777Y-13317460D01*
X17475777Y-13317460D02*
X17466253Y-13298412D01*
X17466253Y-13298412D02*
X17466253Y-13222222D01*
X17466253Y-13222222D02*
X17475777Y-13203174D01*
X17475777Y-13203174D02*
X17494825Y-13193650D01*
X17494825Y-13193650D02*
X17532920Y-13193650D01*
X17532920Y-13193650D02*
X17551968Y-13203174D01*
X17551968Y-13203174D02*
X17561492Y-13222222D01*
X17561492Y-13222222D02*
X17561492Y-13241269D01*
X17561492Y-13241269D02*
X17466253Y-13260317D01*
X17637682Y-13317460D02*
X17656730Y-13326984D01*
X17656730Y-13326984D02*
X17694825Y-13326984D01*
X17694825Y-13326984D02*
X17713873Y-13317460D01*
X17713873Y-13317460D02*
X17723396Y-13298412D01*
X17723396Y-13298412D02*
X17723396Y-13288888D01*
X17723396Y-13288888D02*
X17713873Y-13269841D01*
X17713873Y-13269841D02*
X17694825Y-13260317D01*
X17694825Y-13260317D02*
X17666253Y-13260317D01*
X17666253Y-13260317D02*
X17647206Y-13250793D01*
X17647206Y-13250793D02*
X17637682Y-13231746D01*
X17637682Y-13231746D02*
X17637682Y-13222222D01*
X17637682Y-13222222D02*
X17647206Y-13203174D01*
X17647206Y-13203174D02*
X17666253Y-13193650D01*
X17666253Y-13193650D02*
X17694825Y-13193650D01*
X17694825Y-13193650D02*
X17713873Y-13203174D01*
X17790063Y-13403174D02*
X17799587Y-13393650D01*
X17799587Y-13393650D02*
X17818634Y-13365079D01*
X17818634Y-13365079D02*
X17828158Y-13346031D01*
X17828158Y-13346031D02*
X17837682Y-13317460D01*
X17837682Y-13317460D02*
X17847206Y-13269841D01*
X17847206Y-13269841D02*
X17847206Y-13231746D01*
X17847206Y-13231746D02*
X17837682Y-13184127D01*
X17837682Y-13184127D02*
X17828158Y-13155555D01*
X17828158Y-13155555D02*
X17818634Y-13136508D01*
X17818634Y-13136508D02*
X17799587Y-13107936D01*
X17799587Y-13107936D02*
X17790063Y-13098412D01*
M02*
