%TF.GenerationSoftware,KiCad,Pcbnew,8.0.3*%
%TF.CreationDate,2024-12-07T17:37:54-06:00*%
%TF.ProjectId,XVI Overclock,58564920-4f76-4657-9263-6c6f636b2e6b,rev?*%
%TF.SameCoordinates,Original*%
%TF.FileFunction,Legend,Top*%
%TF.FilePolarity,Positive*%
%FSLAX46Y46*%
G04 Gerber Fmt 4.6, Leading zero omitted, Abs format (unit mm)*
G04 Created by KiCad (PCBNEW 8.0.3) date 2024-12-07 17:37:54*
%MOMM*%
%LPD*%
G01*
G04 APERTURE LIST*
%ADD10C,0.150000*%
%ADD11C,0.120000*%
G04 APERTURE END LIST*
D10*
X145923333Y-109309819D02*
X146589999Y-109309819D01*
X146589999Y-109309819D02*
X146161428Y-110309819D01*
X147399523Y-109643152D02*
X147399523Y-110309819D01*
X147161428Y-109262200D02*
X146923333Y-109976485D01*
X146923333Y-109976485D02*
X147542380Y-109976485D01*
X148256666Y-109786009D02*
X147923333Y-109786009D01*
X147923333Y-110309819D02*
X147923333Y-109309819D01*
X147923333Y-109309819D02*
X148399523Y-109309819D01*
X149304285Y-110309819D02*
X148732857Y-110309819D01*
X149018571Y-110309819D02*
X149018571Y-109309819D01*
X149018571Y-109309819D02*
X148923333Y-109452676D01*
X148923333Y-109452676D02*
X148828095Y-109547914D01*
X148828095Y-109547914D02*
X148732857Y-109595533D01*
X150209047Y-109309819D02*
X149732857Y-109309819D01*
X149732857Y-109309819D02*
X149685238Y-109786009D01*
X149685238Y-109786009D02*
X149732857Y-109738390D01*
X149732857Y-109738390D02*
X149828095Y-109690771D01*
X149828095Y-109690771D02*
X150066190Y-109690771D01*
X150066190Y-109690771D02*
X150161428Y-109738390D01*
X150161428Y-109738390D02*
X150209047Y-109786009D01*
X150209047Y-109786009D02*
X150256666Y-109881247D01*
X150256666Y-109881247D02*
X150256666Y-110119342D01*
X150256666Y-110119342D02*
X150209047Y-110214580D01*
X150209047Y-110214580D02*
X150161428Y-110262200D01*
X150161428Y-110262200D02*
X150066190Y-110309819D01*
X150066190Y-110309819D02*
X149828095Y-110309819D01*
X149828095Y-110309819D02*
X149732857Y-110262200D01*
X149732857Y-110262200D02*
X149685238Y-110214580D01*
X150590000Y-109309819D02*
X151256666Y-109309819D01*
X151256666Y-109309819D02*
X150828095Y-110309819D01*
X136937857Y-114072200D02*
X137080714Y-114119819D01*
X137080714Y-114119819D02*
X137318809Y-114119819D01*
X137318809Y-114119819D02*
X137414047Y-114072200D01*
X137414047Y-114072200D02*
X137461666Y-114024580D01*
X137461666Y-114024580D02*
X137509285Y-113929342D01*
X137509285Y-113929342D02*
X137509285Y-113834104D01*
X137509285Y-113834104D02*
X137461666Y-113738866D01*
X137461666Y-113738866D02*
X137414047Y-113691247D01*
X137414047Y-113691247D02*
X137318809Y-113643628D01*
X137318809Y-113643628D02*
X137128333Y-113596009D01*
X137128333Y-113596009D02*
X137033095Y-113548390D01*
X137033095Y-113548390D02*
X136985476Y-113500771D01*
X136985476Y-113500771D02*
X136937857Y-113405533D01*
X136937857Y-113405533D02*
X136937857Y-113310295D01*
X136937857Y-113310295D02*
X136985476Y-113215057D01*
X136985476Y-113215057D02*
X137033095Y-113167438D01*
X137033095Y-113167438D02*
X137128333Y-113119819D01*
X137128333Y-113119819D02*
X137366428Y-113119819D01*
X137366428Y-113119819D02*
X137509285Y-113167438D01*
X137842619Y-113119819D02*
X138080714Y-114119819D01*
X138080714Y-114119819D02*
X138271190Y-113405533D01*
X138271190Y-113405533D02*
X138461666Y-114119819D01*
X138461666Y-114119819D02*
X138699762Y-113119819D01*
X138144047Y-96812606D02*
X137191666Y-96812606D01*
X137191666Y-96812606D02*
X137096428Y-97764987D01*
X137096428Y-97764987D02*
X137191666Y-97669748D01*
X137191666Y-97669748D02*
X137382142Y-97574510D01*
X137382142Y-97574510D02*
X137858333Y-97574510D01*
X137858333Y-97574510D02*
X138048809Y-97669748D01*
X138048809Y-97669748D02*
X138144047Y-97764987D01*
X138144047Y-97764987D02*
X138239285Y-97955463D01*
X138239285Y-97955463D02*
X138239285Y-98431653D01*
X138239285Y-98431653D02*
X138144047Y-98622129D01*
X138144047Y-98622129D02*
X138048809Y-98717368D01*
X138048809Y-98717368D02*
X137858333Y-98812606D01*
X137858333Y-98812606D02*
X137382142Y-98812606D01*
X137382142Y-98812606D02*
X137191666Y-98717368D01*
X137191666Y-98717368D02*
X137096428Y-98622129D01*
X138810714Y-96812606D02*
X139477380Y-98812606D01*
X139477380Y-98812606D02*
X140144047Y-96812606D01*
X137001190Y-100127732D02*
X136810714Y-100032494D01*
X136810714Y-100032494D02*
X136525000Y-100032494D01*
X136525000Y-100032494D02*
X136239285Y-100127732D01*
X136239285Y-100127732D02*
X136048809Y-100318208D01*
X136048809Y-100318208D02*
X135953571Y-100508684D01*
X135953571Y-100508684D02*
X135858333Y-100889636D01*
X135858333Y-100889636D02*
X135858333Y-101175351D01*
X135858333Y-101175351D02*
X135953571Y-101556303D01*
X135953571Y-101556303D02*
X136048809Y-101746779D01*
X136048809Y-101746779D02*
X136239285Y-101937256D01*
X136239285Y-101937256D02*
X136525000Y-102032494D01*
X136525000Y-102032494D02*
X136715476Y-102032494D01*
X136715476Y-102032494D02*
X137001190Y-101937256D01*
X137001190Y-101937256D02*
X137096428Y-101842017D01*
X137096428Y-101842017D02*
X137096428Y-101175351D01*
X137096428Y-101175351D02*
X136715476Y-101175351D01*
X137953571Y-102032494D02*
X137953571Y-100032494D01*
X137953571Y-100032494D02*
X139096428Y-102032494D01*
X139096428Y-102032494D02*
X139096428Y-100032494D01*
X140048809Y-102032494D02*
X140048809Y-100032494D01*
X140048809Y-100032494D02*
X140524999Y-100032494D01*
X140524999Y-100032494D02*
X140810714Y-100127732D01*
X140810714Y-100127732D02*
X141001190Y-100318208D01*
X141001190Y-100318208D02*
X141096428Y-100508684D01*
X141096428Y-100508684D02*
X141191666Y-100889636D01*
X141191666Y-100889636D02*
X141191666Y-101175351D01*
X141191666Y-101175351D02*
X141096428Y-101556303D01*
X141096428Y-101556303D02*
X141001190Y-101746779D01*
X141001190Y-101746779D02*
X140810714Y-101937256D01*
X140810714Y-101937256D02*
X140524999Y-102032494D01*
X140524999Y-102032494D02*
X140048809Y-102032494D01*
X139144047Y-105061905D02*
X139048809Y-105157144D01*
X139048809Y-105157144D02*
X138763095Y-105252382D01*
X138763095Y-105252382D02*
X138572619Y-105252382D01*
X138572619Y-105252382D02*
X138286904Y-105157144D01*
X138286904Y-105157144D02*
X138096428Y-104966667D01*
X138096428Y-104966667D02*
X138001190Y-104776191D01*
X138001190Y-104776191D02*
X137905952Y-104395239D01*
X137905952Y-104395239D02*
X137905952Y-104109524D01*
X137905952Y-104109524D02*
X138001190Y-103728572D01*
X138001190Y-103728572D02*
X138096428Y-103538096D01*
X138096428Y-103538096D02*
X138286904Y-103347620D01*
X138286904Y-103347620D02*
X138572619Y-103252382D01*
X138572619Y-103252382D02*
X138763095Y-103252382D01*
X138763095Y-103252382D02*
X139048809Y-103347620D01*
X139048809Y-103347620D02*
X139144047Y-103442858D01*
X138001190Y-108472270D02*
X138001190Y-106472270D01*
X138001190Y-106472270D02*
X138477380Y-106472270D01*
X138477380Y-106472270D02*
X138763095Y-106567508D01*
X138763095Y-106567508D02*
X138953571Y-106757984D01*
X138953571Y-106757984D02*
X139048809Y-106948460D01*
X139048809Y-106948460D02*
X139144047Y-107329412D01*
X139144047Y-107329412D02*
X139144047Y-107615127D01*
X139144047Y-107615127D02*
X139048809Y-107996079D01*
X139048809Y-107996079D02*
X138953571Y-108186555D01*
X138953571Y-108186555D02*
X138763095Y-108377032D01*
X138763095Y-108377032D02*
X138477380Y-108472270D01*
X138477380Y-108472270D02*
X138001190Y-108472270D01*
X146758333Y-97349819D02*
X146425000Y-96873628D01*
X146186905Y-97349819D02*
X146186905Y-96349819D01*
X146186905Y-96349819D02*
X146567857Y-96349819D01*
X146567857Y-96349819D02*
X146663095Y-96397438D01*
X146663095Y-96397438D02*
X146710714Y-96445057D01*
X146710714Y-96445057D02*
X146758333Y-96540295D01*
X146758333Y-96540295D02*
X146758333Y-96683152D01*
X146758333Y-96683152D02*
X146710714Y-96778390D01*
X146710714Y-96778390D02*
X146663095Y-96826009D01*
X146663095Y-96826009D02*
X146567857Y-96873628D01*
X146567857Y-96873628D02*
X146186905Y-96873628D01*
X147710714Y-97349819D02*
X147139286Y-97349819D01*
X147425000Y-97349819D02*
X147425000Y-96349819D01*
X147425000Y-96349819D02*
X147329762Y-96492676D01*
X147329762Y-96492676D02*
X147234524Y-96587914D01*
X147234524Y-96587914D02*
X147139286Y-96635533D01*
D11*
%TO.C,IC1*%
X148590000Y-108565000D02*
X150540000Y-108565000D01*
X148590000Y-108565000D02*
X146640000Y-108565000D01*
X148590000Y-98445000D02*
X150540000Y-98445000D01*
X148590000Y-98445000D02*
X145090000Y-98445000D01*
%TO.C,X1*%
X158015000Y-97170000D02*
G75*
G02*
X158765000Y-96420000I750000J0D01*
G01*
X170165000Y-96420000D02*
G75*
G02*
X170915000Y-97170000I0J-750000D01*
G01*
X170915000Y-108570000D02*
G75*
G02*
X170165000Y-109320000I-750000J0D01*
G01*
X158015000Y-97170000D02*
X158015000Y-109320000D01*
X170165000Y-96420000D02*
X158765000Y-96420000D01*
X170915000Y-108570000D02*
X170915000Y-97170000D01*
X158015000Y-109320000D02*
X170165000Y-109320000D01*
%TO.C,SW1*%
X132655000Y-113665000D02*
X135315000Y-113665000D01*
X132655000Y-113665000D02*
X132655000Y-116265000D01*
X132655000Y-116265000D02*
X135315000Y-116265000D01*
X135315000Y-113665000D02*
X135315000Y-116265000D01*
X135315000Y-111065000D02*
X135315000Y-112395000D01*
X133985000Y-111065000D02*
X135315000Y-111065000D01*
%TO.C,R1*%
X150195000Y-95895000D02*
X150195000Y-93155000D01*
X150195000Y-93155000D02*
X143655000Y-93155000D01*
X143655000Y-93155000D02*
X143655000Y-95895000D01*
X143655000Y-95895000D02*
X150195000Y-95895000D01*
X150965000Y-94525000D02*
X150195000Y-94525000D01*
X142885000Y-94525000D02*
X143655000Y-94525000D01*
%TO.C,J1*%
X132655000Y-100330000D02*
X135315000Y-100330000D01*
X132655000Y-100330000D02*
X132655000Y-108010000D01*
X132655000Y-108010000D02*
X135315000Y-108010000D01*
X135315000Y-100330000D02*
X135315000Y-108010000D01*
X135315000Y-97730000D02*
X135315000Y-99060000D01*
X133985000Y-97730000D02*
X135315000Y-97730000D01*
%TD*%
M02*
